<svg id="svg" version="1.1" xmlns="http://www.w3.org/2000/svg" xmlns:xlink="http://www.w3.org/1999/xlink" width="400" height="400" viewBox="0, 0, 400,400"><g id="svgg"><path id="path0" d="M196.200 78.264 C 110.895 82.666,56.252 165.500,86.605 244.400 C 100.245 279.855,132.031 308.280,168.449 317.590 C 176.550 319.661,175.711 319.507,188.400 321.234 C 192.705 321.820,207.643 321.838,211.600 321.261 C 213.250 321.021,216.670 320.535,219.200 320.182 C 269.767 313.124,313.124 269.767,320.182 219.200 C 320.535 216.670,321.021 213.250,321.261 211.600 C 321.838 207.643,321.820 192.705,321.234 188.400 C 319.896 178.564,319.499 176.009,318.996 174.000 C 315.635 160.554,313.703 155.122,308.752 145.200 C 287.958 103.524,241.550 75.924,196.200 78.264 M192.957 94.233 C 193.278 95.069,193.262 140.330,192.940 141.531 L 192.690 142.462 185.445 142.203 C 178.682 141.960,156.034 140.168,155.716 139.849 C 155.459 139.593,159.050 130.723,161.485 125.600 C 168.196 111.481,177.108 100.964,186.808 95.721 C 190.729 93.602,192.546 93.162,192.957 94.233 M212.200 95.147 C 221.574 99.551,231.092 110.413,238.177 124.790 C 240.164 128.822,244.400 139.154,244.400 139.969 C 244.400 140.166,242.825 140.447,240.900 140.591 C 238.975 140.736,234.520 141.103,231.000 141.407 C 227.480 141.711,220.685 142.080,215.900 142.228 L 207.200 142.498 207.200 117.999 L 207.200 93.500 208.500 93.760 C 209.215 93.902,210.880 94.527,212.200 95.147 M160.545 100.500 C 160.379 100.775,159.317 102.260,158.185 103.800 C 152.332 111.764,144.144 128.294,142.193 136.084 C 142.044 136.680,141.714 137.335,141.461 137.541 C 140.532 138.295,116.383 133.023,116.407 132.072 C 116.465 129.738,133.685 114.395,142.600 108.736 C 150.584 103.667,161.720 98.556,160.545 100.500 M247.400 103.201 C 259.633 109.178,271.222 117.935,280.062 127.882 C 284.459 132.829,284.547 133.032,282.525 133.536 C 274.562 135.525,262.022 138.055,259.621 138.158 C 258.780 138.194,258.538 137.891,257.898 136.000 C 254.002 124.476,248.335 113.016,242.298 104.452 C 238.382 98.896,238.520 98.862,247.400 103.201 M115.563 146.569 C 123.954 148.777,128.406 149.803,133.200 150.634 C 138.058 151.476,137.810 150.941,136.438 157.631 C 134.568 166.742,133.501 174.953,132.752 186.000 C 132.481 189.992,132.126 192.716,131.852 192.894 C 131.248 193.287,93.534 193.273,92.915 192.880 C 91.573 192.027,94.766 174.427,97.937 165.200 C 101.210 155.676,107.030 144.096,108.298 144.582 C 108.644 144.715,111.913 145.609,115.563 146.569 M293.626 146.500 C 299.267 155.504,304.866 171.681,306.536 183.800 C 307.710 192.319,307.716 192.676,306.698 192.948 C 305.401 193.296,268.687 193.244,268.148 192.894 C 267.877 192.718,267.588 190.594,267.428 187.600 C 266.967 178.998,265.420 166.721,263.773 158.605 C 262.297 151.331,261.991 151.827,268.600 150.800 C 272.136 150.251,284.319 147.489,288.800 146.222 C 290.670 145.692,292.338 145.246,292.506 145.230 C 292.674 145.213,293.178 145.785,293.626 146.500 M159.200 154.370 C 165.916 155.069,172.767 155.557,182.800 156.051 C 188.861 156.349,192.712 156.698,192.894 156.966 C 193.427 157.754,193.260 192.180,192.720 192.720 C 192.139 193.301,147.750 193.409,146.838 192.832 C 145.625 192.064,147.383 174.393,150.045 160.600 C 151.519 152.960,151.267 153.452,153.552 153.741 C 154.568 153.870,157.110 154.153,159.200 154.370 M250.156 161.500 C 251.756 169.759,253.087 180.350,253.472 187.877 L 253.721 192.754 252.761 192.988 C 252.232 193.116,241.810 193.171,229.600 193.111 L 207.400 193.000 207.400 174.800 L 207.400 156.600 210.600 156.506 C 215.951 156.347,234.650 155.179,240.600 154.631 C 243.680 154.347,246.763 154.089,247.452 154.057 L 248.704 154.000 250.156 161.500 M132.568 211.500 C 133.042 219.839,134.622 232.346,136.219 240.400 C 136.939 244.030,137.409 247.109,137.264 247.242 C 137.119 247.376,133.940 248.063,130.200 248.770 C 123.015 250.128,115.089 251.957,110.858 253.233 C 106.534 254.537,106.838 254.746,103.670 248.300 C 97.362 235.466,93.887 223.301,92.641 209.700 L 92.412 207.200 112.368 207.200 L 132.323 207.200 132.568 211.500 M193.096 224.600 C 193.149 234.060,193.053 242.018,192.882 242.285 C 192.664 242.625,189.521 242.894,182.356 243.186 C 176.738 243.415,169.004 243.876,165.170 244.209 C 152.824 245.284,151.732 245.338,151.449 244.879 C 151.161 244.413,149.150 234.357,148.433 229.800 C 147.861 226.157,146.900 216.752,146.554 211.409 L 146.282 207.194 169.641 207.297 L 193.000 207.400 193.096 224.600 M253.461 211.767 C 252.876 222.009,249.543 244.173,248.413 245.337 C 248.233 245.522,245.142 245.390,241.543 245.042 C 228.902 243.822,226.147 243.611,220.000 243.393 C 216.590 243.272,212.315 243.073,210.500 242.950 L 207.200 242.728 207.200 224.964 L 207.200 207.200 230.461 207.200 L 253.722 207.200 253.461 211.767 M307.364 209.700 C 306.479 219.614,304.194 229.427,300.542 239.000 C 298.654 243.947,293.196 254.800,292.595 254.800 C 292.325 254.800,290.326 254.277,288.152 253.639 C 282.676 252.030,275.228 250.258,268.600 248.988 C 261.730 247.672,262.242 248.305,263.426 242.596 C 265.189 234.095,266.937 220.661,267.420 211.900 L 267.679 207.200 287.633 207.200 L 307.588 207.200 307.364 209.700 M192.957 257.433 C 193.318 258.372,193.240 304.918,192.876 305.490 C 192.643 305.858,191.840 305.685,189.649 304.793 C 177.023 299.655,165.549 285.184,157.341 264.047 C 155.261 258.690,155.021 259.235,159.661 258.771 C 170.292 257.708,172.829 257.518,180.200 257.235 C 193.191 256.735,192.686 256.727,192.957 257.433 M224.200 257.615 C 227.940 257.824,232.620 258.182,234.600 258.412 C 236.580 258.641,239.550 258.960,241.200 259.121 C 244.750 259.465,244.673 259.028,242.278 265.200 C 235.976 281.443,226.268 295.126,216.498 301.537 C 213.291 303.641,208.087 306.064,207.500 305.726 C 207.335 305.631,207.200 294.587,207.200 281.185 L 207.200 256.817 212.300 257.026 C 215.105 257.142,220.460 257.407,224.200 257.615 M141.929 262.500 C 144.685 272.260,152.421 287.662,159.223 296.929 C 161.893 300.567,161.853 300.783,158.722 299.611 C 151.261 296.820,138.742 289.290,131.600 283.297 C 124.797 277.589,115.355 267.735,115.699 266.702 C 115.877 266.170,122.965 264.407,132.200 262.599 C 141.141 260.848,141.462 260.845,141.929 262.500 M265.562 262.624 C 268.553 263.187,273.851 264.357,277.335 265.224 C 280.819 266.091,283.744 266.800,283.835 266.800 C 285.807 266.800,273.139 279.857,265.584 285.611 C 258.521 290.991,247.494 297.337,241.263 299.609 C 238.126 300.753,237.995 300.584,240.026 298.015 C 246.291 290.089,252.807 277.453,257.825 263.500 C 258.643 261.227,258.330 261.262,265.562 262.624 " stroke="none" fill="#040604" fill-rule="evenodd"></path><path id="path1" d="M179.000 0.464 C 176.140 0.655,173.523 0.967,173.184 1.157 C 172.845 1.346,170.909 1.633,168.881 1.794 C 166.854 1.954,165.106 2.228,164.999 2.402 C 164.891 2.576,163.542 2.845,162.000 3.000 C 160.458 3.155,159.097 3.443,158.975 3.641 C 158.853 3.838,158.133 4.000,157.376 4.000 C 156.619 4.000,156.000 4.159,156.000 4.353 C 156.000 4.548,154.830 4.832,153.400 4.985 C 151.970 5.138,150.800 5.412,150.800 5.593 C 150.800 5.773,149.720 6.047,148.400 6.200 C 147.080 6.353,146.000 6.624,146.000 6.802 C 146.000 6.979,145.100 7.249,144.000 7.400 C 142.900 7.551,142.000 7.821,142.000 8.000 C 142.000 8.179,141.100 8.449,140.000 8.600 C 138.900 8.751,138.000 9.027,138.000 9.213 C 138.000 9.399,137.190 9.672,136.200 9.821 C 135.210 9.969,134.400 10.239,134.400 10.421 C 134.400 10.602,133.590 10.872,132.600 11.021 C 131.610 11.169,130.800 11.450,130.800 11.645 C 130.800 11.840,130.485 12.001,130.100 12.002 C 129.715 12.004,128.917 12.257,128.327 12.565 C 127.737 12.873,126.702 13.246,126.027 13.394 C 125.352 13.542,124.800 13.806,124.800 13.981 C 124.800 14.155,124.080 14.413,123.200 14.554 C 122.320 14.694,121.600 14.979,121.600 15.187 C 121.600 15.394,120.970 15.682,120.200 15.826 C 119.430 15.971,118.800 16.249,118.800 16.445 C 118.800 16.640,118.530 16.800,118.200 16.800 C 117.870 16.800,117.600 16.960,117.600 17.155 C 117.600 17.351,116.970 17.629,116.200 17.774 C 115.430 17.918,114.800 18.188,114.800 18.374 C 114.800 18.559,114.170 18.829,113.400 18.974 C 112.630 19.118,112.000 19.394,112.000 19.586 C 112.000 19.779,111.460 20.055,110.800 20.200 C 110.140 20.345,109.600 20.615,109.600 20.800 C 109.600 20.985,109.060 21.255,108.400 21.400 C 107.740 21.545,107.200 21.826,107.200 22.024 C 107.200 22.222,106.750 22.498,106.200 22.636 C 105.650 22.774,105.200 23.028,105.200 23.200 C 105.200 23.372,104.707 23.637,104.104 23.788 C 103.501 23.940,102.916 24.184,102.804 24.332 C 102.611 24.585,101.873 25.004,98.300 26.889 C 97.475 27.325,96.800 27.843,96.800 28.040 C 96.800 28.238,96.530 28.400,96.200 28.400 C 95.870 28.400,95.600 28.580,95.600 28.800 C 95.600 29.020,95.343 29.200,95.029 29.200 C 94.714 29.200,94.217 29.425,93.922 29.700 C 93.628 29.975,92.702 30.551,91.864 30.979 C 91.026 31.408,89.966 32.083,89.509 32.479 C 89.052 32.876,88.435 33.200,88.139 33.200 C 87.842 33.200,87.595 33.335,87.589 33.500 C 87.583 33.665,86.863 34.241,85.989 34.780 C 85.115 35.320,84.400 35.905,84.400 36.080 C 84.400 36.256,84.124 36.400,83.787 36.400 C 83.451 36.400,83.071 36.670,82.945 37.000 C 82.818 37.330,82.462 37.600,82.153 37.600 C 81.845 37.600,81.284 37.960,80.907 38.400 C 80.530 38.840,80.007 39.200,79.744 39.200 C 79.482 39.200,79.207 39.336,79.133 39.503 C 79.060 39.670,78.190 40.430,77.200 41.192 C 76.210 41.955,75.256 42.808,75.080 43.089 C 74.904 43.370,74.565 43.600,74.326 43.600 C 74.087 43.600,73.501 44.021,73.024 44.537 C 72.546 45.052,71.851 45.644,71.479 45.852 C 68.770 47.368,47.368 68.770,45.852 71.479 C 45.644 71.851,45.052 72.546,44.537 73.024 C 44.021 73.501,43.600 74.087,43.600 74.326 C 43.600 74.565,43.370 74.904,43.089 75.080 C 42.808 75.256,41.955 76.210,41.192 77.200 C 40.430 78.190,39.670 79.060,39.503 79.133 C 39.336 79.207,39.200 79.482,39.200 79.744 C 39.200 80.007,38.840 80.530,38.400 80.907 C 37.960 81.284,37.600 81.845,37.600 82.153 C 37.600 82.462,37.330 82.818,37.000 82.945 C 36.670 83.071,36.400 83.451,36.400 83.787 C 36.400 84.124,36.256 84.400,36.080 84.400 C 35.905 84.400,35.320 85.115,34.780 85.989 C 34.241 86.863,33.665 87.583,33.500 87.589 C 33.335 87.595,33.200 87.842,33.200 88.139 C 33.200 88.435,32.876 89.052,32.479 89.509 C 32.083 89.966,31.408 91.026,30.979 91.864 C 30.551 92.702,29.975 93.628,29.700 93.922 C 29.425 94.217,29.200 94.714,29.200 95.029 C 29.200 95.343,29.020 95.600,28.800 95.600 C 28.580 95.600,28.400 95.870,28.400 96.200 C 28.400 96.530,28.238 96.800,28.040 96.800 C 27.843 96.800,27.325 97.475,26.889 98.300 C 25.004 101.873,24.585 102.611,24.332 102.804 C 24.184 102.916,23.940 103.501,23.788 104.104 C 23.637 104.707,23.372 105.200,23.200 105.200 C 23.028 105.200,22.774 105.650,22.636 106.200 C 22.498 106.750,22.222 107.200,22.024 107.200 C 21.826 107.200,21.545 107.740,21.400 108.400 C 21.255 109.060,20.985 109.600,20.800 109.600 C 20.615 109.600,20.345 110.140,20.200 110.800 C 20.055 111.460,19.779 112.000,19.586 112.000 C 19.394 112.000,19.118 112.630,18.974 113.400 C 18.829 114.170,18.559 114.800,18.374 114.800 C 18.188 114.800,17.918 115.430,17.774 116.200 C 17.629 116.970,17.351 117.600,17.155 117.600 C 16.960 117.600,16.800 117.870,16.800 118.200 C 16.800 118.530,16.640 118.800,16.445 118.800 C 16.249 118.800,15.971 119.430,15.826 120.200 C 15.682 120.970,15.394 121.600,15.187 121.600 C 14.979 121.600,14.694 122.320,14.554 123.200 C 14.413 124.080,14.155 124.800,13.981 124.800 C 13.806 124.800,13.542 125.352,13.394 126.027 C 13.246 126.702,12.873 127.737,12.565 128.327 C 12.257 128.917,12.004 129.715,12.002 130.100 C 12.001 130.485,11.840 130.800,11.645 130.800 C 11.450 130.800,11.169 131.610,11.021 132.600 C 10.872 133.590,10.602 134.400,10.421 134.400 C 10.239 134.400,9.969 135.210,9.821 136.200 C 9.672 137.190,9.399 138.000,9.213 138.000 C 9.027 138.000,8.751 138.900,8.600 140.000 C 8.449 141.100,8.179 142.000,8.000 142.000 C 7.821 142.000,7.551 142.900,7.400 144.000 C 7.249 145.100,6.979 146.000,6.802 146.000 C 6.624 146.000,6.353 147.080,6.200 148.400 C 6.047 149.720,5.773 150.800,5.593 150.800 C 5.412 150.800,5.138 151.970,4.985 153.400 C 4.832 154.830,4.548 156.000,4.353 156.000 C 4.159 156.000,4.000 156.619,4.000 157.376 C 4.000 158.133,3.838 158.853,3.641 158.975 C 3.443 159.097,3.155 160.458,3.000 162.000 C 2.845 163.542,2.576 164.891,2.402 164.999 C 2.228 165.106,1.956 166.861,1.798 168.897 C 1.641 170.934,1.374 172.780,1.207 173.000 C -0.332 175.019,-0.339 225.033,1.199 227.000 C 1.371 227.220,1.641 229.066,1.798 231.103 C 1.956 233.139,2.228 234.894,2.402 235.001 C 2.576 235.109,2.845 236.458,3.000 238.000 C 3.155 239.542,3.443 240.903,3.641 241.025 C 3.838 241.147,4.000 241.856,4.000 242.600 C 4.000 243.344,4.162 244.053,4.361 244.176 C 4.559 244.298,4.847 245.479,5.000 246.799 C 5.153 248.120,5.423 249.200,5.600 249.200 C 5.777 249.200,6.047 250.280,6.200 251.600 C 6.353 252.920,6.618 254.000,6.788 254.000 C 6.958 254.000,7.215 254.893,7.360 255.984 C 7.505 257.075,7.788 258.069,7.988 258.193 C 8.189 258.317,8.475 259.224,8.622 260.209 C 8.770 261.194,9.039 262.000,9.221 262.000 C 9.402 262.000,9.672 262.810,9.821 263.800 C 9.969 264.790,10.239 265.600,10.421 265.600 C 10.602 265.600,10.872 266.410,11.021 267.400 C 11.169 268.390,11.435 269.200,11.610 269.200 C 11.786 269.200,12.051 269.920,12.200 270.800 C 12.349 271.680,12.614 272.400,12.791 272.400 C 12.967 272.400,13.229 273.030,13.374 273.800 C 13.518 274.570,13.785 275.200,13.967 275.200 C 14.149 275.200,14.413 275.920,14.554 276.800 C 14.694 277.680,14.968 278.400,15.161 278.400 C 15.355 278.400,15.633 278.895,15.779 279.500 C 16.151 281.041,16.944 282.800,17.266 282.800 C 17.415 282.800,17.655 283.340,17.800 284.000 C 17.945 284.660,18.209 285.200,18.387 285.200 C 18.565 285.200,18.829 285.830,18.974 286.600 C 19.118 287.370,19.394 288.000,19.586 288.000 C 19.779 288.000,20.055 288.540,20.200 289.200 C 20.345 289.860,20.615 290.400,20.800 290.400 C 20.985 290.400,21.255 290.940,21.400 291.600 C 21.545 292.260,21.826 292.800,22.024 292.800 C 22.222 292.800,22.498 293.250,22.636 293.800 C 22.774 294.350,23.033 294.800,23.212 294.800 C 23.390 294.800,23.655 295.340,23.800 296.000 C 23.945 296.660,24.184 297.204,24.332 297.208 C 24.479 297.213,25.050 298.199,25.600 299.400 C 26.150 300.601,26.735 301.587,26.900 301.592 C 27.065 301.596,27.200 301.876,27.200 302.213 C 27.200 302.549,27.470 302.929,27.800 303.055 C 28.130 303.182,28.400 303.536,28.400 303.843 C 28.400 304.149,28.560 304.400,28.757 304.400 C 28.953 304.400,29.226 304.850,29.364 305.400 C 29.502 305.950,29.792 306.400,30.008 306.400 C 30.223 306.400,30.400 306.629,30.400 306.909 C 30.400 307.189,31.030 308.375,31.800 309.544 C 32.570 310.713,33.200 311.834,33.200 312.035 C 33.200 312.236,33.335 312.405,33.500 312.411 C 33.665 312.417,34.241 313.137,34.780 314.011 C 35.320 314.885,35.905 315.600,36.080 315.600 C 36.256 315.600,36.400 315.876,36.400 316.213 C 36.400 316.549,36.670 316.929,37.000 317.055 C 37.330 317.182,37.600 317.500,37.600 317.761 C 37.600 318.023,37.915 318.647,38.300 319.147 C 40.784 322.378,42.669 324.644,43.100 324.920 C 43.375 325.096,43.600 325.435,43.600 325.674 C 43.600 325.913,44.005 326.498,44.500 326.973 C 44.995 327.449,45.838 328.452,46.373 329.202 C 47.764 331.150,49.540 333.102,55.097 338.789 C 63.814 347.708,64.580 348.463,66.000 349.534 C 66.770 350.115,68.195 351.357,69.166 352.295 C 70.137 353.233,71.068 354.000,71.235 354.000 C 71.402 354.000,72.078 354.540,72.738 355.200 C 73.398 355.860,74.051 356.400,74.188 356.400 C 74.326 356.400,74.835 356.809,75.319 357.308 C 75.804 357.808,76.874 358.663,77.697 359.208 C 78.521 359.754,79.196 360.335,79.197 360.500 C 79.199 360.665,79.430 360.800,79.711 360.800 C 79.992 360.800,80.530 361.160,80.907 361.600 C 81.284 362.040,81.845 362.400,82.153 362.400 C 82.462 362.400,82.818 362.670,82.945 363.000 C 83.071 363.330,83.451 363.600,83.787 363.600 C 84.124 363.600,84.400 363.744,84.400 363.920 C 84.400 364.095,85.115 364.680,85.989 365.220 C 86.863 365.759,87.583 366.335,87.589 366.500 C 87.595 366.665,87.857 366.800,88.171 366.800 C 88.486 366.800,88.981 367.035,89.271 367.322 C 89.562 367.610,90.385 368.189,91.100 368.609 C 91.815 369.029,92.400 369.494,92.400 369.643 C 92.400 369.792,92.850 370.026,93.400 370.164 C 93.950 370.302,94.400 370.578,94.400 370.776 C 94.400 370.974,94.925 371.252,95.567 371.393 C 96.208 371.534,96.833 371.908,96.954 372.224 C 97.076 372.541,97.451 372.800,97.787 372.800 C 98.124 372.800,98.400 372.960,98.400 373.157 C 98.400 373.353,98.850 373.626,99.400 373.764 C 99.950 373.902,100.400 374.178,100.400 374.376 C 100.400 374.574,100.940 374.855,101.600 375.000 C 102.260 375.145,102.800 375.415,102.800 375.600 C 102.800 375.785,103.340 376.055,104.000 376.200 C 104.660 376.345,105.200 376.610,105.200 376.788 C 105.200 376.967,105.650 377.226,106.200 377.364 C 106.750 377.502,107.200 377.778,107.200 377.976 C 107.200 378.174,107.740 378.455,108.400 378.600 C 109.060 378.745,109.600 379.015,109.600 379.200 C 109.600 379.385,110.140 379.655,110.800 379.800 C 111.460 379.945,112.000 380.185,112.000 380.334 C 112.000 380.483,112.585 380.854,113.300 381.159 C 114.015 381.464,115.355 382.048,116.278 382.457 C 117.201 382.866,118.146 383.200,118.378 383.200 C 118.610 383.200,118.800 383.360,118.800 383.555 C 118.800 383.751,119.430 384.029,120.200 384.174 C 120.970 384.318,121.600 384.606,121.600 384.813 C 121.600 385.021,122.320 385.306,123.200 385.446 C 124.080 385.587,124.800 385.845,124.800 386.019 C 124.800 386.194,125.352 386.458,126.027 386.606 C 126.702 386.754,127.737 387.127,128.327 387.435 C 128.917 387.743,129.715 387.996,130.100 387.998 C 130.485 387.999,130.800 388.160,130.800 388.355 C 130.800 388.550,131.610 388.831,132.600 388.979 C 133.590 389.128,134.400 389.398,134.400 389.579 C 134.400 389.761,135.210 390.031,136.200 390.179 C 137.190 390.328,138.000 390.601,138.000 390.787 C 138.000 390.973,138.900 391.249,140.000 391.400 C 141.100 391.551,142.000 391.832,142.000 392.024 C 142.000 392.216,142.900 392.492,144.000 392.638 C 145.100 392.784,146.000 393.060,146.000 393.252 C 146.000 393.443,146.529 393.600,147.176 393.600 C 147.823 393.600,148.456 393.767,148.583 393.972 C 148.709 394.177,149.802 394.468,151.012 394.619 C 152.221 394.770,153.300 395.038,153.409 395.215 C 153.519 395.392,154.777 395.662,156.204 395.815 C 157.632 395.968,158.800 396.231,158.800 396.400 C 158.800 396.568,160.149 396.832,161.797 396.987 C 163.446 397.141,164.885 397.413,164.995 397.591 C 165.104 397.769,166.861 398.044,168.897 398.202 C 170.934 398.359,172.780 398.626,173.000 398.793 C 175.011 400.326,226.179 400.328,227.200 398.796 C 227.310 398.631,229.066 398.365,231.103 398.205 C 233.139 398.045,234.896 397.769,235.005 397.591 C 235.115 397.413,236.554 397.141,238.203 396.987 C 239.851 396.832,241.200 396.568,241.200 396.400 C 241.200 396.231,242.368 395.968,243.796 395.815 C 245.223 395.662,246.481 395.392,246.591 395.215 C 246.700 395.038,247.779 394.770,248.988 394.619 C 250.198 394.468,251.291 394.177,251.417 393.972 C 251.544 393.767,252.177 393.600,252.824 393.600 C 253.471 393.600,254.000 393.443,254.000 393.252 C 254.000 393.060,254.893 392.785,255.984 392.640 C 257.075 392.495,258.069 392.212,258.193 392.012 C 258.317 391.811,259.224 391.525,260.209 391.378 C 261.194 391.230,262.000 390.961,262.000 390.779 C 262.000 390.598,262.810 390.328,263.800 390.179 C 264.790 390.031,265.600 389.761,265.600 389.579 C 265.600 389.398,266.410 389.128,267.400 388.979 C 268.390 388.831,269.200 388.565,269.200 388.390 C 269.200 388.214,269.920 387.949,270.800 387.800 C 271.680 387.651,272.400 387.386,272.400 387.209 C 272.400 387.033,273.030 386.771,273.800 386.626 C 274.570 386.482,275.200 386.215,275.200 386.033 C 275.200 385.851,275.920 385.587,276.800 385.446 C 277.680 385.306,278.400 385.027,278.400 384.827 C 278.400 384.627,278.940 384.345,279.599 384.200 C 280.259 384.055,281.834 383.433,283.099 382.817 C 284.365 382.202,285.985 381.452,286.700 381.151 C 287.415 380.851,288.000 380.483,288.000 380.334 C 288.000 380.185,288.540 379.945,289.200 379.800 C 289.860 379.655,290.400 379.385,290.400 379.200 C 290.400 379.015,290.940 378.745,291.600 378.600 C 292.260 378.455,292.800 378.174,292.800 377.976 C 292.800 377.778,293.250 377.502,293.800 377.364 C 294.350 377.226,294.800 376.967,294.800 376.788 C 294.800 376.610,295.340 376.345,296.000 376.200 C 296.660 376.055,297.200 375.785,297.200 375.600 C 297.200 375.415,297.740 375.145,298.400 375.000 C 299.060 374.855,299.600 374.574,299.600 374.376 C 299.600 374.178,300.050 373.902,300.600 373.764 C 301.150 373.626,301.600 373.353,301.600 373.157 C 301.600 372.960,301.876 372.800,302.213 372.800 C 302.549 372.800,302.924 372.541,303.046 372.224 C 303.167 371.908,303.792 371.534,304.433 371.393 C 305.075 371.252,305.600 370.983,305.600 370.795 C 305.600 370.607,306.005 370.328,306.500 370.173 C 306.995 370.019,307.490 369.772,307.600 369.625 C 307.959 369.147,311.630 366.800,312.020 366.800 C 312.229 366.800,312.405 366.665,312.411 366.500 C 312.417 366.335,313.137 365.759,314.011 365.220 C 314.885 364.680,315.600 364.095,315.600 363.920 C 315.600 363.744,315.876 363.600,316.213 363.600 C 316.549 363.600,316.929 363.330,317.055 363.000 C 317.182 362.670,317.523 362.400,317.814 362.400 C 318.105 362.400,318.586 362.175,318.882 361.900 C 319.179 361.625,320.047 360.958,320.811 360.418 C 322.572 359.173,322.974 358.849,324.436 357.500 C 325.091 356.895,325.725 356.400,325.845 356.400 C 325.964 356.400,326.602 355.860,327.262 355.200 C 327.922 354.540,328.591 354.000,328.748 354.000 C 328.906 354.000,329.761 353.325,330.649 352.500 C 331.536 351.675,333.144 350.280,334.221 349.400 C 335.298 348.520,337.128 346.810,338.287 345.600 C 341.179 342.580,343.201 340.557,345.688 338.192 C 346.850 337.087,348.520 335.301,349.400 334.223 C 350.280 333.145,351.675 331.536,352.500 330.649 C 353.325 329.761,354.000 328.906,354.000 328.748 C 354.000 328.591,354.540 327.922,355.200 327.262 C 355.860 326.602,356.400 325.964,356.400 325.845 C 356.400 325.725,356.895 325.091,357.500 324.436 C 358.849 322.974,359.173 322.572,360.418 320.811 C 360.958 320.047,361.625 319.179,361.900 318.882 C 362.175 318.586,362.400 318.105,362.400 317.814 C 362.400 317.523,362.670 317.182,363.000 317.055 C 363.330 316.929,363.600 316.549,363.600 316.213 C 363.600 315.876,363.744 315.600,363.920 315.600 C 364.095 315.600,364.680 314.885,365.220 314.011 C 365.759 313.137,366.335 312.417,366.500 312.411 C 366.665 312.405,366.800 312.229,366.800 312.020 C 366.800 311.630,369.147 307.959,369.625 307.600 C 369.772 307.490,370.019 306.995,370.173 306.500 C 370.328 306.005,370.607 305.600,370.795 305.600 C 370.983 305.600,371.252 305.075,371.393 304.433 C 371.534 303.792,371.908 303.167,372.224 303.046 C 372.541 302.924,372.800 302.549,372.800 302.213 C 372.800 301.876,372.960 301.600,373.157 301.600 C 373.353 301.600,373.626 301.150,373.764 300.600 C 373.902 300.050,374.178 299.600,374.376 299.600 C 374.574 299.600,374.855 299.060,375.000 298.400 C 375.145 297.740,375.415 297.200,375.600 297.200 C 375.785 297.200,376.055 296.660,376.200 296.000 C 376.345 295.340,376.610 294.800,376.788 294.800 C 376.967 294.800,377.226 294.350,377.364 293.800 C 377.502 293.250,377.778 292.800,377.976 292.800 C 378.174 292.800,378.455 292.260,378.600 291.600 C 378.745 290.940,379.015 290.400,379.200 290.400 C 379.385 290.400,379.655 289.860,379.800 289.200 C 379.945 288.540,380.185 288.000,380.334 288.000 C 380.483 288.000,380.851 287.415,381.151 286.700 C 381.452 285.985,382.202 284.365,382.817 283.099 C 383.433 281.834,384.055 280.259,384.200 279.599 C 384.345 278.940,384.627 278.400,384.827 278.400 C 385.027 278.400,385.306 277.680,385.446 276.800 C 385.587 275.920,385.851 275.200,386.033 275.200 C 386.215 275.200,386.482 274.570,386.626 273.800 C 386.771 273.030,387.033 272.400,387.209 272.400 C 387.386 272.400,387.651 271.680,387.800 270.800 C 387.949 269.920,388.214 269.200,388.390 269.200 C 388.565 269.200,388.831 268.390,388.979 267.400 C 389.128 266.410,389.398 265.600,389.579 265.600 C 389.761 265.600,390.031 264.790,390.179 263.800 C 390.328 262.810,390.598 262.000,390.779 262.000 C 390.961 262.000,391.230 261.194,391.378 260.209 C 391.525 259.224,391.811 258.317,392.012 258.193 C 392.212 258.069,392.495 257.075,392.640 255.984 C 392.785 254.893,393.060 254.000,393.252 254.000 C 393.443 254.000,393.600 253.471,393.600 252.824 C 393.600 252.177,393.767 251.544,393.972 251.417 C 394.177 251.291,394.468 250.198,394.619 248.988 C 394.770 247.779,395.038 246.700,395.215 246.591 C 395.392 246.481,395.662 245.223,395.815 243.796 C 395.968 242.368,396.231 241.200,396.400 241.200 C 396.568 241.200,396.832 239.851,396.987 238.203 C 397.141 236.554,397.413 235.115,397.591 235.005 C 397.769 234.896,398.045 233.139,398.205 231.103 C 398.365 229.066,398.631 227.310,398.796 227.200 C 400.328 226.179,400.326 175.011,398.793 173.000 C 398.626 172.780,398.359 170.934,398.202 168.897 C 398.044 166.861,397.769 165.104,397.591 164.995 C 397.413 164.885,397.141 163.446,396.987 161.797 C 396.832 160.149,396.568 158.800,396.400 158.800 C 396.231 158.800,395.968 157.632,395.815 156.204 C 395.662 154.777,395.392 153.519,395.215 153.409 C 395.038 153.300,394.770 152.221,394.619 151.012 C 394.468 149.802,394.177 148.709,393.972 148.583 C 393.767 148.456,393.600 147.823,393.600 147.176 C 393.600 146.529,393.443 146.000,393.252 146.000 C 393.060 146.000,392.784 145.100,392.638 144.000 C 392.492 142.900,392.216 142.000,392.024 142.000 C 391.832 142.000,391.551 141.100,391.400 140.000 C 391.249 138.900,390.973 138.000,390.787 138.000 C 390.601 138.000,390.328 137.190,390.179 136.200 C 390.031 135.210,389.761 134.400,389.579 134.400 C 389.398 134.400,389.128 133.590,388.979 132.600 C 388.831 131.610,388.550 130.800,388.355 130.800 C 388.160 130.800,387.999 130.485,387.998 130.100 C 387.996 129.715,387.743 128.917,387.435 128.327 C 387.127 127.737,386.754 126.702,386.606 126.027 C 386.458 125.352,386.194 124.800,386.019 124.800 C 385.845 124.800,385.587 124.080,385.446 123.200 C 385.306 122.320,385.021 121.600,384.813 121.600 C 384.606 121.600,384.318 120.970,384.174 120.200 C 384.029 119.430,383.751 118.800,383.555 118.800 C 383.360 118.800,383.200 118.610,383.200 118.378 C 383.200 118.146,382.866 117.201,382.457 116.278 C 382.048 115.355,381.464 114.015,381.159 113.300 C 380.854 112.585,380.483 112.000,380.334 112.000 C 380.185 112.000,379.945 111.460,379.800 110.800 C 379.655 110.140,379.385 109.600,379.200 109.600 C 379.015 109.600,378.745 109.060,378.600 108.400 C 378.455 107.740,378.174 107.200,377.976 107.200 C 377.778 107.200,377.502 106.750,377.364 106.200 C 377.226 105.650,376.967 105.200,376.788 105.200 C 376.610 105.200,376.345 104.660,376.200 104.000 C 376.055 103.340,375.785 102.800,375.600 102.800 C 375.415 102.800,375.145 102.260,375.000 101.600 C 374.855 100.940,374.574 100.400,374.376 100.400 C 374.178 100.400,373.902 99.950,373.764 99.400 C 373.626 98.850,373.353 98.400,373.157 98.400 C 372.960 98.400,372.800 98.124,372.800 97.787 C 372.800 97.451,372.541 97.076,372.224 96.954 C 371.908 96.833,371.534 96.208,371.393 95.567 C 371.252 94.925,370.974 94.400,370.776 94.400 C 370.578 94.400,370.302 93.950,370.164 93.400 C 370.026 92.850,369.792 92.400,369.643 92.400 C 369.494 92.400,369.029 91.815,368.609 91.100 C 368.189 90.385,367.610 89.562,367.322 89.271 C 367.035 88.981,366.800 88.486,366.800 88.171 C 366.800 87.857,366.665 87.595,366.500 87.589 C 366.335 87.583,365.759 86.863,365.220 85.989 C 364.680 85.115,364.095 84.400,363.920 84.400 C 363.744 84.400,363.600 84.124,363.600 83.787 C 363.600 83.451,363.330 83.071,363.000 82.945 C 362.670 82.818,362.400 82.462,362.400 82.153 C 362.400 81.845,362.040 81.284,361.600 80.907 C 361.160 80.530,360.800 79.992,360.800 79.711 C 360.800 79.430,360.665 79.199,360.500 79.197 C 360.335 79.196,359.754 78.521,359.208 77.697 C 358.663 76.874,357.808 75.804,357.308 75.319 C 356.809 74.835,356.400 74.326,356.400 74.188 C 356.400 74.051,355.860 73.398,355.200 72.738 C 354.540 72.078,354.000 71.402,354.000 71.235 C 354.000 71.068,353.233 70.137,352.295 69.166 C 351.357 68.195,350.115 66.770,349.534 66.000 C 348.463 64.580,347.708 63.814,338.789 55.097 C 333.102 49.540,331.150 47.764,329.202 46.373 C 328.452 45.838,327.449 44.995,326.973 44.500 C 326.498 44.005,325.913 43.600,325.674 43.600 C 325.435 43.600,325.096 43.375,324.920 43.100 C 324.644 42.669,322.378 40.784,319.147 38.300 C 318.647 37.915,318.023 37.600,317.761 37.600 C 317.500 37.600,317.182 37.330,317.055 37.000 C 316.929 36.670,316.549 36.400,316.213 36.400 C 315.876 36.400,315.600 36.256,315.600 36.080 C 315.600 35.905,314.885 35.320,314.011 34.780 C 313.137 34.241,312.417 33.665,312.411 33.500 C 312.405 33.335,312.236 33.200,312.035 33.200 C 311.834 33.200,310.713 32.570,309.544 31.800 C 308.375 31.030,307.189 30.400,306.909 30.400 C 306.629 30.400,306.400 30.223,306.400 30.008 C 306.400 29.792,305.950 29.502,305.400 29.364 C 304.850 29.226,304.400 28.953,304.400 28.757 C 304.400 28.560,304.149 28.400,303.843 28.400 C 303.536 28.400,303.182 28.130,303.055 27.800 C 302.929 27.470,302.549 27.200,302.213 27.200 C 301.876 27.200,301.596 27.065,301.592 26.900 C 301.587 26.735,300.601 26.150,299.400 25.600 C 298.199 25.050,297.213 24.479,297.208 24.332 C 297.204 24.184,296.660 23.945,296.000 23.800 C 295.340 23.655,294.800 23.390,294.800 23.212 C 294.800 23.033,294.350 22.774,293.800 22.636 C 293.250 22.498,292.800 22.222,292.800 22.024 C 292.800 21.826,292.260 21.545,291.600 21.400 C 290.940 21.255,290.400 20.985,290.400 20.800 C 290.400 20.615,289.860 20.345,289.200 20.200 C 288.540 20.055,288.000 19.779,288.000 19.586 C 288.000 19.394,287.370 19.118,286.600 18.974 C 285.830 18.829,285.200 18.565,285.200 18.387 C 285.200 18.209,284.660 17.945,284.000 17.800 C 283.340 17.655,282.800 17.415,282.800 17.266 C 282.800 16.944,281.041 16.151,279.500 15.779 C 278.895 15.633,278.400 15.355,278.400 15.161 C 278.400 14.968,277.680 14.694,276.800 14.554 C 275.920 14.413,275.200 14.149,275.200 13.967 C 275.200 13.785,274.570 13.518,273.800 13.374 C 273.030 13.229,272.400 12.967,272.400 12.791 C 272.400 12.614,271.680 12.349,270.800 12.200 C 269.920 12.051,269.200 11.786,269.200 11.610 C 269.200 11.435,268.390 11.169,267.400 11.021 C 266.410 10.872,265.600 10.602,265.600 10.421 C 265.600 10.239,264.790 9.969,263.800 9.821 C 262.810 9.672,262.000 9.402,262.000 9.221 C 262.000 9.039,261.194 8.770,260.209 8.622 C 259.224 8.475,258.317 8.189,258.193 7.988 C 258.069 7.788,257.075 7.505,255.984 7.360 C 254.893 7.215,254.000 6.958,254.000 6.788 C 254.000 6.618,252.920 6.353,251.600 6.200 C 250.280 6.047,249.200 5.777,249.200 5.600 C 249.200 5.423,248.120 5.153,246.799 5.000 C 245.479 4.847,244.298 4.559,244.176 4.361 C 244.053 4.162,243.344 4.000,242.600 4.000 C 241.856 4.000,241.147 3.838,241.025 3.641 C 240.903 3.443,239.542 3.155,238.000 3.000 C 236.458 2.845,235.109 2.576,235.001 2.402 C 234.894 2.228,233.139 1.956,231.103 1.798 C 229.066 1.641,227.220 1.371,227.000 1.199 C 225.656 0.149,191.552 -0.373,179.000 0.464 M211.000 78.850 C 262.057 83.581,305.156 119.810,317.590 168.449 C 319.661 176.550,319.507 175.711,321.234 188.400 C 321.820 192.705,321.838 207.643,321.261 211.600 C 321.021 213.250,320.535 216.670,320.182 219.200 C 313.124 269.767,269.767 313.124,219.200 320.182 C 216.670 320.535,213.250 321.021,211.600 321.261 C 207.643 321.838,192.705 321.820,188.400 321.234 C 178.564 319.896,176.009 319.499,174.000 318.996 C 164.040 316.506,158.738 314.850,153.245 312.513 C 73.780 278.703,52.978 177.224,112.771 115.066 C 130.403 96.737,156.043 83.420,180.600 79.837 C 192.461 78.107,200.250 77.854,211.000 78.850 M190.208 94.096 C 180.000 97.799,168.925 109.947,161.485 125.600 C 159.050 130.723,155.459 139.593,155.716 139.849 C 156.034 140.168,178.682 141.960,185.445 142.203 L 192.690 142.462 192.940 141.531 C 193.262 140.330,193.278 95.069,192.957 94.233 C 192.681 93.512,191.922 93.474,190.208 94.096 M207.200 117.999 L 207.200 142.498 215.900 142.228 C 220.685 142.080,227.480 141.711,231.000 141.407 C 234.520 141.103,238.975 140.736,240.900 140.591 C 242.825 140.447,244.400 140.166,244.400 139.969 C 244.400 138.099,237.535 122.929,234.153 117.325 C 226.869 105.258,215.978 95.253,208.500 93.760 L 207.200 93.500 207.200 117.999 M155.131 101.969 C 141.987 107.995,129.924 116.863,120.107 127.717 C 118.075 129.963,116.410 131.922,116.407 132.072 C 116.383 133.023,140.532 138.295,141.461 137.541 C 141.714 137.335,142.044 136.680,142.193 136.084 C 144.144 128.294,152.332 111.764,158.185 103.800 C 159.317 102.260,160.379 100.775,160.545 100.500 C 161.125 99.540,159.422 100.002,155.131 101.969 M239.703 100.492 C 239.832 100.828,241.000 102.610,242.298 104.452 C 248.335 113.016,254.002 124.476,257.898 136.000 C 258.538 137.891,258.780 138.194,259.621 138.158 C 262.022 138.055,274.562 135.525,282.525 133.536 C 284.547 133.032,284.459 132.829,280.062 127.882 C 271.222 117.935,259.633 109.178,247.400 103.201 C 241.171 100.157,239.326 99.508,239.703 100.492 M106.085 147.071 C 99.150 159.015,94.329 174.180,92.821 188.786 C 92.524 191.671,92.546 192.645,92.915 192.880 C 93.534 193.273,131.248 193.287,131.852 192.894 C 132.126 192.716,132.481 189.992,132.752 186.000 C 133.501 174.953,134.568 166.742,136.438 157.631 C 137.810 150.941,138.058 151.476,133.200 150.634 C 127.693 149.679,111.023 145.628,108.298 144.582 C 107.836 144.405,107.251 145.063,106.085 147.071 M288.800 146.222 C 284.319 147.489,272.136 150.251,268.600 150.800 C 261.991 151.827,262.297 151.331,263.773 158.605 C 265.420 166.721,266.967 178.998,267.428 187.600 C 267.588 190.594,267.877 192.718,268.148 192.894 C 268.687 193.244,305.401 193.296,306.698 192.948 C 307.531 192.725,307.580 192.544,307.369 190.454 C 305.921 176.082,302.764 164.782,296.793 152.600 C 294.188 147.285,292.967 145.185,292.506 145.230 C 292.338 145.246,290.670 145.692,288.800 146.222 M151.492 153.854 C 151.375 154.044,150.724 157.080,150.045 160.600 C 147.383 174.393,145.625 192.064,146.838 192.832 C 147.750 193.409,192.139 193.301,192.720 192.720 C 193.260 192.180,193.427 157.754,192.894 156.966 C 192.712 156.698,188.861 156.349,182.800 156.051 C 170.592 155.450,161.216 154.710,153.552 153.741 C 152.536 153.613,151.609 153.663,151.492 153.854 M240.600 154.631 C 234.650 155.179,215.951 156.347,210.600 156.506 L 207.400 156.600 207.400 174.800 L 207.400 193.000 229.600 193.111 C 241.810 193.171,252.232 193.116,252.761 192.988 L 253.721 192.754 253.472 187.877 C 253.087 180.350,251.756 169.759,250.156 161.500 L 248.704 154.000 247.452 154.057 C 246.763 154.089,243.680 154.347,240.600 154.631 M92.641 209.700 C 93.887 223.301,97.362 235.466,103.670 248.300 C 106.838 254.746,106.534 254.537,110.858 253.233 C 115.089 251.957,123.015 250.128,130.200 248.770 C 133.940 248.063,137.119 247.376,137.264 247.242 C 137.409 247.109,136.939 244.030,136.219 240.400 C 134.622 232.346,133.042 219.839,132.568 211.500 L 132.323 207.200 112.368 207.200 L 92.412 207.200 92.641 209.700 M146.554 211.409 C 146.900 216.752,147.861 226.157,148.433 229.800 C 149.150 234.357,151.161 244.413,151.449 244.879 C 151.732 245.338,152.824 245.284,165.170 244.209 C 169.004 243.876,176.738 243.415,182.356 243.186 C 189.521 242.894,192.664 242.625,192.882 242.285 C 193.053 242.018,193.149 234.060,193.096 224.600 L 193.000 207.400 169.641 207.297 L 146.282 207.194 146.554 211.409 M207.200 224.964 L 207.200 242.728 210.500 242.950 C 212.315 243.073,216.590 243.272,220.000 243.393 C 226.147 243.611,228.902 243.822,241.543 245.042 C 245.142 245.390,248.233 245.522,248.413 245.337 C 249.543 244.173,252.876 222.009,253.461 211.767 L 253.722 207.200 230.461 207.200 L 207.200 207.200 207.200 224.964 M267.420 211.900 C 266.937 220.661,265.189 234.095,263.426 242.596 C 262.242 248.305,261.730 247.672,268.600 248.988 C 275.228 250.258,282.676 252.030,288.152 253.639 C 290.326 254.277,292.325 254.800,292.595 254.800 C 293.196 254.800,298.654 243.947,300.542 239.000 C 304.194 229.427,306.479 219.614,307.364 209.700 L 307.588 207.200 287.633 207.200 L 267.679 207.200 267.420 211.900 M180.200 257.235 C 172.829 257.518,170.292 257.708,159.661 258.771 C 155.021 259.235,155.261 258.690,157.341 264.047 C 165.549 285.184,177.023 299.655,189.649 304.793 C 191.840 305.685,192.643 305.858,192.876 305.490 C 193.240 304.918,193.318 258.372,192.957 257.433 C 192.686 256.727,193.191 256.735,180.200 257.235 M207.200 281.185 C 207.200 294.587,207.335 305.631,207.500 305.726 C 208.087 306.064,213.291 303.641,216.498 301.537 C 226.268 295.126,235.976 281.443,242.278 265.200 C 244.673 259.028,244.750 259.465,241.200 259.121 C 239.550 258.960,236.580 258.641,234.600 258.412 C 230.960 257.990,221.643 257.411,212.300 257.026 L 207.200 256.817 207.200 281.185 M132.200 262.599 C 122.965 264.407,115.877 266.170,115.699 266.702 C 115.355 267.735,124.797 277.589,131.600 283.297 C 138.742 289.290,151.261 296.820,158.722 299.611 C 161.853 300.783,161.893 300.567,159.223 296.929 C 152.421 287.662,144.685 272.260,141.929 262.500 C 141.462 260.845,141.141 260.848,132.200 262.599 M257.825 263.500 C 252.807 277.453,246.291 290.089,240.026 298.015 C 237.995 300.584,238.126 300.753,241.263 299.609 C 247.494 297.337,258.521 290.991,265.584 285.611 C 273.139 279.857,285.807 266.800,283.835 266.800 C 283.744 266.800,280.819 266.091,277.335 265.224 C 270.973 263.641,260.824 261.600,259.316 261.600 C 258.715 261.600,258.334 262.087,257.825 263.500 " stroke="none" fill="#14fb7c" fill-rule="evenodd"></path></g></svg>