<svg id="svg" version="1.1" xmlns="http://www.w3.org/2000/svg" xmlns:xlink="http://www.w3.org/1999/xlink" width="400" height="400" viewBox="0, 0, 400,400"><g id="svgg"><path id="path0" d="M217.800 82.047 C 204.980 82.480,195.379 84.489,191.969 87.452 C 191.621 87.753,191.218 88.000,191.073 88.000 C 190.553 88.000,186.459 91.037,184.333 93.000 C 181.385 95.721,176.000 102.484,176.000 103.464 C 176.000 103.614,175.762 104.021,175.470 104.369 C 174.821 105.142,172.706 110.145,171.652 113.400 C 169.662 119.544,169.481 121.602,169.306 140.200 C 169.098 162.247,170.808 159.600,156.775 159.600 C 147.185 159.600,146.002 159.672,145.245 160.300 C 144.410 160.994,144.402 161.173,144.380 180.182 L 144.358 199.365 145.279 200.074 C 146.105 200.709,147.263 200.783,156.467 200.791 C 162.114 200.796,167.024 200.911,167.378 201.047 C 169.006 201.672,168.981 200.785,169.031 260.400 C 169.080 319.282,169.080 319.293,170.475 320.040 C 171.588 320.636,216.804 320.640,217.917 320.045 C 219.216 319.349,219.227 318.835,219.205 260.000 C 219.187 208.740,219.248 202.909,219.815 202.100 L 220.445 201.200 235.353 201.200 L 250.261 201.200 251.079 200.300 C 251.908 199.389,252.181 197.330,253.615 181.200 C 254.110 175.631,255.140 165.306,255.432 163.000 C 255.656 161.222,255.571 160.878,254.661 159.900 L 253.638 158.800 236.443 158.800 C 224.751 158.800,219.163 158.664,218.985 158.376 C 218.249 157.185,218.762 134.223,219.578 131.860 C 220.892 128.048,224.273 124.008,226.158 123.998 C 226.401 123.996,227.140 123.693,227.800 123.324 C 228.845 122.740,230.672 122.642,241.907 122.569 C 251.427 122.508,254.970 122.357,255.407 121.994 C 255.916 121.572,256.000 118.765,256.000 102.197 L 256.000 82.892 255.014 82.246 C 253.909 81.522,236.137 81.427,217.800 82.047 " stroke="none" fill="#fafafb" fill-rule="evenodd"></path><path id="path1" d="M180.000 0.400 C 180.000 0.647,177.929 0.800,174.587 0.800 C 170.145 0.800,169.134 0.908,168.945 1.400 C 168.767 1.864,167.990 2.000,165.520 2.000 C 162.662 2.000,162.303 2.084,162.116 2.800 C 161.928 3.519,161.570 3.600,158.582 3.600 C 156.160 3.600,155.094 3.763,154.657 4.200 C 154.282 4.576,153.298 4.800,152.029 4.800 C 150.492 4.800,150.000 4.946,150.000 5.400 C 150.000 5.868,149.463 6.000,147.563 6.000 C 145.462 6.000,145.096 6.110,144.916 6.800 C 144.743 7.462,144.370 7.600,142.753 7.600 C 141.284 7.600,140.800 7.749,140.800 8.200 C 140.800 8.667,140.265 8.800,138.387 8.800 C 136.612 8.800,135.914 8.958,135.745 9.400 C 135.603 9.770,134.995 10.000,134.157 10.000 C 133.067 10.000,132.800 10.157,132.800 10.800 C 132.800 11.493,132.533 11.600,130.800 11.600 C 129.289 11.600,128.800 11.747,128.800 12.200 C 128.800 12.617,128.381 12.800,127.429 12.800 C 126.674 12.800,125.787 13.070,125.457 13.400 C 125.127 13.730,124.287 14.000,123.591 14.000 C 122.662 14.000,122.270 14.213,122.116 14.800 C 121.968 15.367,121.570 15.600,120.753 15.600 C 119.995 15.600,119.600 15.805,119.600 16.200 C 119.600 16.645,119.132 16.800,117.787 16.800 C 116.545 16.800,115.902 16.989,115.745 17.400 C 115.618 17.730,115.188 18.000,114.790 18.000 C 113.638 18.000,112.800 18.439,112.800 19.043 C 112.800 19.397,112.357 19.600,111.587 19.600 C 110.879 19.600,110.279 19.849,110.145 20.200 C 110.013 20.542,109.417 20.800,108.757 20.800 C 107.995 20.800,107.600 21.005,107.600 21.400 C 107.600 21.730,107.255 22.000,106.833 22.000 C 105.711 22.000,104.801 22.420,104.790 22.943 C 104.779 23.405,102.135 24.800,101.269 24.800 C 101.011 24.800,100.800 25.070,100.800 25.400 C 100.800 25.804,100.396 26.000,99.563 26.000 C 98.662 26.000,98.268 26.217,98.116 26.800 C 97.968 27.367,97.570 27.600,96.753 27.600 C 95.995 27.600,95.600 27.805,95.600 28.200 C 95.600 28.533,95.244 28.800,94.800 28.800 C 94.356 28.800,94.000 29.067,94.000 29.400 C 94.000 29.800,93.600 30.000,92.800 30.000 C 91.867 30.000,91.600 30.178,91.600 30.800 C 91.600 31.333,91.333 31.600,90.800 31.600 C 90.356 31.600,90.000 31.867,90.000 32.200 C 90.000 32.600,89.600 32.800,88.800 32.800 C 88.000 32.800,87.600 33.000,87.600 33.400 C 87.600 33.733,87.244 34.000,86.800 34.000 C 86.267 34.000,86.000 34.267,86.000 34.800 C 86.000 35.422,85.733 35.600,84.800 35.600 C 84.000 35.600,83.600 35.800,83.600 36.200 C 83.600 36.533,83.244 36.800,82.800 36.800 C 82.356 36.800,82.000 37.067,82.000 37.400 C 82.000 37.730,81.732 38.000,81.403 38.000 C 81.075 38.000,80.582 38.360,80.307 38.800 C 80.032 39.240,79.401 39.600,78.904 39.600 C 78.367 39.600,78.000 39.844,78.000 40.200 C 78.000 40.530,77.730 40.800,77.400 40.800 C 77.070 40.800,76.800 41.070,76.800 41.400 C 76.800 41.730,76.530 42.000,76.200 42.000 C 75.867 42.000,75.600 42.356,75.600 42.800 C 75.600 43.448,75.333 43.600,74.200 43.600 C 73.222 43.600,72.800 43.781,72.800 44.200 C 72.800 44.530,72.530 44.800,72.200 44.800 C 71.870 44.800,71.600 45.070,71.600 45.400 C 71.600 45.733,71.244 46.000,70.800 46.000 C 70.267 46.000,70.000 46.267,70.000 46.800 C 70.000 47.244,69.733 47.600,69.400 47.600 C 69.070 47.600,68.800 47.870,68.800 48.200 C 68.800 48.530,68.530 48.800,68.200 48.800 C 67.870 48.800,67.600 49.070,67.600 49.400 C 67.600 49.730,67.259 50.000,66.843 50.000 C 66.426 50.000,65.981 50.273,65.853 50.606 C 65.725 50.939,65.166 51.385,64.610 51.596 C 64.055 51.807,63.600 52.165,63.600 52.390 C 63.600 52.616,63.400 52.800,63.156 52.800 C 62.542 52.800,60.815 54.490,60.807 55.100 C 60.803 55.375,60.530 55.600,60.200 55.600 C 59.870 55.600,59.600 55.870,59.600 56.200 C 59.600 56.530,59.400 56.800,59.156 56.800 C 58.542 56.800,56.815 58.490,56.807 59.100 C 56.803 59.375,56.530 59.600,56.200 59.600 C 55.870 59.600,55.600 59.870,55.600 60.200 C 55.600 60.530,55.396 60.800,55.146 60.800 C 54.634 60.800,52.800 62.659,52.800 63.178 C 52.800 63.363,52.530 63.618,52.200 63.745 C 51.870 63.871,51.600 64.207,51.600 64.491 C 51.600 64.775,51.240 65.232,50.800 65.507 C 50.360 65.782,50.000 66.365,50.000 66.803 C 50.000 67.245,49.732 67.600,49.400 67.600 C 49.070 67.600,48.800 67.870,48.800 68.200 C 48.800 68.530,48.530 68.800,48.200 68.800 C 47.870 68.800,47.600 69.049,47.600 69.353 C 47.600 69.658,47.240 70.001,46.800 70.116 C 46.360 70.231,46.000 70.612,46.000 70.963 C 46.000 71.313,45.730 71.600,45.400 71.600 C 45.070 71.600,44.800 71.851,44.800 72.157 C 44.800 72.464,44.530 72.818,44.200 72.945 C 43.849 73.079,43.600 73.679,43.600 74.387 C 43.600 75.333,43.424 75.600,42.800 75.600 C 42.356 75.600,42.000 75.867,42.000 76.200 C 42.000 76.530,41.730 76.800,41.400 76.800 C 41.070 76.800,40.800 77.070,40.800 77.400 C 40.800 77.730,40.530 78.000,40.200 78.000 C 39.844 78.000,39.600 78.367,39.600 78.904 C 39.600 79.401,39.240 80.032,38.800 80.307 C 38.360 80.582,38.000 81.075,38.000 81.403 C 38.000 81.732,37.730 82.000,37.400 82.000 C 37.067 82.000,36.800 82.356,36.800 82.800 C 36.800 83.244,36.533 83.600,36.200 83.600 C 35.800 83.600,35.600 84.000,35.600 84.800 C 35.600 85.733,35.422 86.000,34.800 86.000 C 34.267 86.000,34.000 86.267,34.000 86.800 C 34.000 87.244,33.733 87.600,33.400 87.600 C 33.034 87.600,32.800 87.973,32.800 88.557 C 32.800 89.084,32.530 89.618,32.200 89.745 C 31.870 89.871,31.600 90.341,31.600 90.787 C 31.600 91.333,31.337 91.600,30.800 91.600 C 30.178 91.600,30.000 91.867,30.000 92.800 C 30.000 93.600,29.800 94.000,29.400 94.000 C 29.067 94.000,28.800 94.356,28.800 94.800 C 28.800 95.244,28.533 95.600,28.200 95.600 C 27.805 95.600,27.600 95.995,27.600 96.753 C 27.600 97.570,27.367 97.968,26.800 98.116 C 26.217 98.268,26.000 98.662,26.000 99.563 C 26.000 100.396,25.804 100.800,25.400 100.800 C 25.035 100.800,24.800 101.172,24.800 101.751 C 24.800 102.274,24.530 102.926,24.200 103.200 C 23.870 103.474,23.600 103.946,23.600 104.249 C 23.600 104.552,23.349 104.800,23.043 104.800 C 22.431 104.800,22.000 105.641,22.000 106.833 C 22.000 107.255,21.730 107.600,21.400 107.600 C 21.005 107.600,20.800 107.995,20.800 108.757 C 20.800 109.417,20.542 110.013,20.200 110.145 C 19.849 110.279,19.600 110.879,19.600 111.587 C 19.600 112.357,19.397 112.800,19.043 112.800 C 18.439 112.800,18.000 113.638,18.000 114.790 C 18.000 115.188,17.730 115.618,17.400 115.745 C 16.989 115.902,16.800 116.545,16.800 117.787 C 16.800 119.132,16.645 119.600,16.200 119.600 C 15.805 119.600,15.600 119.995,15.600 120.753 C 15.600 121.570,15.367 121.968,14.800 122.116 C 14.213 122.270,14.000 122.662,14.000 123.591 C 14.000 124.287,13.730 125.127,13.400 125.457 C 13.070 125.787,12.800 126.674,12.800 127.429 C 12.800 128.381,12.617 128.800,12.200 128.800 C 11.747 128.800,11.600 129.289,11.600 130.800 C 11.600 132.533,11.493 132.800,10.800 132.800 C 10.157 132.800,10.000 133.067,10.000 134.157 C 10.000 134.995,9.770 135.603,9.400 135.745 C 8.958 135.914,8.800 136.612,8.800 138.387 C 8.800 140.265,8.667 140.800,8.200 140.800 C 7.749 140.800,7.600 141.284,7.600 142.753 C 7.600 144.370,7.462 144.743,6.800 144.916 C 6.110 145.096,6.000 145.462,6.000 147.563 C 6.000 149.463,5.868 150.000,5.400 150.000 C 4.941 150.000,4.800 150.506,4.800 152.157 C 4.800 153.706,4.631 154.379,4.200 154.545 C 3.744 154.719,3.600 155.460,3.600 157.624 C 3.600 159.868,3.430 160.690,2.800 161.491 C 2.156 162.309,2.000 163.114,2.000 165.611 C 2.000 168.001,1.862 168.767,1.400 168.945 C 0.905 169.135,0.800 170.190,0.800 174.987 C 0.800 178.596,0.648 180.800,0.400 180.800 C 0.139 180.800,0.000 187.667,0.000 200.600 C 0.000 213.533,0.139 220.400,0.400 220.400 C 0.647 220.400,0.800 222.517,0.800 225.951 C 0.800 230.397,0.919 231.601,1.400 232.000 C 1.826 232.353,2.000 233.288,2.000 235.216 C 2.000 238.289,2.238 239.200,3.043 239.200 C 3.473 239.200,3.600 239.933,3.600 242.413 C 3.600 244.899,3.736 245.677,4.200 245.855 C 4.640 246.024,4.800 246.718,4.800 248.455 C 4.800 250.193,4.960 250.887,5.400 251.055 C 5.798 251.208,6.002 251.843,6.005 252.943 C 6.013 255.181,6.380 256.400,7.047 256.400 C 7.444 256.400,7.600 256.964,7.600 258.400 C 7.600 259.911,7.747 260.400,8.200 260.400 C 8.652 260.400,8.800 260.884,8.800 262.357 C 8.800 263.728,8.980 264.383,9.400 264.545 C 9.799 264.698,10.000 265.327,10.000 266.425 C 10.000 267.738,10.163 268.118,10.800 268.284 C 11.462 268.457,11.600 268.830,11.600 270.447 C 11.600 271.916,11.749 272.400,12.200 272.400 C 12.619 272.400,12.800 272.822,12.800 273.800 C 12.800 274.778,12.981 275.200,13.400 275.200 C 13.816 275.200,14.000 275.619,14.000 276.567 C 14.000 278.329,14.345 279.200,15.043 279.200 C 15.413 279.200,15.600 279.670,15.600 280.600 C 15.600 281.578,15.781 282.000,16.200 282.000 C 16.601 282.000,16.800 282.401,16.800 283.213 C 16.800 283.921,17.049 284.521,17.400 284.655 C 17.742 284.787,18.000 285.383,18.000 286.043 C 18.000 286.933,18.184 287.200,18.800 287.200 C 19.448 287.200,19.600 287.467,19.600 288.600 C 19.600 289.578,19.781 290.000,20.200 290.000 C 20.601 290.000,20.800 290.401,20.800 291.213 C 20.800 291.921,21.049 292.521,21.400 292.655 C 21.742 292.787,22.000 293.383,22.000 294.043 C 22.000 294.933,22.184 295.200,22.800 295.200 C 23.448 295.200,23.600 295.467,23.600 296.600 C 23.600 297.578,23.781 298.000,24.200 298.000 C 24.595 298.000,24.800 298.395,24.800 299.157 C 24.800 299.817,25.058 300.413,25.400 300.545 C 25.730 300.671,26.000 301.007,26.000 301.291 C 26.000 301.575,26.360 302.032,26.800 302.307 C 27.252 302.590,27.600 303.240,27.600 303.803 C 27.600 304.423,27.827 304.800,28.200 304.800 C 28.600 304.800,28.800 305.200,28.800 306.000 C 28.800 306.800,29.000 307.200,29.400 307.200 C 29.730 307.200,30.000 307.487,30.000 307.837 C 30.000 308.188,30.360 308.569,30.800 308.684 C 31.367 308.832,31.600 309.230,31.600 310.047 C 31.600 310.805,31.805 311.200,32.200 311.200 C 32.533 311.200,32.800 311.556,32.800 312.000 C 32.800 312.444,33.067 312.800,33.400 312.800 C 33.800 312.800,34.000 313.200,34.000 314.000 C 34.000 314.933,34.178 315.200,34.800 315.200 C 35.333 315.200,35.600 315.467,35.600 316.000 C 35.600 316.444,35.867 316.800,36.200 316.800 C 36.600 316.800,36.800 317.200,36.800 318.000 C 36.800 318.800,37.000 319.200,37.400 319.200 C 37.730 319.200,38.000 319.487,38.000 319.837 C 38.000 320.188,38.360 320.569,38.800 320.684 C 39.240 320.799,39.600 321.142,39.600 321.447 C 39.600 321.751,39.870 322.000,40.200 322.000 C 40.600 322.000,40.800 322.400,40.800 323.200 C 40.800 324.000,41.000 324.400,41.400 324.400 C 41.733 324.400,42.000 324.756,42.000 325.200 C 42.000 325.733,42.267 326.000,42.800 326.000 C 43.244 326.000,43.600 326.267,43.600 326.600 C 43.600 326.930,43.870 327.200,44.200 327.200 C 44.533 327.200,44.800 327.556,44.800 328.000 C 44.800 328.440,45.047 328.800,45.350 328.800 C 45.652 328.800,46.008 329.340,46.140 330.000 C 46.281 330.704,46.632 331.200,46.990 331.200 C 47.326 331.200,47.600 331.451,47.600 331.757 C 47.600 332.064,47.870 332.418,48.200 332.545 C 48.530 332.671,48.800 333.051,48.800 333.387 C 48.800 333.724,49.070 334.000,49.400 334.000 C 49.730 334.000,50.000 334.270,50.000 334.600 C 50.000 334.933,50.356 335.200,50.800 335.200 C 51.333 335.200,51.600 335.467,51.600 336.000 C 51.600 336.444,51.867 336.800,52.200 336.800 C 52.530 336.800,52.800 337.070,52.800 337.400 C 52.800 337.730,53.070 338.000,53.400 338.000 C 53.730 338.000,54.000 338.270,54.000 338.600 C 54.000 338.933,54.356 339.200,54.800 339.200 C 55.333 339.200,55.600 339.467,55.600 340.000 C 55.600 340.444,55.867 340.800,56.200 340.800 C 56.530 340.800,56.800 341.070,56.800 341.400 C 56.800 341.730,57.070 342.000,57.400 342.000 C 57.730 342.000,58.000 342.270,58.000 342.600 C 58.000 342.933,58.356 343.200,58.800 343.200 C 59.333 343.200,59.600 343.467,59.600 344.000 C 59.600 344.444,59.867 344.800,60.200 344.800 C 60.530 344.800,60.800 345.070,60.800 345.400 C 60.800 345.730,61.070 346.000,61.400 346.000 C 61.730 346.000,62.000 346.270,62.000 346.600 C 62.000 346.933,62.356 347.200,62.800 347.200 C 63.333 347.200,63.600 347.467,63.600 348.000 C 63.600 348.444,63.867 348.800,64.200 348.800 C 64.530 348.800,64.800 349.070,64.800 349.400 C 64.800 349.730,65.070 350.000,65.400 350.000 C 65.730 350.000,66.000 350.270,66.000 350.600 C 66.000 350.933,66.356 351.200,66.800 351.200 C 67.240 351.200,67.603 351.425,67.607 351.700 C 67.614 352.217,69.303 354.000,69.785 354.000 C 69.935 354.000,70.327 354.270,70.657 354.600 C 70.987 354.930,71.604 355.200,72.029 355.200 C 72.533 355.200,72.800 355.477,72.800 356.000 C 72.800 356.444,73.067 356.800,73.400 356.800 C 73.730 356.800,74.000 357.070,74.000 357.400 C 74.000 357.733,74.356 358.000,74.800 358.000 C 75.244 358.000,75.600 358.267,75.600 358.600 C 75.600 358.930,75.780 359.200,76.000 359.200 C 76.220 359.200,76.760 359.560,77.200 360.000 C 77.640 360.440,78.360 360.800,78.800 360.800 C 79.244 360.800,79.600 361.067,79.600 361.400 C 79.600 361.730,79.870 362.000,80.200 362.000 C 80.530 362.000,80.800 362.270,80.800 362.600 C 80.800 362.930,81.132 363.200,81.538 363.200 C 81.944 363.200,82.602 363.560,83.000 364.000 C 83.398 364.440,83.966 364.800,84.262 364.800 C 84.558 364.800,84.800 365.070,84.800 365.400 C 84.800 365.730,85.076 366.000,85.413 366.000 C 85.749 366.000,86.129 366.270,86.255 366.600 C 86.387 366.942,86.983 367.200,87.643 367.200 C 88.533 367.200,88.800 367.384,88.800 368.000 C 88.800 368.440,89.048 368.800,89.351 368.800 C 89.654 368.800,90.126 369.070,90.400 369.400 C 90.674 369.730,91.326 370.000,91.849 370.000 C 92.428 370.000,92.800 370.235,92.800 370.600 C 92.800 370.958,93.168 371.200,93.712 371.200 C 94.213 371.200,94.883 371.560,95.200 372.000 C 95.517 372.440,96.007 372.800,96.288 372.800 C 96.570 372.800,96.800 373.070,96.800 373.400 C 96.800 373.819,97.222 374.000,98.200 374.000 C 99.178 374.000,99.600 374.181,99.600 374.600 C 99.600 374.930,99.932 375.200,100.338 375.200 C 100.744 375.200,101.402 375.560,101.800 376.000 C 102.198 376.440,102.747 376.800,103.019 376.800 C 103.292 376.800,103.618 377.070,103.745 377.400 C 103.871 377.730,104.436 378.000,105.000 378.000 C 105.564 378.000,106.129 378.270,106.255 378.600 C 106.387 378.942,106.983 379.200,107.643 379.200 C 108.365 379.200,108.800 379.409,108.800 379.757 C 108.800 380.369,109.641 380.800,110.833 380.800 C 111.255 380.800,111.600 381.070,111.600 381.400 C 111.600 381.795,111.995 382.000,112.757 382.000 C 113.417 382.000,114.013 382.258,114.145 382.600 C 114.271 382.930,114.847 383.200,115.424 383.200 C 116.002 383.200,116.931 383.560,117.491 384.000 C 118.050 384.440,119.024 384.800,119.654 384.800 C 120.406 384.800,120.800 385.006,120.800 385.400 C 120.800 385.819,121.222 386.000,122.200 386.000 C 123.178 386.000,123.600 386.181,123.600 386.600 C 123.600 387.000,124.000 387.200,124.800 387.200 C 125.467 387.200,126.356 387.556,126.800 388.000 C 127.240 388.440,128.118 388.800,128.751 388.800 C 129.384 388.800,130.126 389.070,130.400 389.400 C 130.682 389.739,131.554 390.000,132.406 390.000 C 133.378 390.000,133.996 390.213,134.145 390.600 C 134.297 390.996,134.923 391.200,135.987 391.200 C 137.067 391.200,137.865 391.465,138.400 392.000 C 138.886 392.486,139.733 392.800,140.557 392.800 C 141.395 392.800,142.003 393.030,142.145 393.400 C 142.317 393.849,143.034 394.000,144.987 394.000 C 147.043 394.000,147.600 394.128,147.600 394.600 C 147.600 395.053,148.089 395.200,149.600 395.200 C 151.030 395.200,151.600 395.357,151.600 395.750 C 151.600 396.392,153.313 396.800,156.007 396.800 C 157.334 396.800,157.985 396.983,158.145 397.400 C 158.323 397.864,159.101 398.000,161.587 398.000 C 164.176 398.000,164.800 398.116,164.800 398.600 C 164.800 399.099,165.578 399.200,169.400 399.200 C 172.200 399.200,174.000 399.357,174.000 399.600 C 174.000 399.863,183.133 400.000,200.600 400.000 C 218.067 400.000,227.200 399.863,227.200 399.600 C 227.200 399.358,228.938 399.200,231.613 399.200 C 235.166 399.200,236.070 399.083,236.255 398.600 C 236.429 398.147,237.161 398.000,239.243 398.000 C 241.427 398.000,242.000 397.875,242.000 397.400 C 242.000 396.924,242.578 396.800,244.804 396.800 C 247.113 396.800,247.729 396.659,248.293 396.000 C 248.832 395.370,249.473 395.200,251.301 395.200 C 252.998 395.200,253.687 395.038,253.855 394.600 C 254.016 394.181,254.669 394.000,256.014 394.000 C 257.195 394.000,258.175 393.767,258.543 393.400 C 258.873 393.070,259.713 392.800,260.409 392.800 C 261.338 392.800,261.730 392.587,261.884 392.000 C 262.064 391.314,262.430 391.200,264.459 391.200 C 266.193 391.200,266.887 391.040,267.055 390.600 C 267.197 390.230,267.805 390.000,268.643 390.000 C 269.583 390.000,270.000 389.815,270.000 389.400 C 270.000 388.954,270.471 388.800,271.837 388.800 C 273.338 388.800,273.713 388.654,273.884 388.000 C 274.033 387.431,274.430 387.200,275.259 387.200 C 275.927 387.200,276.524 386.943,276.655 386.600 C 276.810 386.196,277.445 386.000,278.600 386.000 C 279.755 386.000,280.390 385.804,280.545 385.400 C 280.671 385.070,281.247 384.800,281.825 384.800 C 282.538 384.800,282.942 384.544,283.084 384.000 C 283.241 383.399,283.630 383.200,284.647 383.200 C 285.583 383.200,286.000 383.015,286.000 382.600 C 286.000 382.199,286.401 382.000,287.213 382.000 C 287.921 382.000,288.521 381.751,288.655 381.400 C 288.787 381.058,289.383 380.800,290.043 380.800 C 290.933 380.800,291.200 380.616,291.200 380.000 C 291.200 379.352,291.467 379.200,292.600 379.200 C 293.578 379.200,294.000 379.019,294.000 378.600 C 294.000 378.199,294.401 378.000,295.213 378.000 C 295.921 378.000,296.521 377.751,296.655 377.400 C 296.782 377.070,297.333 376.800,297.880 376.800 C 298.538 376.800,298.946 376.529,299.084 376.000 C 299.233 375.431,299.630 375.200,300.459 375.200 C 301.127 375.200,301.724 374.943,301.855 374.600 C 301.982 374.270,302.336 374.000,302.643 374.000 C 302.949 374.000,303.200 373.730,303.200 373.400 C 303.200 372.996,303.604 372.800,304.437 372.800 C 305.338 372.800,305.732 372.583,305.884 372.000 C 306.032 371.433,306.430 371.200,307.247 371.200 C 308.005 371.200,308.400 370.995,308.400 370.600 C 308.400 370.267,308.756 370.000,309.200 370.000 C 309.644 370.000,310.000 369.733,310.000 369.400 C 310.000 369.066,310.356 368.800,310.804 368.800 C 311.246 368.800,311.916 368.440,312.293 368.000 C 312.670 367.560,313.208 367.200,313.489 367.200 C 313.770 367.200,314.000 366.930,314.000 366.600 C 314.000 366.225,314.379 366.000,315.013 366.000 C 315.569 366.000,316.122 365.748,316.240 365.439 C 316.359 365.131,316.803 364.788,317.228 364.677 C 317.652 364.566,318.000 364.188,318.000 363.837 C 318.000 363.487,318.270 363.200,318.600 363.200 C 318.930 363.200,319.200 362.930,319.200 362.600 C 319.200 362.220,319.583 362.000,320.244 362.000 C 321.335 362.000,323.181 360.560,323.193 359.700 C 323.197 359.425,323.560 359.200,324.000 359.200 C 324.444 359.200,324.800 358.933,324.800 358.600 C 324.800 358.244,325.167 358.000,325.703 358.000 C 326.223 358.000,327.150 357.407,327.890 356.600 C 328.597 355.830,329.361 355.200,329.588 355.200 C 329.814 355.200,330.000 354.930,330.000 354.600 C 330.000 354.270,330.270 354.000,330.600 354.000 C 330.930 354.000,331.200 353.751,331.200 353.447 C 331.200 353.142,331.560 352.799,332.000 352.684 C 332.440 352.569,332.800 352.188,332.800 351.837 C 332.800 351.487,333.051 351.200,333.357 351.200 C 333.664 351.200,334.018 350.930,334.145 350.600 C 334.271 350.270,334.734 350.000,335.173 350.000 C 335.613 350.000,336.165 349.640,336.400 349.200 C 336.635 348.760,337.092 348.400,337.414 348.400 C 337.736 348.400,338.000 348.130,338.000 347.800 C 338.000 347.470,338.270 347.200,338.600 347.200 C 338.930 347.200,339.200 346.930,339.200 346.600 C 339.200 346.270,339.371 346.000,339.579 346.000 C 340.130 346.000,342.000 344.188,342.000 343.654 C 342.000 343.404,342.270 343.200,342.600 343.200 C 342.930 343.200,343.200 342.930,343.200 342.600 C 343.200 342.270,343.404 342.000,343.654 342.000 C 344.188 342.000,346.000 340.130,346.000 339.579 C 346.000 339.371,346.270 339.200,346.600 339.200 C 346.930 339.200,347.200 338.930,347.200 338.600 C 347.200 338.270,347.470 338.000,347.800 338.000 C 348.130 338.000,348.406 337.775,348.413 337.500 C 348.420 337.225,349.050 336.379,349.813 335.619 C 350.576 334.860,351.200 333.936,351.200 333.566 C 351.200 333.196,351.560 332.799,352.000 332.684 C 352.440 332.569,352.800 332.188,352.800 331.837 C 352.800 331.487,353.070 331.200,353.400 331.200 C 353.730 331.200,354.000 330.930,354.000 330.600 C 354.000 330.270,354.270 330.000,354.600 330.000 C 354.930 330.000,355.200 329.814,355.200 329.588 C 355.200 329.361,355.830 328.597,356.600 327.890 C 357.407 327.150,358.000 326.223,358.000 325.703 C 358.000 325.167,358.244 324.800,358.600 324.800 C 358.933 324.800,359.200 324.444,359.200 324.000 C 359.200 323.560,359.400 323.200,359.644 323.200 C 360.521 323.200,361.986 321.391,361.993 320.300 C 361.998 319.592,362.214 319.200,362.600 319.200 C 362.930 319.200,363.200 318.951,363.200 318.647 C 363.200 318.342,363.560 317.999,364.000 317.884 C 364.440 317.769,364.800 317.407,364.800 317.080 C 364.800 316.753,365.070 316.382,365.400 316.255 C 365.730 316.129,366.000 315.569,366.000 315.013 C 366.000 314.379,366.225 314.000,366.600 314.000 C 366.930 314.000,367.200 313.770,367.200 313.489 C 367.200 313.208,367.560 312.670,368.000 312.293 C 368.440 311.916,368.800 311.246,368.800 310.804 C 368.800 310.356,369.066 310.000,369.400 310.000 C 369.733 310.000,370.000 309.644,370.000 309.200 C 370.000 308.756,370.267 308.400,370.600 308.400 C 370.995 308.400,371.200 308.005,371.200 307.247 C 371.200 306.430,371.433 306.032,372.000 305.884 C 372.583 305.732,372.800 305.338,372.800 304.437 C 372.800 303.604,372.996 303.200,373.400 303.200 C 373.730 303.200,374.000 302.949,374.000 302.643 C 374.000 302.336,374.270 301.982,374.600 301.855 C 374.943 301.724,375.200 301.127,375.200 300.459 C 375.200 299.630,375.431 299.233,376.000 299.084 C 376.529 298.946,376.800 298.538,376.800 297.880 C 376.800 297.333,377.070 296.782,377.400 296.655 C 377.751 296.521,378.000 295.921,378.000 295.213 C 378.000 294.401,378.199 294.000,378.600 294.000 C 378.930 294.000,379.200 293.668,379.200 293.262 C 379.200 292.856,379.560 292.198,380.000 291.800 C 380.440 291.402,380.800 290.583,380.800 289.981 C 380.800 289.376,381.069 288.782,381.400 288.655 C 381.751 288.521,382.000 287.921,382.000 287.213 C 382.000 286.401,382.199 286.000,382.600 286.000 C 383.015 286.000,383.200 285.583,383.200 284.647 C 383.200 283.630,383.399 283.241,384.000 283.084 C 384.544 282.942,384.800 282.538,384.800 281.825 C 384.800 281.247,385.070 280.671,385.400 280.545 C 385.792 280.394,386.000 279.771,386.000 278.745 C 386.000 277.718,386.208 277.095,386.600 276.945 C 386.970 276.803,387.200 276.195,387.200 275.357 C 387.200 274.464,387.390 274.000,387.757 274.000 C 388.455 274.000,388.800 273.129,388.800 271.367 C 388.800 270.419,388.984 270.000,389.400 270.000 C 389.815 270.000,390.000 269.583,390.000 268.643 C 390.000 267.805,390.230 267.197,390.600 267.055 C 391.040 266.887,391.200 266.193,391.200 264.459 C 391.200 262.430,391.314 262.064,392.000 261.884 C 392.587 261.730,392.800 261.338,392.800 260.409 C 392.800 259.713,393.070 258.873,393.400 258.543 C 393.767 258.175,394.000 257.195,394.000 256.014 C 394.000 254.669,394.181 254.016,394.600 253.855 C 395.033 253.689,395.200 253.010,395.200 251.413 C 395.200 249.733,395.393 249.007,396.000 248.400 C 396.592 247.808,396.803 247.055,396.813 245.500 C 396.820 244.291,397.075 243.070,397.413 242.624 C 397.793 242.120,398.000 240.904,398.000 239.166 C 398.000 237.152,398.149 236.428,398.600 236.255 C 399.083 236.070,399.200 235.166,399.200 231.613 C 399.200 228.938,399.358 227.200,399.600 227.200 C 399.863 227.200,400.000 218.067,400.000 200.600 C 400.000 183.133,399.863 174.000,399.600 174.000 C 399.358 174.000,399.200 172.262,399.200 169.587 C 399.200 166.034,399.083 165.130,398.600 164.945 C 398.137 164.767,398.000 163.997,398.000 161.577 C 398.000 159.331,397.843 158.349,397.448 158.120 C 397.094 157.915,396.835 156.816,396.726 155.052 C 396.604 153.073,396.366 152.164,395.878 151.808 C 395.409 151.465,395.200 150.739,395.200 149.456 C 395.200 148.073,395.047 147.600,394.600 147.600 C 394.129 147.600,394.000 147.049,394.000 145.043 C 394.000 143.139,393.847 142.427,393.400 142.255 C 393.023 142.111,392.800 141.499,392.800 140.613 C 392.800 139.733,392.498 138.898,392.000 138.400 C 391.465 137.865,391.200 137.067,391.200 135.987 C 391.200 134.923,390.996 134.297,390.600 134.145 C 390.213 133.996,390.000 133.378,390.000 132.406 C 390.000 131.554,389.739 130.682,389.400 130.400 C 389.070 130.126,388.800 129.384,388.800 128.751 C 388.800 128.118,388.440 127.240,388.000 126.800 C 387.556 126.356,387.200 125.467,387.200 124.800 C 387.200 124.000,387.000 123.600,386.600 123.600 C 386.181 123.600,386.000 123.178,386.000 122.200 C 386.000 121.222,385.819 120.800,385.400 120.800 C 385.006 120.800,384.800 120.406,384.800 119.654 C 384.800 119.024,384.440 118.050,384.000 117.491 C 383.560 116.931,383.200 116.002,383.200 115.424 C 383.200 114.847,382.930 114.271,382.600 114.145 C 382.258 114.013,382.000 113.417,382.000 112.757 C 382.000 111.995,381.795 111.600,381.400 111.600 C 381.070 111.600,380.800 111.255,380.800 110.833 C 380.800 109.641,380.369 108.800,379.757 108.800 C 379.409 108.800,379.200 108.365,379.200 107.643 C 379.200 106.983,378.942 106.387,378.600 106.255 C 378.270 106.129,378.000 105.564,378.000 105.000 C 378.000 104.436,377.748 103.878,377.439 103.760 C 377.131 103.641,376.788 103.197,376.677 102.772 C 376.566 102.348,376.188 102.000,375.837 102.000 C 375.396 102.000,375.200 101.631,375.200 100.800 C 375.200 100.000,375.000 99.600,374.600 99.600 C 374.181 99.600,374.000 99.178,374.000 98.200 C 374.000 97.222,373.819 96.800,373.400 96.800 C 373.070 96.800,372.800 96.558,372.800 96.262 C 372.800 95.966,372.440 95.398,372.000 95.000 C 371.560 94.602,371.200 93.944,371.200 93.538 C 371.200 93.132,370.930 92.800,370.600 92.800 C 370.230 92.800,370.000 92.425,370.000 91.821 C 370.000 90.802,368.445 88.800,367.654 88.800 C 367.404 88.800,367.200 88.279,367.200 87.643 C 367.200 86.983,366.942 86.387,366.600 86.255 C 366.270 86.129,366.000 85.749,366.000 85.413 C 366.000 85.076,365.730 84.800,365.400 84.800 C 365.070 84.800,364.800 84.530,364.800 84.200 C 364.800 83.870,364.440 83.240,364.000 82.800 C 363.560 82.360,363.200 81.730,363.200 81.400 C 363.200 81.070,362.930 80.800,362.600 80.800 C 362.270 80.800,362.000 80.530,362.000 80.200 C 362.000 79.870,361.730 79.600,361.400 79.600 C 361.070 79.600,360.800 79.280,360.800 78.888 C 360.800 78.497,360.440 77.917,360.000 77.600 C 359.560 77.283,359.200 76.703,359.200 76.312 C 359.200 75.920,358.930 75.600,358.600 75.600 C 358.267 75.600,358.000 75.244,358.000 74.800 C 358.000 74.356,357.733 74.000,357.400 74.000 C 357.070 74.000,356.800 73.730,356.800 73.400 C 356.800 73.067,356.444 72.800,356.000 72.800 C 355.411 72.800,355.200 72.533,355.200 71.787 C 355.200 71.231,354.930 70.671,354.600 70.545 C 354.270 70.418,353.997 70.109,353.993 69.857 C 353.984 69.280,352.236 67.600,351.644 67.600 C 351.400 67.600,351.200 67.240,351.200 66.800 C 351.200 66.356,350.933 66.000,350.600 66.000 C 350.270 66.000,350.000 65.730,350.000 65.400 C 350.000 65.070,349.730 64.800,349.400 64.800 C 349.070 64.800,348.800 64.530,348.800 64.200 C 348.800 63.867,348.444 63.600,348.000 63.600 C 347.467 63.600,347.200 63.333,347.200 62.800 C 347.200 62.356,346.933 62.000,346.600 62.000 C 346.270 62.000,346.000 61.730,346.000 61.400 C 346.000 61.070,345.730 60.800,345.400 60.800 C 345.070 60.800,344.800 60.530,344.800 60.200 C 344.800 59.867,344.444 59.600,344.000 59.600 C 343.467 59.600,343.200 59.333,343.200 58.800 C 343.200 58.356,342.933 58.000,342.600 58.000 C 342.270 58.000,342.000 57.730,342.000 57.400 C 342.000 57.070,341.730 56.800,341.400 56.800 C 341.070 56.800,340.800 56.530,340.800 56.200 C 340.800 55.867,340.444 55.600,340.000 55.600 C 339.467 55.600,339.200 55.333,339.200 54.800 C 339.200 54.356,338.933 54.000,338.600 54.000 C 338.270 54.000,338.000 53.730,338.000 53.400 C 338.000 53.070,337.730 52.800,337.400 52.800 C 337.070 52.800,336.800 52.530,336.800 52.200 C 336.800 51.867,336.444 51.600,336.000 51.600 C 335.467 51.600,335.200 51.333,335.200 50.800 C 335.200 50.356,334.933 50.000,334.600 50.000 C 334.270 50.000,334.000 49.730,334.000 49.400 C 334.000 49.070,333.724 48.800,333.387 48.800 C 333.051 48.800,332.671 48.530,332.545 48.200 C 332.418 47.870,332.154 47.600,331.957 47.600 C 331.761 47.600,331.240 47.240,330.800 46.800 C 330.360 46.360,329.730 46.000,329.400 46.000 C 329.070 46.000,328.800 45.730,328.800 45.400 C 328.800 45.067,328.444 44.800,328.000 44.800 C 327.556 44.800,327.200 44.533,327.200 44.200 C 327.200 43.870,326.951 43.600,326.647 43.600 C 326.342 43.600,325.999 43.240,325.884 42.800 C 325.769 42.360,325.388 42.000,325.037 42.000 C 324.687 42.000,324.400 41.730,324.400 41.400 C 324.400 41.000,324.000 40.800,323.200 40.800 C 322.400 40.800,322.000 40.600,322.000 40.200 C 322.000 39.870,321.730 39.600,321.400 39.600 C 321.070 39.600,320.800 39.313,320.800 38.963 C 320.800 38.612,320.440 38.231,320.000 38.116 C 319.560 38.001,319.200 37.658,319.200 37.353 C 319.200 37.005,318.755 36.800,318.000 36.800 C 317.200 36.800,316.800 36.600,316.800 36.200 C 316.800 35.870,316.461 35.600,316.047 35.600 C 315.630 35.600,315.200 35.243,315.084 34.800 C 314.943 34.259,314.538 34.000,313.837 34.000 C 313.182 34.000,312.800 33.779,312.800 33.400 C 312.800 33.067,312.444 32.800,312.000 32.800 C 311.556 32.800,311.200 32.533,311.200 32.200 C 311.200 31.800,310.800 31.600,310.000 31.600 C 309.169 31.600,308.800 31.404,308.800 30.963 C 308.800 30.612,308.440 30.231,308.000 30.116 C 307.560 30.001,307.200 29.658,307.200 29.353 C 307.200 29.005,306.755 28.800,306.000 28.800 C 305.200 28.800,304.800 28.600,304.800 28.200 C 304.800 27.870,304.468 27.600,304.062 27.600 C 303.656 27.600,302.998 27.240,302.600 26.800 C 302.202 26.360,301.628 26.000,301.325 26.000 C 301.023 26.000,300.671 25.730,300.545 25.400 C 300.413 25.058,299.817 24.800,299.157 24.800 C 298.395 24.800,298.000 24.595,298.000 24.200 C 298.000 23.781,297.578 23.600,296.600 23.600 C 295.467 23.600,295.200 23.448,295.200 22.800 C 295.200 22.184,294.933 22.000,294.043 22.000 C 293.383 22.000,292.787 21.742,292.655 21.400 C 292.521 21.049,291.921 20.800,291.213 20.800 C 290.401 20.800,290.000 20.601,290.000 20.200 C 290.000 19.781,289.578 19.600,288.600 19.600 C 287.467 19.600,287.200 19.448,287.200 18.800 C 287.200 18.184,286.933 18.000,286.043 18.000 C 285.383 18.000,284.787 17.742,284.655 17.400 C 284.521 17.049,283.921 16.800,283.213 16.800 C 282.401 16.800,282.000 16.601,282.000 16.200 C 282.000 15.781,281.578 15.600,280.600 15.600 C 279.670 15.600,279.200 15.413,279.200 15.043 C 279.200 14.345,278.329 14.000,276.567 14.000 C 275.619 14.000,275.200 13.816,275.200 13.400 C 275.200 12.981,274.778 12.800,273.800 12.800 C 272.822 12.800,272.400 12.619,272.400 12.200 C 272.400 11.749,271.916 11.600,270.447 11.600 C 268.830 11.600,268.457 11.462,268.284 10.800 C 268.118 10.163,267.738 10.000,266.425 10.000 C 265.327 10.000,264.698 9.799,264.545 9.400 C 264.383 8.980,263.728 8.800,262.357 8.800 C 260.884 8.800,260.400 8.652,260.400 8.200 C 260.400 7.747,259.911 7.600,258.400 7.600 C 256.957 7.600,256.400 7.445,256.400 7.043 C 256.400 6.291,255.509 6.000,253.210 6.000 C 251.868 6.000,251.216 5.818,251.055 5.400 C 250.887 4.960,250.193 4.800,248.455 4.800 C 246.718 4.800,246.024 4.640,245.855 4.200 C 245.677 3.736,244.899 3.600,242.413 3.600 C 239.933 3.600,239.200 3.473,239.200 3.043 C 239.200 2.238,238.289 2.000,235.216 2.000 C 233.288 2.000,232.353 1.826,232.000 1.400 C 231.601 0.919,230.397 0.800,225.951 0.800 C 222.517 0.800,220.400 0.647,220.400 0.400 C 220.400 0.139,213.400 0.000,200.200 0.000 C 187.000 0.000,180.000 0.139,180.000 0.400 M255.014 82.246 L 256.000 82.892 256.000 102.197 C 256.000 118.765,255.916 121.572,255.407 121.994 C 254.970 122.357,251.427 122.508,241.907 122.569 C 230.672 122.642,228.845 122.740,227.800 123.324 C 227.140 123.693,226.401 123.996,226.158 123.998 C 224.273 124.008,220.892 128.048,219.578 131.860 C 218.762 134.223,218.249 157.185,218.985 158.376 C 219.163 158.664,224.751 158.800,236.443 158.800 L 253.638 158.800 254.661 159.900 C 255.571 160.878,255.656 161.222,255.432 163.000 C 255.140 165.306,254.110 175.631,253.615 181.200 C 252.181 197.330,251.908 199.389,251.079 200.300 L 250.261 201.200 235.353 201.200 L 220.445 201.200 219.815 202.100 C 219.248 202.909,219.187 208.740,219.205 260.000 C 219.227 318.835,219.216 319.349,217.917 320.045 C 216.804 320.640,171.588 320.636,170.475 320.040 C 169.080 319.293,169.080 319.282,169.031 260.400 C 168.981 200.785,169.006 201.672,167.378 201.047 C 167.024 200.911,162.114 200.796,156.467 200.791 C 147.263 200.783,146.105 200.709,145.279 200.074 L 144.358 199.365 144.380 180.182 C 144.402 161.173,144.410 160.994,145.245 160.300 C 146.002 159.672,147.185 159.600,156.775 159.600 C 170.808 159.600,169.098 162.247,169.306 140.200 C 169.481 121.602,169.662 119.544,171.652 113.400 C 172.706 110.145,174.821 105.142,175.470 104.369 C 175.762 104.021,176.000 103.614,176.000 103.464 C 176.000 102.484,181.385 95.721,184.333 93.000 C 186.459 91.037,190.553 88.000,191.073 88.000 C 191.218 88.000,191.621 87.753,191.969 87.452 C 193.517 86.107,201.213 83.564,206.200 82.750 C 212.960 81.646,253.460 81.228,255.014 82.246 " stroke="none" fill="#2b5394" fill-rule="evenodd"></path></g></svg>