<svg id="svg" version="1.1" xmlns="http://www.w3.org/2000/svg" xmlns:xlink="http://www.w3.org/1999/xlink" width="400" height="400" viewBox="0, 0, 400,400"><g id="svgg"><path id="path0" d="M119.400 85.831 C 89.187 90.037,88.857 130.372,119.000 134.818 C 122.260 135.298,127.296 135.102,130.100 134.384 C 130.925 134.173,132.208 133.844,132.952 133.653 C 150.156 129.237,155.919 105.853,142.975 92.982 C 137.475 87.514,127.987 84.636,119.400 85.831 M255.600 152.187 C 248.212 153.426,243.305 155.176,237.689 158.575 C 233.523 161.097,227.756 166.456,224.600 170.739 C 221.129 175.448,221.200 175.581,221.200 164.400 L 221.200 154.800 197.500 154.800 L 173.800 154.800 173.714 226.600 L 173.629 298.400 197.414 298.400 L 221.200 298.400 221.213 258.500 C 221.229 212.301,221.370 209.571,224.018 204.355 C 234.491 183.726,262.379 184.070,269.263 204.913 C 271.390 211.352,271.306 209.511,271.561 255.400 L 271.800 298.200 295.700 298.303 L 319.600 298.406 319.603 255.903 C 319.606 206.390,319.513 204.336,316.723 192.400 C 312.463 174.173,300.338 160.140,284.000 154.526 C 276.102 151.813,263.852 150.804,255.600 152.187 M99.386 155.297 C 99.281 155.574,99.241 187.840,99.297 227.000 L 99.400 298.200 123.200 298.200 L 147.000 298.200 147.000 226.600 L 147.000 155.000 123.289 154.897 C 104.532 154.815,99.537 154.899,99.386 155.297 " stroke="none" fill="#f3f3f3" fill-rule="evenodd"></path><path id="path1" d="M179.003 0.275 C 177.025 0.362,175.234 0.606,175.023 0.817 C 174.812 1.028,173.427 1.200,171.944 1.200 C 170.461 1.200,169.136 1.380,169.000 1.600 C 168.864 1.820,167.773 2.000,166.576 2.000 C 165.379 2.000,164.400 2.180,164.400 2.400 C 164.400 2.620,163.511 2.800,162.424 2.800 C 161.337 2.800,160.336 2.980,160.200 3.200 C 160.064 3.420,159.243 3.600,158.376 3.600 C 157.509 3.600,156.800 3.780,156.800 4.000 C 156.800 4.220,156.001 4.400,155.024 4.400 C 154.047 4.400,153.136 4.580,153.000 4.800 C 152.864 5.020,152.144 5.200,151.400 5.200 C 150.656 5.200,149.936 5.380,149.800 5.600 C 149.664 5.820,149.034 6.000,148.400 6.000 C 147.766 6.000,147.136 6.180,147.000 6.400 C 146.864 6.620,146.234 6.800,145.600 6.800 C 144.966 6.800,144.336 6.980,144.200 7.200 C 144.064 7.420,143.434 7.600,142.800 7.600 C 142.166 7.600,141.536 7.780,141.400 8.000 C 141.264 8.220,140.623 8.400,139.976 8.400 C 139.329 8.400,138.800 8.580,138.800 8.800 C 138.800 9.020,138.260 9.200,137.600 9.200 C 136.940 9.200,136.400 9.356,136.400 9.546 C 136.400 9.736,135.594 10.002,134.609 10.137 C 133.624 10.272,132.499 10.545,132.109 10.744 C 131.029 11.296,129.558 11.894,127.900 12.454 C 127.075 12.733,126.400 13.105,126.400 13.280 C 126.400 13.456,125.860 13.600,125.200 13.600 C 124.540 13.600,124.000 13.747,124.000 13.928 C 124.000 14.108,123.100 14.500,122.000 14.800 C 120.900 15.100,120.000 15.492,120.000 15.672 C 120.000 15.853,119.640 16.000,119.200 16.000 C 118.760 16.000,118.400 16.180,118.400 16.400 C 118.400 16.620,118.040 16.800,117.600 16.800 C 117.160 16.800,116.800 16.980,116.800 17.200 C 116.800 17.420,116.440 17.600,116.000 17.600 C 115.560 17.600,115.200 17.780,115.200 18.000 C 115.200 18.220,114.876 18.400,114.480 18.400 C 113.586 18.400,111.607 19.294,111.603 19.700 C 111.601 19.865,111.240 20.000,110.800 20.000 C 110.360 20.000,110.000 20.180,110.000 20.400 C 110.000 20.620,109.655 20.800,109.233 20.800 C 108.812 20.800,108.407 20.935,108.333 21.100 C 108.213 21.370,106.111 22.578,103.703 23.760 C 103.210 24.002,102.805 24.335,102.803 24.500 C 102.801 24.665,102.440 24.800,102.000 24.800 C 101.560 24.800,101.200 24.980,101.200 25.200 C 101.200 25.420,100.906 25.600,100.547 25.600 C 100.188 25.600,99.603 25.936,99.247 26.346 C 98.891 26.757,98.033 27.217,97.341 27.369 C 96.649 27.521,95.766 27.995,95.379 28.423 C 94.993 28.850,94.434 29.200,94.138 29.200 C 93.842 29.200,93.600 29.380,93.600 29.600 C 93.600 29.820,93.364 30.000,93.075 30.000 C 92.787 30.000,92.164 30.360,91.692 30.800 C 91.220 31.240,90.596 31.600,90.305 31.600 C 90.014 31.600,89.517 31.960,89.200 32.400 C 88.883 32.840,88.343 33.200,88.000 33.200 C 87.657 33.200,87.117 33.560,86.800 34.000 C 86.483 34.440,86.038 34.800,85.812 34.801 C 85.585 34.801,84.770 35.341,84.000 36.000 C 83.230 36.659,82.415 37.199,82.188 37.199 C 81.962 37.200,81.517 37.560,81.200 38.000 C 80.883 38.440,80.422 38.800,80.177 38.800 C 79.931 38.800,78.936 39.522,77.965 40.404 C 76.994 41.286,75.818 42.349,75.352 42.767 C 74.885 43.184,73.985 43.799,73.352 44.133 C 72.718 44.467,71.286 45.609,70.169 46.670 C 69.052 47.732,67.522 49.043,66.769 49.584 C 66.016 50.125,64.230 51.793,62.800 53.291 C 60.199 56.016,58.934 57.286,52.590 63.544 C 50.726 65.384,49.200 67.028,49.200 67.199 C 49.200 67.369,48.199 68.564,46.975 69.854 C 45.751 71.144,44.465 72.740,44.116 73.400 C 43.767 74.060,43.148 74.891,42.741 75.247 C 42.333 75.603,42.000 76.008,42.000 76.146 C 42.000 76.285,41.280 77.141,40.400 78.048 C 39.520 78.955,38.800 79.905,38.800 80.160 C 38.800 80.415,38.440 80.883,38.000 81.200 C 37.560 81.517,37.200 81.962,37.199 82.188 C 37.199 82.415,36.659 83.230,36.000 84.000 C 35.341 84.770,34.801 85.585,34.801 85.812 C 34.800 86.038,34.440 86.483,34.000 86.800 C 33.560 87.117,33.200 87.657,33.200 88.000 C 33.200 88.343,32.840 88.883,32.400 89.200 C 31.960 89.517,31.600 90.014,31.600 90.305 C 31.600 90.596,31.240 91.220,30.800 91.692 C 30.360 92.164,30.000 92.787,30.000 93.075 C 30.000 93.364,29.820 93.600,29.600 93.600 C 29.380 93.600,29.200 93.842,29.200 94.138 C 29.200 94.434,28.850 94.993,28.423 95.379 C 27.995 95.766,27.521 96.649,27.369 97.341 C 27.217 98.033,26.757 98.891,26.346 99.247 C 25.936 99.603,25.600 100.188,25.600 100.547 C 25.600 100.906,25.420 101.200,25.200 101.200 C 24.980 101.200,24.800 101.560,24.800 102.000 C 24.800 102.440,24.665 102.801,24.500 102.803 C 24.335 102.805,24.002 103.210,23.760 103.703 C 22.578 106.111,21.370 108.213,21.100 108.333 C 20.935 108.407,20.800 108.812,20.800 109.233 C 20.800 109.655,20.620 110.000,20.400 110.000 C 20.180 110.000,20.000 110.360,20.000 110.800 C 20.000 111.240,19.865 111.601,19.700 111.603 C 19.294 111.607,18.400 113.586,18.400 114.480 C 18.400 114.876,18.220 115.200,18.000 115.200 C 17.780 115.200,17.600 115.560,17.600 116.000 C 17.600 116.440,17.420 116.800,17.200 116.800 C 16.980 116.800,16.800 117.160,16.800 117.600 C 16.800 118.040,16.620 118.400,16.400 118.400 C 16.180 118.400,16.000 118.760,16.000 119.200 C 16.000 119.640,15.853 120.000,15.672 120.000 C 15.492 120.000,15.100 120.900,14.800 122.000 C 14.500 123.100,14.108 124.000,13.928 124.000 C 13.747 124.000,13.600 124.540,13.600 125.200 C 13.600 125.860,13.456 126.400,13.280 126.400 C 13.105 126.400,12.733 127.075,12.454 127.900 C 11.894 129.558,11.296 131.029,10.744 132.109 C 10.545 132.499,10.272 133.624,10.137 134.609 C 10.002 135.594,9.736 136.400,9.546 136.400 C 9.356 136.400,9.200 136.940,9.200 137.600 C 9.200 138.260,9.020 138.800,8.800 138.800 C 8.580 138.800,8.400 139.329,8.400 139.976 C 8.400 140.623,8.220 141.264,8.000 141.400 C 7.780 141.536,7.600 142.166,7.600 142.800 C 7.600 143.434,7.420 144.064,7.200 144.200 C 6.980 144.336,6.800 144.966,6.800 145.600 C 6.800 146.234,6.620 146.864,6.400 147.000 C 6.180 147.136,6.000 147.766,6.000 148.400 C 6.000 149.034,5.820 149.664,5.600 149.800 C 5.380 149.936,5.200 150.656,5.200 151.400 C 5.200 152.144,5.020 152.864,4.800 153.000 C 4.580 153.136,4.400 154.047,4.400 155.024 C 4.400 156.001,4.220 156.800,4.000 156.800 C 3.780 156.800,3.600 157.509,3.600 158.376 C 3.600 159.243,3.420 160.064,3.200 160.200 C 2.980 160.336,2.800 161.337,2.800 162.424 C 2.800 163.511,2.620 164.400,2.400 164.400 C 2.180 164.400,2.000 165.379,2.000 166.576 C 2.000 167.773,1.820 168.864,1.600 169.000 C 1.380 169.136,1.200 170.461,1.200 171.944 C 1.200 173.567,1.001 174.839,0.700 175.140 C -0.031 175.871,-0.031 224.456,0.700 224.700 C 1.040 224.813,1.200 225.811,1.200 227.810 C 1.200 229.428,1.380 230.864,1.600 231.000 C 1.820 231.136,2.000 232.227,2.000 233.424 C 2.000 234.621,2.180 235.600,2.400 235.600 C 2.620 235.600,2.800 236.590,2.800 237.800 C 2.800 239.010,2.980 240.000,3.200 240.000 C 3.420 240.000,3.600 240.720,3.600 241.600 C 3.600 242.480,3.780 243.200,4.000 243.200 C 4.220 243.200,4.400 243.999,4.400 244.976 C 4.400 245.953,4.580 246.864,4.800 247.000 C 5.020 247.136,5.200 247.957,5.200 248.824 C 5.200 249.691,5.380 250.400,5.600 250.400 C 5.820 250.400,6.000 250.929,6.000 251.576 C 6.000 252.223,6.180 252.864,6.400 253.000 C 6.620 253.136,6.800 253.867,6.800 254.624 C 6.800 255.381,6.980 256.000,7.200 256.000 C 7.420 256.000,7.600 256.529,7.600 257.176 C 7.600 257.823,7.780 258.464,8.000 258.600 C 8.220 258.736,8.400 259.377,8.400 260.024 C 8.400 260.671,8.580 261.200,8.800 261.200 C 9.020 261.200,9.200 261.740,9.200 262.400 C 9.200 263.060,9.356 263.600,9.546 263.600 C 9.736 263.600,10.003 264.412,10.139 265.405 C 10.275 266.398,10.749 267.961,11.193 268.880 C 11.637 269.799,12.000 270.753,12.000 271.000 C 12.000 271.247,12.360 272.195,12.800 273.106 C 13.240 274.016,13.600 275.040,13.600 275.381 C 13.600 275.721,13.747 276.000,13.928 276.000 C 14.108 276.000,14.500 276.900,14.800 278.000 C 15.100 279.100,15.492 280.000,15.672 280.000 C 15.853 280.000,16.000 280.360,16.000 280.800 C 16.000 281.240,16.180 281.600,16.400 281.600 C 16.620 281.600,16.800 281.960,16.800 282.400 C 16.800 282.840,16.980 283.200,17.200 283.200 C 17.420 283.200,17.600 283.472,17.600 283.805 C 17.600 284.138,17.760 284.723,17.956 285.105 C 18.152 285.487,18.737 286.700,19.256 287.800 C 19.775 288.900,20.335 289.860,20.500 289.933 C 20.665 290.007,20.800 290.412,20.800 290.833 C 20.800 291.255,20.980 291.600,21.200 291.600 C 21.420 291.600,21.600 291.945,21.600 292.367 C 21.600 292.788,21.735 293.193,21.900 293.267 C 22.276 293.434,23.575 295.564,23.871 296.500 C 23.993 296.885,24.252 297.200,24.447 297.200 C 24.641 297.200,24.800 297.560,24.800 298.000 C 24.800 298.440,24.980 298.800,25.200 298.800 C 25.420 298.800,25.600 299.094,25.600 299.453 C 25.600 299.812,25.931 300.397,26.336 300.753 C 26.741 301.109,27.200 301.919,27.357 302.553 C 27.645 303.717,30.666 308.487,31.272 308.733 C 31.453 308.807,31.600 309.172,31.600 309.545 C 31.600 309.918,31.960 310.483,32.400 310.800 C 32.840 311.117,33.200 311.657,33.200 312.000 C 33.200 312.343,33.560 312.883,34.000 313.200 C 34.440 313.517,34.800 313.962,34.801 314.188 C 34.801 314.415,35.341 315.230,36.000 316.000 C 36.659 316.770,37.199 317.585,37.199 317.812 C 37.200 318.038,37.560 318.483,38.000 318.800 C 38.440 319.117,38.800 319.572,38.800 319.810 C 38.800 320.049,39.385 320.902,40.100 321.706 C 42.213 324.081,43.513 325.706,44.572 327.295 C 45.121 328.118,46.386 329.607,47.385 330.606 C 48.383 331.604,49.200 332.580,49.200 332.773 C 49.200 332.967,51.085 334.988,53.388 337.263 C 58.024 341.843,58.637 342.454,63.758 347.615 C 65.715 349.587,67.474 351.200,67.667 351.200 C 67.860 351.200,69.007 352.190,70.217 353.400 C 71.427 354.610,72.571 355.600,72.758 355.600 C 72.946 355.600,73.787 356.230,74.628 357.000 C 75.469 357.770,76.279 358.400,76.428 358.400 C 76.577 358.400,77.387 359.030,78.228 359.800 C 79.069 360.570,79.951 361.200,80.190 361.200 C 80.428 361.200,80.883 361.560,81.200 362.000 C 81.517 362.440,82.057 362.800,82.400 362.800 C 82.743 362.800,83.283 363.160,83.600 363.600 C 83.917 364.040,84.407 364.400,84.688 364.400 C 84.970 364.400,85.200 364.580,85.200 364.800 C 85.200 365.020,85.430 365.200,85.712 365.200 C 85.993 365.200,86.483 365.560,86.800 366.000 C 87.117 366.440,87.657 366.800,88.000 366.800 C 88.343 366.800,88.883 367.160,89.200 367.600 C 89.517 368.040,90.097 368.400,90.488 368.400 C 90.880 368.400,91.200 368.550,91.200 368.732 C 91.200 368.915,91.695 369.320,92.300 369.632 C 92.905 369.945,93.723 370.491,94.118 370.846 C 94.512 371.202,95.682 371.919,96.718 372.441 C 97.753 372.962,98.690 373.502,98.800 373.639 C 99.159 374.087,101.546 375.200,102.147 375.200 C 102.469 375.200,102.793 375.335,102.867 375.500 C 103.034 375.876,105.164 377.175,106.100 377.471 C 106.485 377.593,106.800 377.852,106.800 378.047 C 106.800 378.241,107.160 378.400,107.600 378.400 C 108.040 378.400,108.400 378.580,108.400 378.800 C 108.400 379.020,108.760 379.200,109.200 379.200 C 109.640 379.200,110.000 379.380,110.000 379.600 C 110.000 379.820,110.360 380.000,110.800 380.000 C 111.240 380.000,111.601 380.135,111.603 380.300 C 111.607 380.706,113.586 381.600,114.480 381.600 C 114.876 381.600,115.200 381.780,115.200 382.000 C 115.200 382.220,115.560 382.400,116.000 382.400 C 116.440 382.400,116.800 382.580,116.800 382.800 C 116.800 383.020,117.160 383.200,117.600 383.200 C 118.040 383.200,118.400 383.380,118.400 383.600 C 118.400 383.820,118.760 384.000,119.200 384.000 C 119.640 384.000,120.000 384.180,120.000 384.400 C 120.000 384.620,120.349 384.800,120.776 384.800 C 121.203 384.800,121.664 384.980,121.800 385.200 C 121.936 385.420,122.487 385.600,123.024 385.600 C 123.561 385.600,124.000 385.780,124.000 386.000 C 124.000 386.220,124.279 386.400,124.619 386.400 C 124.960 386.400,125.984 386.760,126.894 387.200 C 127.805 387.640,128.861 388.000,129.242 388.000 C 129.622 388.000,129.993 388.140,130.067 388.312 C 130.254 388.750,139.033 391.600,140.196 391.600 C 140.722 391.600,141.264 391.780,141.400 392.000 C 141.536 392.220,142.166 392.400,142.800 392.400 C 143.434 392.400,144.064 392.580,144.200 392.800 C 144.336 393.020,144.966 393.200,145.600 393.200 C 146.234 393.200,146.864 393.380,147.000 393.600 C 147.136 393.820,147.777 394.000,148.424 394.000 C 149.071 394.000,149.600 394.180,149.600 394.400 C 149.600 394.620,150.410 394.800,151.400 394.800 C 152.390 394.800,153.200 394.980,153.200 395.200 C 153.200 395.420,154.010 395.600,155.000 395.600 C 155.990 395.600,156.800 395.762,156.800 395.960 C 156.800 396.302,157.633 396.467,162.200 397.031 C 163.300 397.167,164.371 397.440,164.580 397.639 C 164.789 397.837,165.914 398.000,167.080 398.000 C 168.246 398.000,169.200 398.180,169.200 398.400 C 169.200 398.627,170.373 398.800,171.920 398.800 C 173.563 398.800,174.838 398.998,175.140 399.300 C 175.529 399.689,181.045 399.800,200.000 399.800 C 218.955 399.800,224.471 399.689,224.860 399.300 C 225.162 398.998,226.437 398.800,228.080 398.800 C 229.627 398.800,230.800 398.627,230.800 398.400 C 230.800 398.178,231.867 398.000,233.200 398.000 C 234.533 398.000,235.600 397.822,235.600 397.600 C 235.600 397.380,236.489 397.200,237.576 397.200 C 238.663 397.200,239.664 397.020,239.800 396.800 C 239.936 396.580,240.757 396.400,241.624 396.400 C 242.491 396.400,243.200 396.220,243.200 396.000 C 243.200 395.780,243.999 395.600,244.976 395.600 C 245.953 395.600,246.864 395.420,247.000 395.200 C 247.136 394.980,247.957 394.800,248.824 394.800 C 249.691 394.800,250.400 394.620,250.400 394.400 C 250.400 394.180,250.929 394.000,251.576 394.000 C 252.223 394.000,252.864 393.820,253.000 393.600 C 253.136 393.380,253.867 393.200,254.624 393.200 C 255.381 393.200,256.000 393.020,256.000 392.800 C 256.000 392.580,256.630 392.400,257.400 392.400 C 258.170 392.400,258.800 392.220,258.800 392.000 C 258.800 391.780,259.244 391.600,259.786 391.600 C 260.718 391.600,263.647 390.772,265.400 390.013 C 265.840 389.823,267.055 389.433,268.100 389.146 C 269.145 388.860,270.000 388.485,270.000 388.313 C 270.000 388.141,270.362 388.000,270.805 388.000 C 271.248 388.000,271.968 387.820,272.405 387.600 C 272.842 387.380,273.558 387.020,273.995 386.800 C 274.432 386.580,275.062 386.400,275.395 386.400 C 275.728 386.400,276.000 386.220,276.000 386.000 C 276.000 385.780,276.439 385.600,276.976 385.600 C 277.513 385.600,278.064 385.420,278.200 385.200 C 278.336 384.980,278.797 384.800,279.224 384.800 C 279.651 384.800,280.000 384.620,280.000 384.400 C 280.000 384.180,280.360 384.000,280.800 384.000 C 281.240 384.000,281.600 383.820,281.600 383.600 C 281.600 383.380,281.960 383.200,282.400 383.200 C 282.840 383.200,283.200 383.020,283.200 382.800 C 283.200 382.580,283.560 382.400,284.000 382.400 C 284.440 382.400,284.800 382.220,284.800 382.000 C 284.800 381.780,285.143 381.600,285.562 381.600 C 286.378 381.600,289.712 379.999,289.933 379.500 C 290.007 379.335,290.412 379.200,290.833 379.200 C 291.255 379.200,291.600 379.020,291.600 378.800 C 291.600 378.580,291.945 378.400,292.367 378.400 C 292.788 378.400,293.193 378.265,293.267 378.100 C 293.434 377.724,295.564 376.425,296.500 376.129 C 296.885 376.007,297.200 375.748,297.200 375.553 C 297.200 375.359,297.479 375.200,297.820 375.200 C 298.442 375.200,300.825 374.102,301.200 373.644 C 301.310 373.509,301.940 373.134,302.600 372.810 C 304.261 371.995,308.571 369.127,308.733 368.728 C 308.807 368.547,309.172 368.400,309.545 368.400 C 309.918 368.400,310.483 368.040,310.800 367.600 C 311.117 367.160,311.657 366.800,312.000 366.800 C 312.343 366.800,312.883 366.440,313.200 366.000 C 313.517 365.560,313.980 365.200,314.229 365.200 C 314.478 365.200,315.246 364.660,315.937 364.000 C 316.628 363.340,317.425 362.800,317.708 362.800 C 317.991 362.800,318.483 362.440,318.800 362.000 C 319.117 361.560,319.572 361.200,319.810 361.200 C 320.049 361.200,320.931 360.570,321.772 359.800 C 322.613 359.030,323.423 358.400,323.572 358.400 C 323.721 358.400,324.531 357.770,325.372 357.000 C 326.213 356.230,327.054 355.600,327.242 355.600 C 327.429 355.600,328.573 354.610,329.783 353.400 C 330.993 352.190,332.157 351.200,332.371 351.200 C 332.584 351.200,334.703 349.230,337.079 346.821 C 342.316 341.514,341.514 342.316,346.821 337.079 C 349.230 334.703,351.200 332.584,351.200 332.371 C 351.200 332.157,352.190 330.993,353.400 329.783 C 354.610 328.573,355.600 327.429,355.600 327.242 C 355.600 327.054,356.230 326.213,357.000 325.372 C 357.770 324.531,358.400 323.721,358.400 323.572 C 358.400 323.423,359.030 322.613,359.800 321.772 C 360.570 320.931,361.200 320.049,361.200 319.810 C 361.200 319.572,361.560 319.117,362.000 318.800 C 362.440 318.483,362.800 318.038,362.801 317.812 C 362.801 317.585,363.341 316.770,364.000 316.000 C 364.659 315.230,365.199 314.415,365.199 314.188 C 365.200 313.962,365.560 313.517,366.000 313.200 C 366.440 312.883,366.800 312.343,366.800 312.000 C 366.800 311.657,367.160 311.117,367.600 310.800 C 368.040 310.483,368.400 309.918,368.400 309.545 C 368.400 309.172,368.547 308.807,368.728 308.733 C 369.127 308.571,371.995 304.261,372.810 302.600 C 373.134 301.940,373.509 301.310,373.644 301.200 C 374.091 300.835,375.200 298.449,375.200 297.853 C 375.200 297.531,375.335 297.207,375.500 297.133 C 375.876 296.966,377.175 294.836,377.471 293.900 C 377.593 293.515,377.852 293.200,378.047 293.200 C 378.241 293.200,378.400 292.840,378.400 292.400 C 378.400 291.960,378.580 291.600,378.800 291.600 C 379.020 291.600,379.200 291.255,379.200 290.833 C 379.200 290.412,379.335 290.007,379.500 289.933 C 379.665 289.860,380.225 288.900,380.744 287.800 C 381.263 286.700,381.848 285.487,382.044 285.105 C 382.240 284.723,382.400 284.138,382.400 283.805 C 382.400 283.472,382.580 283.200,382.800 283.200 C 383.020 283.200,383.200 282.840,383.200 282.400 C 383.200 281.960,383.380 281.600,383.600 281.600 C 383.820 281.600,384.000 281.240,384.000 280.800 C 384.000 280.360,384.180 280.000,384.400 280.000 C 384.620 280.000,384.800 279.651,384.800 279.224 C 384.800 278.797,384.980 278.336,385.200 278.200 C 385.420 278.064,385.600 277.513,385.600 276.976 C 385.600 276.439,385.780 276.000,386.000 276.000 C 386.220 276.000,386.400 275.728,386.400 275.395 C 386.400 275.062,386.580 274.432,386.800 273.995 C 387.020 273.558,387.380 272.842,387.600 272.405 C 387.820 271.968,388.000 271.248,388.000 270.805 C 388.000 270.362,388.141 270.000,388.313 270.000 C 388.485 270.000,388.860 269.145,389.146 268.100 C 389.433 267.055,389.823 265.840,390.013 265.400 C 390.772 263.647,391.600 260.718,391.600 259.786 C 391.600 259.244,391.780 258.800,392.000 258.800 C 392.220 258.800,392.400 258.170,392.400 257.400 C 392.400 256.630,392.580 256.000,392.800 256.000 C 393.020 256.000,393.200 255.381,393.200 254.624 C 393.200 253.867,393.380 253.136,393.600 253.000 C 393.820 252.864,394.000 252.223,394.000 251.576 C 394.000 250.929,394.180 250.400,394.400 250.400 C 394.620 250.400,394.800 249.691,394.800 248.824 C 394.800 247.957,394.980 247.136,395.200 247.000 C 395.420 246.864,395.600 245.953,395.600 244.976 C 395.600 243.999,395.780 243.200,396.000 243.200 C 396.220 243.200,396.400 242.480,396.400 241.600 C 396.400 240.720,396.580 240.000,396.800 240.000 C 397.020 240.000,397.200 239.010,397.200 237.800 C 397.200 236.590,397.380 235.600,397.600 235.600 C 397.820 235.600,398.000 234.621,398.000 233.424 C 398.000 232.227,398.180 231.136,398.400 231.000 C 398.620 230.864,398.800 229.539,398.800 228.056 C 398.800 226.433,398.999 225.161,399.300 224.860 C 400.029 224.131,400.029 175.869,399.300 175.140 C 398.999 174.839,398.800 173.567,398.800 171.944 C 398.800 170.461,398.620 169.136,398.400 169.000 C 398.180 168.864,398.000 167.773,398.000 166.576 C 398.000 165.379,397.820 164.400,397.600 164.400 C 397.380 164.400,397.200 163.410,397.200 162.200 C 397.200 160.990,397.020 160.000,396.800 160.000 C 396.580 160.000,396.400 159.280,396.400 158.400 C 396.400 157.520,396.220 156.800,396.000 156.800 C 395.780 156.800,395.600 156.001,395.600 155.024 C 395.600 154.047,395.420 153.136,395.200 153.000 C 394.980 152.864,394.800 152.043,394.800 151.176 C 394.800 150.309,394.620 149.600,394.400 149.600 C 394.180 149.600,394.000 149.071,394.000 148.424 C 394.000 147.777,393.820 147.136,393.600 147.000 C 393.380 146.864,393.200 146.234,393.200 145.600 C 393.200 144.966,393.020 144.336,392.800 144.200 C 392.580 144.064,392.400 143.434,392.400 142.800 C 392.400 142.166,392.220 141.536,392.000 141.400 C 391.780 141.264,391.600 140.722,391.600 140.196 C 391.600 139.033,388.750 130.254,388.312 130.067 C 388.140 129.993,388.000 129.622,388.000 129.242 C 388.000 128.861,387.640 127.805,387.200 126.894 C 386.760 125.984,386.400 124.960,386.400 124.619 C 386.400 124.279,386.220 124.000,386.000 124.000 C 385.780 124.000,385.600 123.561,385.600 123.024 C 385.600 122.487,385.420 121.936,385.200 121.800 C 384.980 121.664,384.800 121.203,384.800 120.776 C 384.800 120.349,384.620 120.000,384.400 120.000 C 384.180 120.000,384.000 119.640,384.000 119.200 C 384.000 118.760,383.820 118.400,383.600 118.400 C 383.380 118.400,383.200 118.040,383.200 117.600 C 383.200 117.160,383.020 116.800,382.800 116.800 C 382.580 116.800,382.400 116.440,382.400 116.000 C 382.400 115.560,382.220 115.200,382.000 115.200 C 381.780 115.200,381.600 114.876,381.600 114.480 C 381.600 113.586,380.706 111.607,380.300 111.603 C 380.135 111.601,380.000 111.240,380.000 110.800 C 380.000 110.360,379.820 110.000,379.600 110.000 C 379.380 110.000,379.200 109.640,379.200 109.200 C 379.200 108.760,379.020 108.400,378.800 108.400 C 378.580 108.400,378.400 108.055,378.400 107.633 C 378.400 107.212,378.265 106.807,378.100 106.733 C 377.724 106.566,376.425 104.436,376.129 103.500 C 376.007 103.115,375.748 102.800,375.553 102.800 C 375.359 102.800,375.200 102.521,375.200 102.180 C 375.200 101.553,374.099 99.168,373.639 98.800 C 373.502 98.690,372.962 97.753,372.441 96.718 C 371.919 95.682,371.202 94.512,370.846 94.118 C 370.491 93.723,369.945 92.905,369.632 92.300 C 369.320 91.695,368.915 91.200,368.732 91.200 C 368.550 91.200,368.400 90.880,368.400 90.488 C 368.400 90.097,368.040 89.517,367.600 89.200 C 367.160 88.883,366.800 88.343,366.800 88.000 C 366.800 87.657,366.440 87.117,366.000 86.800 C 365.560 86.483,365.200 86.038,365.199 85.812 C 365.199 85.585,364.659 84.770,364.000 84.000 C 363.341 83.230,362.801 82.415,362.801 82.188 C 362.800 81.962,362.440 81.517,362.000 81.200 C 361.560 80.883,361.200 80.411,361.200 80.152 C 361.200 79.892,360.570 79.050,359.800 78.280 C 359.030 77.510,358.400 76.717,358.400 76.518 C 358.400 76.319,357.770 75.469,357.000 74.628 C 356.230 73.787,355.600 72.946,355.600 72.758 C 355.600 72.571,354.610 71.427,353.400 70.217 C 352.190 69.007,351.200 67.860,351.200 67.667 C 351.200 67.474,349.587 65.715,347.615 63.758 C 342.454 58.637,341.843 58.024,337.263 53.388 C 334.988 51.085,332.967 49.200,332.773 49.200 C 332.580 49.200,331.604 48.383,330.606 47.385 C 329.607 46.386,328.118 45.121,327.295 44.572 C 325.706 43.513,324.081 42.213,321.706 40.100 C 320.902 39.385,320.049 38.800,319.810 38.800 C 319.572 38.800,319.117 38.440,318.800 38.000 C 318.483 37.560,318.038 37.200,317.812 37.199 C 317.585 37.199,316.770 36.659,316.000 36.000 C 315.230 35.341,314.415 34.801,314.188 34.801 C 313.962 34.800,313.517 34.440,313.200 34.000 C 312.883 33.560,312.343 33.200,312.000 33.200 C 311.657 33.200,311.117 32.840,310.800 32.400 C 310.483 31.960,309.918 31.600,309.545 31.600 C 309.172 31.600,308.807 31.453,308.733 31.272 C 308.487 30.666,303.717 27.645,302.553 27.357 C 301.919 27.200,301.109 26.741,300.753 26.336 C 300.397 25.931,299.812 25.600,299.453 25.600 C 299.094 25.600,298.800 25.420,298.800 25.200 C 298.800 24.980,298.455 24.800,298.033 24.800 C 297.612 24.800,297.207 24.665,297.133 24.500 C 296.966 24.124,294.836 22.825,293.900 22.529 C 293.515 22.407,293.200 22.148,293.200 21.953 C 293.200 21.759,292.840 21.600,292.400 21.600 C 291.960 21.600,291.600 21.420,291.600 21.200 C 291.600 20.980,291.313 20.800,290.962 20.800 C 290.611 20.800,289.834 20.451,289.235 20.025 C 288.636 19.598,287.393 19.015,286.473 18.727 C 285.553 18.440,284.800 18.069,284.800 17.903 C 284.800 17.736,284.440 17.600,284.000 17.600 C 283.560 17.600,283.200 17.420,283.200 17.200 C 283.200 16.980,282.840 16.800,282.400 16.800 C 281.960 16.800,281.600 16.620,281.600 16.400 C 281.600 16.180,281.240 16.000,280.800 16.000 C 280.360 16.000,280.000 15.853,280.000 15.672 C 280.000 15.492,279.100 15.100,278.000 14.800 C 276.900 14.500,276.000 14.108,276.000 13.928 C 276.000 13.747,275.721 13.600,275.381 13.600 C 275.040 13.600,274.016 13.240,273.106 12.800 C 272.195 12.360,271.247 12.000,271.000 12.000 C 270.753 12.000,269.799 11.637,268.880 11.193 C 267.961 10.749,266.398 10.275,265.405 10.139 C 264.412 10.003,263.600 9.736,263.600 9.546 C 263.600 9.356,263.060 9.200,262.400 9.200 C 261.740 9.200,261.200 9.020,261.200 8.800 C 261.200 8.580,260.671 8.400,260.024 8.400 C 259.377 8.400,258.736 8.220,258.600 8.000 C 258.464 7.780,257.823 7.600,257.176 7.600 C 256.529 7.600,256.000 7.420,256.000 7.200 C 256.000 6.980,255.381 6.800,254.624 6.800 C 253.867 6.800,253.136 6.620,253.000 6.400 C 252.864 6.180,252.223 6.000,251.576 6.000 C 250.929 6.000,250.400 5.820,250.400 5.600 C 250.400 5.380,249.691 5.200,248.824 5.200 C 247.957 5.200,247.136 5.020,247.000 4.800 C 246.864 4.580,245.953 4.400,244.976 4.400 C 243.999 4.400,243.200 4.220,243.200 4.000 C 243.200 3.780,242.480 3.600,241.600 3.600 C 240.720 3.600,240.000 3.420,240.000 3.200 C 240.000 2.980,239.010 2.800,237.800 2.800 C 236.590 2.800,235.600 2.620,235.600 2.400 C 235.600 2.180,234.621 2.000,233.424 2.000 C 232.227 2.000,231.136 1.820,231.000 1.600 C 230.864 1.380,229.539 1.200,228.056 1.200 C 226.478 1.200,225.159 0.999,224.875 0.715 C 224.394 0.234,187.860 -0.116,179.003 0.275 M131.885 86.622 C 155.431 93.265,156.212 127.682,132.952 133.653 C 132.208 133.844,130.925 134.173,130.100 134.384 C 127.296 135.102,122.260 135.298,119.000 134.818 C 88.857 130.372,89.187 90.037,119.400 85.831 C 121.827 85.493,129.638 85.988,131.885 86.622 M274.035 152.200 C 281.006 153.311,284.757 154.455,290.200 157.130 C 303.047 163.442,313.070 176.771,316.723 192.400 C 319.513 204.336,319.606 206.390,319.603 255.903 L 319.600 298.406 295.700 298.303 L 271.800 298.200 271.561 255.400 C 271.306 209.511,271.390 211.352,269.263 204.913 C 262.379 184.070,234.491 183.726,224.018 204.355 C 221.370 209.571,221.229 212.301,221.213 258.500 L 221.200 298.400 197.414 298.400 L 173.629 298.400 173.714 226.600 L 173.800 154.800 197.500 154.800 L 221.200 154.800 221.200 164.400 C 221.200 175.581,221.129 175.448,224.600 170.739 C 230.838 162.274,241.482 155.051,250.554 153.124 C 258.168 151.508,267.409 151.144,274.035 152.200 M147.000 226.600 L 147.000 298.200 123.200 298.200 L 99.400 298.200 99.297 227.000 C 99.241 187.840,99.281 155.574,99.386 155.297 C 99.537 154.899,104.532 154.815,123.289 154.897 L 147.000 155.000 147.000 226.600 " stroke="none" fill="#007ab9" fill-rule="evenodd"></path></g></svg>