<svg id="svg" version="1.1" xmlns="http://www.w3.org/2000/svg" xmlns:xlink="http://www.w3.org/1999/xlink" width="400" height="400" viewBox="0, 0, 400,400"><g id="svgg"><path id="path0" d="M83.455 78.586 C 78.451 80.370,78.770 76.167,78.893 138.700 L 79.000 193.062 80.153 194.574 C 82.295 197.382,78.252 197.200,138.400 197.200 C 198.548 197.200,194.505 197.382,196.647 194.574 L 197.800 193.063 197.923 140.031 C 197.990 110.864,197.927 85.835,197.782 84.412 C 197.470 81.358,195.746 79.211,192.991 78.446 C 190.402 77.727,85.487 77.861,83.455 78.586 M244.800 78.623 C 242.757 79.245,223.248 98.342,222.424 100.526 C 221.044 104.188,221.781 105.291,233.152 116.587 C 245.329 128.684,246.253 129.237,250.035 126.688 C 254.704 123.542,254.189 119.900,248.226 113.898 C 246.122 111.780,244.400 109.857,244.400 109.624 C 244.400 108.853,275.342 109.065,279.743 109.865 C 292.603 112.204,302.760 120.930,307.136 133.400 C 308.595 137.558,308.916 141.023,309.161 155.269 L 309.400 169.137 310.400 170.207 C 313.462 173.482,318.457 173.093,320.614 169.413 L 321.600 167.730 321.593 153.965 C 321.587 143.534,321.440 139.377,320.985 136.800 C 317.448 116.757,303.015 101.834,283.038 97.565 C 279.820 96.878,277.678 96.800,261.928 96.800 C 248.619 96.800,244.400 96.685,244.400 96.323 C 244.400 96.060,246.180 94.035,248.356 91.823 C 253.567 86.523,254.208 84.607,251.910 81.198 C 250.228 78.702,247.631 77.761,244.800 78.623 M185.000 137.800 L 185.000 184.600 138.400 184.600 L 91.800 184.600 91.698 137.698 L 91.597 90.797 138.298 90.898 L 185.000 91.000 185.000 137.800 M205.708 203.563 C 201.484 205.536,201.107 211.837,205.057 214.441 C 207.859 216.288,212.601 214.998,214.081 211.986 C 216.750 206.552,211.221 200.989,205.708 203.563 M232.600 203.367 C 230.410 204.344,229.175 206.063,228.950 208.446 C 228.232 216.029,239.092 218.049,241.118 210.710 C 242.462 205.845,237.204 201.312,232.600 203.367 M259.400 203.263 C 254.699 204.992,254.037 211.971,258.334 214.500 C 261.126 216.143,265.647 214.987,267.085 212.261 C 269.800 207.117,264.809 201.273,259.400 203.263 M285.780 203.363 C 283.127 204.518,281.608 207.585,282.180 210.632 C 283.014 215.080,289.031 216.879,292.439 213.700 C 297.491 208.988,292.095 200.612,285.780 203.363 M312.000 203.675 C 306.096 206.709,308.159 215.200,314.800 215.200 C 318.667 215.200,320.908 213.010,320.960 209.178 C 321.026 204.332,316.332 201.449,312.000 203.675 M82.200 227.986 C 80.951 228.509,79.565 229.986,78.956 231.444 C 78.162 233.343,78.178 257.488,78.976 262.600 C 81.762 280.440,93.772 294.915,110.600 300.715 C 116.857 302.871,117.380 302.920,137.200 303.182 C 147.430 303.317,155.887 303.466,155.993 303.514 C 156.099 303.561,154.362 305.445,152.133 307.700 C 145.774 314.135,145.233 316.944,149.670 320.510 C 153.577 323.650,155.103 322.777,167.465 310.332 C 181.497 296.205,181.512 298.195,167.270 283.871 C 155.096 271.627,154.302 271.114,150.471 273.024 C 145.213 275.648,145.686 279.914,151.944 286.297 L 156.162 290.600 153.781 290.726 C 146.629 291.103,120.512 290.488,118.400 289.892 C 104.965 286.099,96.243 277.754,92.333 264.952 C 91.569 262.450,91.467 260.837,91.220 247.200 C 91.052 237.981,90.781 231.815,90.516 231.200 C 89.298 228.376,85.122 226.762,82.200 227.986 M206.433 229.755 C 199.710 232.185,201.835 242.501,208.930 241.880 C 215.343 241.320,216.957 232.946,211.198 230.116 C 209.158 229.114,208.371 229.054,206.433 229.755 M312.719 229.745 C 309.053 231.372,307.524 235.114,309.191 238.382 C 312.264 244.406,321.051 242.321,320.959 235.589 C 320.899 231.161,316.522 228.057,312.719 229.745 M205.594 256.741 C 200.011 259.708,201.985 268.400,208.242 268.400 C 211.036 268.400,212.898 267.360,214.012 265.176 C 216.789 259.733,210.957 253.890,205.594 256.741 M311.565 256.912 C 306.189 260.535,308.421 268.400,314.824 268.400 C 318.608 268.400,320.971 265.988,320.971 262.124 C 320.971 257.307,315.488 254.268,311.565 256.912 M207.077 282.705 C 206.448 282.790,205.173 283.606,204.177 284.560 C 198.969 289.550,205.675 298.304,211.631 294.290 C 217.650 290.235,214.303 281.721,207.077 282.705 M314.000 282.707 C 311.172 283.078,308.823 285.566,308.535 288.496 C 308.095 292.970,313.592 296.673,317.599 294.600 C 323.788 291.400,320.884 281.803,314.000 282.707 M205.600 309.916 C 200.629 312.633,201.539 320.079,207.022 321.553 C 210.963 322.612,214.800 319.516,214.800 315.275 C 214.800 310.972,209.411 307.833,205.600 309.916 M232.010 310.074 C 229.011 312.112,228.028 315.253,229.451 318.250 C 232.749 325.202,243.441 320.745,240.956 313.454 C 239.686 309.724,235.082 307.985,232.010 310.074 M258.807 309.941 C 254.877 312.048,254.258 317.087,257.565 320.046 C 261.126 323.232,266.380 321.729,267.607 317.173 C 269.030 311.889,263.558 307.392,258.807 309.941 M285.097 310.066 C 281.001 312.504,281.137 318.893,285.332 321.071 C 290.659 323.837,296.365 318.063,293.751 312.553 C 292.304 309.504,288.080 308.291,285.097 310.066 M312.800 309.489 C 309.300 310.804,307.553 314.826,309.119 317.964 C 312.232 324.203,320.971 322.286,320.971 315.364 C 320.971 311.261,316.548 308.080,312.800 309.489 " stroke="none" fill="#040504" fill-rule="evenodd"></path><path id="path1" d="M179.000 0.464 C 176.140 0.655,173.523 0.967,173.184 1.157 C 172.845 1.346,170.909 1.633,168.881 1.794 C 166.854 1.954,165.106 2.228,164.999 2.402 C 164.891 2.576,163.542 2.845,162.000 3.000 C 160.458 3.155,159.097 3.443,158.975 3.641 C 158.853 3.838,158.133 4.000,157.376 4.000 C 156.619 4.000,156.000 4.159,156.000 4.353 C 156.000 4.548,154.830 4.832,153.400 4.985 C 151.970 5.138,150.800 5.412,150.800 5.593 C 150.800 5.773,149.720 6.047,148.400 6.200 C 147.080 6.353,146.000 6.624,146.000 6.802 C 146.000 6.979,145.100 7.249,144.000 7.400 C 142.900 7.551,142.000 7.821,142.000 8.000 C 142.000 8.179,141.100 8.449,140.000 8.600 C 138.900 8.751,138.000 9.027,138.000 9.213 C 138.000 9.399,137.190 9.672,136.200 9.821 C 135.210 9.969,134.400 10.239,134.400 10.421 C 134.400 10.602,133.590 10.872,132.600 11.021 C 131.610 11.169,130.800 11.450,130.800 11.645 C 130.800 11.840,130.485 12.001,130.100 12.002 C 129.715 12.004,128.917 12.257,128.327 12.565 C 127.737 12.873,126.702 13.246,126.027 13.394 C 125.352 13.542,124.800 13.806,124.800 13.981 C 124.800 14.155,124.080 14.413,123.200 14.554 C 122.320 14.694,121.600 14.979,121.600 15.187 C 121.600 15.394,120.970 15.682,120.200 15.826 C 119.430 15.971,118.800 16.249,118.800 16.445 C 118.800 16.640,118.530 16.800,118.200 16.800 C 117.870 16.800,117.600 16.960,117.600 17.155 C 117.600 17.351,116.970 17.629,116.200 17.774 C 115.430 17.918,114.800 18.188,114.800 18.374 C 114.800 18.559,114.170 18.829,113.400 18.974 C 112.630 19.118,112.000 19.394,112.000 19.586 C 112.000 19.779,111.460 20.055,110.800 20.200 C 110.140 20.345,109.600 20.615,109.600 20.800 C 109.600 20.985,109.060 21.255,108.400 21.400 C 107.740 21.545,107.200 21.826,107.200 22.024 C 107.200 22.222,106.750 22.498,106.200 22.636 C 105.650 22.774,105.200 23.028,105.200 23.200 C 105.200 23.372,104.707 23.637,104.104 23.788 C 103.501 23.940,102.916 24.184,102.804 24.332 C 102.611 24.585,101.873 25.004,98.300 26.889 C 97.475 27.325,96.800 27.843,96.800 28.040 C 96.800 28.238,96.530 28.400,96.200 28.400 C 95.870 28.400,95.600 28.580,95.600 28.800 C 95.600 29.020,95.343 29.200,95.029 29.200 C 94.714 29.200,94.217 29.425,93.922 29.700 C 93.628 29.975,92.702 30.551,91.864 30.979 C 91.026 31.408,89.966 32.083,89.509 32.479 C 89.052 32.876,88.435 33.200,88.139 33.200 C 87.842 33.200,87.595 33.335,87.589 33.500 C 87.583 33.665,86.863 34.241,85.989 34.780 C 85.115 35.320,84.400 35.905,84.400 36.080 C 84.400 36.256,84.124 36.400,83.787 36.400 C 83.451 36.400,83.071 36.670,82.945 37.000 C 82.818 37.330,82.462 37.600,82.153 37.600 C 81.845 37.600,81.284 37.960,80.907 38.400 C 80.530 38.840,80.007 39.200,79.744 39.200 C 79.482 39.200,79.207 39.336,79.133 39.503 C 79.060 39.670,78.190 40.430,77.200 41.192 C 76.210 41.955,75.256 42.808,75.080 43.089 C 74.904 43.370,74.565 43.600,74.326 43.600 C 74.087 43.600,73.501 44.021,73.024 44.537 C 72.546 45.052,71.851 45.644,71.479 45.852 C 68.770 47.368,47.368 68.770,45.852 71.479 C 45.644 71.851,45.052 72.546,44.537 73.024 C 44.021 73.501,43.600 74.087,43.600 74.326 C 43.600 74.565,43.370 74.904,43.089 75.080 C 42.808 75.256,41.955 76.210,41.192 77.200 C 40.430 78.190,39.670 79.060,39.503 79.133 C 39.336 79.207,39.200 79.482,39.200 79.744 C 39.200 80.007,38.840 80.530,38.400 80.907 C 37.960 81.284,37.600 81.845,37.600 82.153 C 37.600 82.462,37.330 82.818,37.000 82.945 C 36.670 83.071,36.400 83.451,36.400 83.787 C 36.400 84.124,36.256 84.400,36.080 84.400 C 35.905 84.400,35.320 85.115,34.780 85.989 C 34.241 86.863,33.665 87.583,33.500 87.589 C 33.335 87.595,33.200 87.842,33.200 88.139 C 33.200 88.435,32.876 89.052,32.479 89.509 C 32.083 89.966,31.408 91.026,30.979 91.864 C 30.551 92.702,29.975 93.628,29.700 93.922 C 29.425 94.217,29.200 94.714,29.200 95.029 C 29.200 95.343,29.020 95.600,28.800 95.600 C 28.580 95.600,28.400 95.870,28.400 96.200 C 28.400 96.530,28.238 96.800,28.040 96.800 C 27.843 96.800,27.325 97.475,26.889 98.300 C 25.004 101.873,24.585 102.611,24.332 102.804 C 24.184 102.916,23.940 103.501,23.788 104.104 C 23.637 104.707,23.372 105.200,23.200 105.200 C 23.028 105.200,22.774 105.650,22.636 106.200 C 22.498 106.750,22.222 107.200,22.024 107.200 C 21.826 107.200,21.545 107.740,21.400 108.400 C 21.255 109.060,20.985 109.600,20.800 109.600 C 20.615 109.600,20.345 110.140,20.200 110.800 C 20.055 111.460,19.779 112.000,19.586 112.000 C 19.394 112.000,19.118 112.630,18.974 113.400 C 18.829 114.170,18.559 114.800,18.374 114.800 C 18.188 114.800,17.918 115.430,17.774 116.200 C 17.629 116.970,17.351 117.600,17.155 117.600 C 16.960 117.600,16.800 117.870,16.800 118.200 C 16.800 118.530,16.640 118.800,16.445 118.800 C 16.249 118.800,15.971 119.430,15.826 120.200 C 15.682 120.970,15.394 121.600,15.187 121.600 C 14.979 121.600,14.694 122.320,14.554 123.200 C 14.413 124.080,14.155 124.800,13.981 124.800 C 13.806 124.800,13.542 125.352,13.394 126.027 C 13.246 126.702,12.873 127.737,12.565 128.327 C 12.257 128.917,12.004 129.715,12.002 130.100 C 12.001 130.485,11.840 130.800,11.645 130.800 C 11.450 130.800,11.169 131.610,11.021 132.600 C 10.872 133.590,10.602 134.400,10.421 134.400 C 10.239 134.400,9.969 135.210,9.821 136.200 C 9.672 137.190,9.399 138.000,9.213 138.000 C 9.027 138.000,8.751 138.900,8.600 140.000 C 8.449 141.100,8.179 142.000,8.000 142.000 C 7.821 142.000,7.551 142.900,7.400 144.000 C 7.249 145.100,6.979 146.000,6.802 146.000 C 6.624 146.000,6.353 147.080,6.200 148.400 C 6.047 149.720,5.773 150.800,5.593 150.800 C 5.412 150.800,5.138 151.970,4.985 153.400 C 4.832 154.830,4.548 156.000,4.353 156.000 C 4.159 156.000,4.000 156.619,4.000 157.376 C 4.000 158.133,3.838 158.853,3.641 158.975 C 3.443 159.097,3.155 160.458,3.000 162.000 C 2.845 163.542,2.576 164.891,2.402 164.999 C 2.228 165.106,1.956 166.861,1.798 168.897 C 1.641 170.934,1.374 172.780,1.207 173.000 C -0.332 175.019,-0.339 225.033,1.199 227.000 C 1.371 227.220,1.641 229.066,1.798 231.103 C 1.956 233.139,2.228 234.894,2.402 235.001 C 2.576 235.109,2.845 236.458,3.000 238.000 C 3.155 239.542,3.443 240.903,3.641 241.025 C 3.838 241.147,4.000 241.856,4.000 242.600 C 4.000 243.344,4.162 244.053,4.361 244.176 C 4.559 244.298,4.847 245.479,5.000 246.799 C 5.153 248.120,5.423 249.200,5.600 249.200 C 5.777 249.200,6.047 250.280,6.200 251.600 C 6.353 252.920,6.618 254.000,6.788 254.000 C 6.958 254.000,7.215 254.893,7.360 255.984 C 7.505 257.075,7.788 258.069,7.988 258.193 C 8.189 258.317,8.475 259.224,8.622 260.209 C 8.770 261.194,9.039 262.000,9.221 262.000 C 9.402 262.000,9.672 262.810,9.821 263.800 C 9.969 264.790,10.239 265.600,10.421 265.600 C 10.602 265.600,10.872 266.410,11.021 267.400 C 11.169 268.390,11.435 269.200,11.610 269.200 C 11.786 269.200,12.051 269.920,12.200 270.800 C 12.349 271.680,12.614 272.400,12.791 272.400 C 12.967 272.400,13.229 273.030,13.374 273.800 C 13.518 274.570,13.785 275.200,13.967 275.200 C 14.149 275.200,14.413 275.920,14.554 276.800 C 14.694 277.680,14.968 278.400,15.161 278.400 C 15.355 278.400,15.633 278.895,15.779 279.500 C 16.151 281.041,16.944 282.800,17.266 282.800 C 17.415 282.800,17.655 283.340,17.800 284.000 C 17.945 284.660,18.209 285.200,18.387 285.200 C 18.565 285.200,18.829 285.830,18.974 286.600 C 19.118 287.370,19.394 288.000,19.586 288.000 C 19.779 288.000,20.055 288.540,20.200 289.200 C 20.345 289.860,20.615 290.400,20.800 290.400 C 20.985 290.400,21.255 290.940,21.400 291.600 C 21.545 292.260,21.826 292.800,22.024 292.800 C 22.222 292.800,22.498 293.250,22.636 293.800 C 22.774 294.350,23.033 294.800,23.212 294.800 C 23.390 294.800,23.655 295.340,23.800 296.000 C 23.945 296.660,24.184 297.204,24.332 297.208 C 24.479 297.213,25.050 298.199,25.600 299.400 C 26.150 300.601,26.735 301.587,26.900 301.592 C 27.065 301.596,27.200 301.876,27.200 302.213 C 27.200 302.549,27.470 302.929,27.800 303.055 C 28.130 303.182,28.400 303.536,28.400 303.843 C 28.400 304.149,28.560 304.400,28.757 304.400 C 28.953 304.400,29.226 304.850,29.364 305.400 C 29.502 305.950,29.792 306.400,30.008 306.400 C 30.223 306.400,30.400 306.629,30.400 306.909 C 30.400 307.189,31.030 308.375,31.800 309.544 C 32.570 310.713,33.200 311.834,33.200 312.035 C 33.200 312.236,33.335 312.405,33.500 312.411 C 33.665 312.417,34.241 313.137,34.780 314.011 C 35.320 314.885,35.905 315.600,36.080 315.600 C 36.256 315.600,36.400 315.876,36.400 316.213 C 36.400 316.549,36.670 316.929,37.000 317.055 C 37.330 317.182,37.600 317.500,37.600 317.761 C 37.600 318.023,37.915 318.647,38.300 319.147 C 40.784 322.378,42.669 324.644,43.100 324.920 C 43.375 325.096,43.600 325.435,43.600 325.674 C 43.600 325.913,44.005 326.498,44.500 326.973 C 44.995 327.449,45.838 328.452,46.373 329.202 C 47.764 331.150,49.540 333.102,55.097 338.789 C 63.814 347.708,64.580 348.463,66.000 349.534 C 66.770 350.115,68.195 351.357,69.166 352.295 C 70.137 353.233,71.068 354.000,71.235 354.000 C 71.402 354.000,72.078 354.540,72.738 355.200 C 73.398 355.860,74.051 356.400,74.188 356.400 C 74.326 356.400,74.835 356.809,75.319 357.308 C 75.804 357.808,76.874 358.663,77.697 359.208 C 78.521 359.754,79.196 360.335,79.197 360.500 C 79.199 360.665,79.430 360.800,79.711 360.800 C 79.992 360.800,80.530 361.160,80.907 361.600 C 81.284 362.040,81.845 362.400,82.153 362.400 C 82.462 362.400,82.818 362.670,82.945 363.000 C 83.071 363.330,83.451 363.600,83.787 363.600 C 84.124 363.600,84.400 363.744,84.400 363.920 C 84.400 364.095,85.115 364.680,85.989 365.220 C 86.863 365.759,87.583 366.335,87.589 366.500 C 87.595 366.665,87.857 366.800,88.171 366.800 C 88.486 366.800,88.981 367.035,89.271 367.322 C 89.562 367.610,90.385 368.189,91.100 368.609 C 91.815 369.029,92.400 369.494,92.400 369.643 C 92.400 369.792,92.850 370.026,93.400 370.164 C 93.950 370.302,94.400 370.578,94.400 370.776 C 94.400 370.974,94.925 371.252,95.567 371.393 C 96.208 371.534,96.833 371.908,96.954 372.224 C 97.076 372.541,97.451 372.800,97.787 372.800 C 98.124 372.800,98.400 372.960,98.400 373.157 C 98.400 373.353,98.850 373.626,99.400 373.764 C 99.950 373.902,100.400 374.178,100.400 374.376 C 100.400 374.574,100.940 374.855,101.600 375.000 C 102.260 375.145,102.800 375.415,102.800 375.600 C 102.800 375.785,103.340 376.055,104.000 376.200 C 104.660 376.345,105.200 376.610,105.200 376.788 C 105.200 376.967,105.650 377.226,106.200 377.364 C 106.750 377.502,107.200 377.778,107.200 377.976 C 107.200 378.174,107.740 378.455,108.400 378.600 C 109.060 378.745,109.600 379.015,109.600 379.200 C 109.600 379.385,110.140 379.655,110.800 379.800 C 111.460 379.945,112.000 380.185,112.000 380.334 C 112.000 380.483,112.585 380.854,113.300 381.159 C 114.015 381.464,115.355 382.048,116.278 382.457 C 117.201 382.866,118.146 383.200,118.378 383.200 C 118.610 383.200,118.800 383.360,118.800 383.555 C 118.800 383.751,119.430 384.029,120.200 384.174 C 120.970 384.318,121.600 384.606,121.600 384.813 C 121.600 385.021,122.320 385.306,123.200 385.446 C 124.080 385.587,124.800 385.845,124.800 386.019 C 124.800 386.194,125.352 386.458,126.027 386.606 C 126.702 386.754,127.737 387.127,128.327 387.435 C 128.917 387.743,129.715 387.996,130.100 387.998 C 130.485 387.999,130.800 388.160,130.800 388.355 C 130.800 388.550,131.610 388.831,132.600 388.979 C 133.590 389.128,134.400 389.398,134.400 389.579 C 134.400 389.761,135.210 390.031,136.200 390.179 C 137.190 390.328,138.000 390.601,138.000 390.787 C 138.000 390.973,138.900 391.249,140.000 391.400 C 141.100 391.551,142.000 391.832,142.000 392.024 C 142.000 392.216,142.900 392.492,144.000 392.638 C 145.100 392.784,146.000 393.060,146.000 393.252 C 146.000 393.443,146.529 393.600,147.176 393.600 C 147.823 393.600,148.456 393.767,148.583 393.972 C 148.709 394.177,149.802 394.468,151.012 394.619 C 152.221 394.770,153.300 395.038,153.409 395.215 C 153.519 395.392,154.777 395.662,156.204 395.815 C 157.632 395.968,158.800 396.231,158.800 396.400 C 158.800 396.568,160.149 396.832,161.797 396.987 C 163.446 397.141,164.885 397.413,164.995 397.591 C 165.104 397.769,166.861 398.044,168.897 398.202 C 170.934 398.359,172.780 398.626,173.000 398.793 C 175.011 400.326,226.179 400.328,227.200 398.796 C 227.310 398.631,229.066 398.365,231.103 398.205 C 233.139 398.045,234.896 397.769,235.005 397.591 C 235.115 397.413,236.554 397.141,238.203 396.987 C 239.851 396.832,241.200 396.568,241.200 396.400 C 241.200 396.231,242.368 395.968,243.796 395.815 C 245.223 395.662,246.481 395.392,246.591 395.215 C 246.700 395.038,247.779 394.770,248.988 394.619 C 250.198 394.468,251.291 394.177,251.417 393.972 C 251.544 393.767,252.177 393.600,252.824 393.600 C 253.471 393.600,254.000 393.443,254.000 393.252 C 254.000 393.060,254.893 392.785,255.984 392.640 C 257.075 392.495,258.069 392.212,258.193 392.012 C 258.317 391.811,259.224 391.525,260.209 391.378 C 261.194 391.230,262.000 390.961,262.000 390.779 C 262.000 390.598,262.810 390.328,263.800 390.179 C 264.790 390.031,265.600 389.761,265.600 389.579 C 265.600 389.398,266.410 389.128,267.400 388.979 C 268.390 388.831,269.200 388.565,269.200 388.390 C 269.200 388.214,269.920 387.949,270.800 387.800 C 271.680 387.651,272.400 387.386,272.400 387.209 C 272.400 387.033,273.030 386.771,273.800 386.626 C 274.570 386.482,275.200 386.215,275.200 386.033 C 275.200 385.851,275.920 385.587,276.800 385.446 C 277.680 385.306,278.400 385.027,278.400 384.827 C 278.400 384.627,278.940 384.345,279.599 384.200 C 280.259 384.055,281.834 383.433,283.099 382.817 C 284.365 382.202,285.985 381.452,286.700 381.151 C 287.415 380.851,288.000 380.483,288.000 380.334 C 288.000 380.185,288.540 379.945,289.200 379.800 C 289.860 379.655,290.400 379.385,290.400 379.200 C 290.400 379.015,290.940 378.745,291.600 378.600 C 292.260 378.455,292.800 378.174,292.800 377.976 C 292.800 377.778,293.250 377.502,293.800 377.364 C 294.350 377.226,294.800 376.967,294.800 376.788 C 294.800 376.610,295.340 376.345,296.000 376.200 C 296.660 376.055,297.200 375.785,297.200 375.600 C 297.200 375.415,297.740 375.145,298.400 375.000 C 299.060 374.855,299.600 374.574,299.600 374.376 C 299.600 374.178,300.050 373.902,300.600 373.764 C 301.150 373.626,301.600 373.353,301.600 373.157 C 301.600 372.960,301.876 372.800,302.213 372.800 C 302.549 372.800,302.924 372.541,303.046 372.224 C 303.167 371.908,303.792 371.534,304.433 371.393 C 305.075 371.252,305.600 370.983,305.600 370.795 C 305.600 370.607,306.005 370.328,306.500 370.173 C 306.995 370.019,307.490 369.772,307.600 369.625 C 307.959 369.147,311.630 366.800,312.020 366.800 C 312.229 366.800,312.405 366.665,312.411 366.500 C 312.417 366.335,313.137 365.759,314.011 365.220 C 314.885 364.680,315.600 364.095,315.600 363.920 C 315.600 363.744,315.876 363.600,316.213 363.600 C 316.549 363.600,316.929 363.330,317.055 363.000 C 317.182 362.670,317.523 362.400,317.814 362.400 C 318.105 362.400,318.586 362.175,318.882 361.900 C 319.179 361.625,320.047 360.958,320.811 360.418 C 322.572 359.173,322.974 358.849,324.436 357.500 C 325.091 356.895,325.725 356.400,325.845 356.400 C 325.964 356.400,326.602 355.860,327.262 355.200 C 327.922 354.540,328.591 354.000,328.748 354.000 C 328.906 354.000,329.761 353.325,330.649 352.500 C 331.536 351.675,333.144 350.280,334.221 349.400 C 335.298 348.520,337.128 346.810,338.287 345.600 C 341.179 342.580,343.201 340.557,345.688 338.192 C 346.850 337.087,348.520 335.301,349.400 334.223 C 350.280 333.145,351.675 331.536,352.500 330.649 C 353.325 329.761,354.000 328.906,354.000 328.748 C 354.000 328.591,354.540 327.922,355.200 327.262 C 355.860 326.602,356.400 325.964,356.400 325.845 C 356.400 325.725,356.895 325.091,357.500 324.436 C 358.849 322.974,359.173 322.572,360.418 320.811 C 360.958 320.047,361.625 319.179,361.900 318.882 C 362.175 318.586,362.400 318.105,362.400 317.814 C 362.400 317.523,362.670 317.182,363.000 317.055 C 363.330 316.929,363.600 316.549,363.600 316.213 C 363.600 315.876,363.744 315.600,363.920 315.600 C 364.095 315.600,364.680 314.885,365.220 314.011 C 365.759 313.137,366.335 312.417,366.500 312.411 C 366.665 312.405,366.800 312.229,366.800 312.020 C 366.800 311.630,369.147 307.959,369.625 307.600 C 369.772 307.490,370.019 306.995,370.173 306.500 C 370.328 306.005,370.607 305.600,370.795 305.600 C 370.983 305.600,371.252 305.075,371.393 304.433 C 371.534 303.792,371.908 303.167,372.224 303.046 C 372.541 302.924,372.800 302.549,372.800 302.213 C 372.800 301.876,372.960 301.600,373.157 301.600 C 373.353 301.600,373.626 301.150,373.764 300.600 C 373.902 300.050,374.178 299.600,374.376 299.600 C 374.574 299.600,374.855 299.060,375.000 298.400 C 375.145 297.740,375.415 297.200,375.600 297.200 C 375.785 297.200,376.055 296.660,376.200 296.000 C 376.345 295.340,376.610 294.800,376.788 294.800 C 376.967 294.800,377.226 294.350,377.364 293.800 C 377.502 293.250,377.778 292.800,377.976 292.800 C 378.174 292.800,378.455 292.260,378.600 291.600 C 378.745 290.940,379.015 290.400,379.200 290.400 C 379.385 290.400,379.655 289.860,379.800 289.200 C 379.945 288.540,380.185 288.000,380.334 288.000 C 380.483 288.000,380.851 287.415,381.151 286.700 C 381.452 285.985,382.202 284.365,382.817 283.099 C 383.433 281.834,384.055 280.259,384.200 279.599 C 384.345 278.940,384.627 278.400,384.827 278.400 C 385.027 278.400,385.306 277.680,385.446 276.800 C 385.587 275.920,385.851 275.200,386.033 275.200 C 386.215 275.200,386.482 274.570,386.626 273.800 C 386.771 273.030,387.033 272.400,387.209 272.400 C 387.386 272.400,387.651 271.680,387.800 270.800 C 387.949 269.920,388.214 269.200,388.390 269.200 C 388.565 269.200,388.831 268.390,388.979 267.400 C 389.128 266.410,389.398 265.600,389.579 265.600 C 389.761 265.600,390.031 264.790,390.179 263.800 C 390.328 262.810,390.598 262.000,390.779 262.000 C 390.961 262.000,391.230 261.194,391.378 260.209 C 391.525 259.224,391.811 258.317,392.012 258.193 C 392.212 258.069,392.495 257.075,392.640 255.984 C 392.785 254.893,393.060 254.000,393.252 254.000 C 393.443 254.000,393.600 253.471,393.600 252.824 C 393.600 252.177,393.767 251.544,393.972 251.417 C 394.177 251.291,394.468 250.198,394.619 248.988 C 394.770 247.779,395.038 246.700,395.215 246.591 C 395.392 246.481,395.662 245.223,395.815 243.796 C 395.968 242.368,396.231 241.200,396.400 241.200 C 396.568 241.200,396.832 239.851,396.987 238.203 C 397.141 236.554,397.413 235.115,397.591 235.005 C 397.769 234.896,398.045 233.139,398.205 231.103 C 398.365 229.066,398.631 227.310,398.796 227.200 C 400.328 226.179,400.326 175.011,398.793 173.000 C 398.626 172.780,398.359 170.934,398.202 168.897 C 398.044 166.861,397.769 165.104,397.591 164.995 C 397.413 164.885,397.141 163.446,396.987 161.797 C 396.832 160.149,396.568 158.800,396.400 158.800 C 396.231 158.800,395.968 157.632,395.815 156.204 C 395.662 154.777,395.392 153.519,395.215 153.409 C 395.038 153.300,394.770 152.221,394.619 151.012 C 394.468 149.802,394.177 148.709,393.972 148.583 C 393.767 148.456,393.600 147.823,393.600 147.176 C 393.600 146.529,393.443 146.000,393.252 146.000 C 393.060 146.000,392.784 145.100,392.638 144.000 C 392.492 142.900,392.216 142.000,392.024 142.000 C 391.832 142.000,391.551 141.100,391.400 140.000 C 391.249 138.900,390.973 138.000,390.787 138.000 C 390.601 138.000,390.328 137.190,390.179 136.200 C 390.031 135.210,389.761 134.400,389.579 134.400 C 389.398 134.400,389.128 133.590,388.979 132.600 C 388.831 131.610,388.550 130.800,388.355 130.800 C 388.160 130.800,387.999 130.485,387.998 130.100 C 387.996 129.715,387.743 128.917,387.435 128.327 C 387.127 127.737,386.754 126.702,386.606 126.027 C 386.458 125.352,386.194 124.800,386.019 124.800 C 385.845 124.800,385.587 124.080,385.446 123.200 C 385.306 122.320,385.021 121.600,384.813 121.600 C 384.606 121.600,384.318 120.970,384.174 120.200 C 384.029 119.430,383.751 118.800,383.555 118.800 C 383.360 118.800,383.200 118.610,383.200 118.378 C 383.200 118.146,382.866 117.201,382.457 116.278 C 382.048 115.355,381.464 114.015,381.159 113.300 C 380.854 112.585,380.483 112.000,380.334 112.000 C 380.185 112.000,379.945 111.460,379.800 110.800 C 379.655 110.140,379.385 109.600,379.200 109.600 C 379.015 109.600,378.745 109.060,378.600 108.400 C 378.455 107.740,378.174 107.200,377.976 107.200 C 377.778 107.200,377.502 106.750,377.364 106.200 C 377.226 105.650,376.967 105.200,376.788 105.200 C 376.610 105.200,376.345 104.660,376.200 104.000 C 376.055 103.340,375.785 102.800,375.600 102.800 C 375.415 102.800,375.145 102.260,375.000 101.600 C 374.855 100.940,374.574 100.400,374.376 100.400 C 374.178 100.400,373.902 99.950,373.764 99.400 C 373.626 98.850,373.353 98.400,373.157 98.400 C 372.960 98.400,372.800 98.124,372.800 97.787 C 372.800 97.451,372.541 97.076,372.224 96.954 C 371.908 96.833,371.534 96.208,371.393 95.567 C 371.252 94.925,370.974 94.400,370.776 94.400 C 370.578 94.400,370.302 93.950,370.164 93.400 C 370.026 92.850,369.792 92.400,369.643 92.400 C 369.494 92.400,369.029 91.815,368.609 91.100 C 368.189 90.385,367.610 89.562,367.322 89.271 C 367.035 88.981,366.800 88.486,366.800 88.171 C 366.800 87.857,366.665 87.595,366.500 87.589 C 366.335 87.583,365.759 86.863,365.220 85.989 C 364.680 85.115,364.095 84.400,363.920 84.400 C 363.744 84.400,363.600 84.124,363.600 83.787 C 363.600 83.451,363.330 83.071,363.000 82.945 C 362.670 82.818,362.400 82.462,362.400 82.153 C 362.400 81.845,362.040 81.284,361.600 80.907 C 361.160 80.530,360.800 79.992,360.800 79.711 C 360.800 79.430,360.665 79.199,360.500 79.197 C 360.335 79.196,359.754 78.521,359.208 77.697 C 358.663 76.874,357.808 75.804,357.308 75.319 C 356.809 74.835,356.400 74.326,356.400 74.188 C 356.400 74.051,355.860 73.398,355.200 72.738 C 354.540 72.078,354.000 71.402,354.000 71.235 C 354.000 71.068,353.233 70.137,352.295 69.166 C 351.357 68.195,350.115 66.770,349.534 66.000 C 348.463 64.580,347.708 63.814,338.789 55.097 C 333.102 49.540,331.150 47.764,329.202 46.373 C 328.452 45.838,327.449 44.995,326.973 44.500 C 326.498 44.005,325.913 43.600,325.674 43.600 C 325.435 43.600,325.096 43.375,324.920 43.100 C 324.644 42.669,322.378 40.784,319.147 38.300 C 318.647 37.915,318.023 37.600,317.761 37.600 C 317.500 37.600,317.182 37.330,317.055 37.000 C 316.929 36.670,316.549 36.400,316.213 36.400 C 315.876 36.400,315.600 36.256,315.600 36.080 C 315.600 35.905,314.885 35.320,314.011 34.780 C 313.137 34.241,312.417 33.665,312.411 33.500 C 312.405 33.335,312.236 33.200,312.035 33.200 C 311.834 33.200,310.713 32.570,309.544 31.800 C 308.375 31.030,307.189 30.400,306.909 30.400 C 306.629 30.400,306.400 30.223,306.400 30.008 C 306.400 29.792,305.950 29.502,305.400 29.364 C 304.850 29.226,304.400 28.953,304.400 28.757 C 304.400 28.560,304.149 28.400,303.843 28.400 C 303.536 28.400,303.182 28.130,303.055 27.800 C 302.929 27.470,302.549 27.200,302.213 27.200 C 301.876 27.200,301.596 27.065,301.592 26.900 C 301.587 26.735,300.601 26.150,299.400 25.600 C 298.199 25.050,297.213 24.479,297.208 24.332 C 297.204 24.184,296.660 23.945,296.000 23.800 C 295.340 23.655,294.800 23.390,294.800 23.212 C 294.800 23.033,294.350 22.774,293.800 22.636 C 293.250 22.498,292.800 22.222,292.800 22.024 C 292.800 21.826,292.260 21.545,291.600 21.400 C 290.940 21.255,290.400 20.985,290.400 20.800 C 290.400 20.615,289.860 20.345,289.200 20.200 C 288.540 20.055,288.000 19.779,288.000 19.586 C 288.000 19.394,287.370 19.118,286.600 18.974 C 285.830 18.829,285.200 18.565,285.200 18.387 C 285.200 18.209,284.660 17.945,284.000 17.800 C 283.340 17.655,282.800 17.415,282.800 17.266 C 282.800 16.944,281.041 16.151,279.500 15.779 C 278.895 15.633,278.400 15.355,278.400 15.161 C 278.400 14.968,277.680 14.694,276.800 14.554 C 275.920 14.413,275.200 14.149,275.200 13.967 C 275.200 13.785,274.570 13.518,273.800 13.374 C 273.030 13.229,272.400 12.967,272.400 12.791 C 272.400 12.614,271.680 12.349,270.800 12.200 C 269.920 12.051,269.200 11.786,269.200 11.610 C 269.200 11.435,268.390 11.169,267.400 11.021 C 266.410 10.872,265.600 10.602,265.600 10.421 C 265.600 10.239,264.790 9.969,263.800 9.821 C 262.810 9.672,262.000 9.402,262.000 9.221 C 262.000 9.039,261.194 8.770,260.209 8.622 C 259.224 8.475,258.317 8.189,258.193 7.988 C 258.069 7.788,257.075 7.505,255.984 7.360 C 254.893 7.215,254.000 6.958,254.000 6.788 C 254.000 6.618,252.920 6.353,251.600 6.200 C 250.280 6.047,249.200 5.777,249.200 5.600 C 249.200 5.423,248.120 5.153,246.799 5.000 C 245.479 4.847,244.298 4.559,244.176 4.361 C 244.053 4.162,243.344 4.000,242.600 4.000 C 241.856 4.000,241.147 3.838,241.025 3.641 C 240.903 3.443,239.542 3.155,238.000 3.000 C 236.458 2.845,235.109 2.576,235.001 2.402 C 234.894 2.228,233.139 1.956,231.103 1.798 C 229.066 1.641,227.220 1.371,227.000 1.199 C 225.656 0.149,191.552 -0.373,179.000 0.464 M192.991 78.446 C 195.746 79.211,197.470 81.358,197.782 84.412 C 197.927 85.835,197.990 110.864,197.923 140.031 L 197.800 193.063 196.647 194.574 C 194.505 197.382,198.548 197.200,138.400 197.200 C 78.252 197.200,82.295 197.382,80.153 194.574 L 79.000 193.062 78.893 138.700 C 78.770 76.167,78.451 80.370,83.455 78.586 C 85.487 77.861,190.402 77.727,192.991 78.446 M249.799 79.169 C 254.660 81.903,254.208 85.871,248.356 91.823 C 246.180 94.035,244.400 96.060,244.400 96.323 C 244.400 96.685,248.619 96.800,261.928 96.800 C 277.678 96.800,279.820 96.878,283.038 97.565 C 303.015 101.834,317.448 116.757,320.985 136.800 C 321.440 139.377,321.587 143.534,321.593 153.965 L 321.600 167.730 320.614 169.413 C 318.457 173.093,313.462 173.482,310.400 170.207 L 309.400 169.137 309.161 155.269 C 308.916 141.023,308.595 137.558,307.136 133.400 C 302.760 120.930,292.603 112.204,279.743 109.865 C 275.342 109.065,244.400 108.853,244.400 109.624 C 244.400 109.857,246.122 111.780,248.226 113.898 C 254.189 119.900,254.704 123.542,250.035 126.688 C 246.253 129.237,245.329 128.684,233.152 116.587 C 218.482 102.014,218.497 103.769,232.924 89.285 C 244.770 77.394,245.675 76.851,249.799 79.169 M91.698 137.698 L 91.800 184.600 138.400 184.600 L 185.000 184.600 185.000 137.800 L 185.000 91.000 138.298 90.898 L 91.597 90.797 91.698 137.698 M211.946 203.893 C 217.134 207.735,214.818 215.205,208.441 215.197 C 204.579 215.193,202.406 213.034,202.404 209.200 C 202.401 204.111,208.020 200.986,211.946 203.893 M237.356 203.356 C 243.587 205.959,241.988 215.200,235.306 215.200 C 233.487 215.200,232.604 214.986,231.600 214.300 C 225.482 210.124,230.539 200.508,237.356 203.356 M265.175 203.927 C 270.211 207.657,267.829 215.200,261.615 215.200 C 254.717 215.200,252.943 205.639,259.400 203.263 C 260.982 202.681,263.954 203.023,265.175 203.927 M291.195 203.710 C 294.971 205.707,295.600 210.752,292.439 213.700 C 289.031 216.879,283.014 215.080,282.180 210.632 C 281.146 205.120,286.331 201.138,291.195 203.710 M317.661 203.535 C 320.589 204.682,322.034 209.744,320.223 212.508 C 317.631 216.464,311.276 216.089,309.228 211.859 C 306.621 206.472,311.888 201.273,317.661 203.535 M87.074 228.027 C 90.793 229.436,90.907 229.964,91.220 247.200 C 91.467 260.837,91.569 262.450,92.333 264.952 C 96.243 277.754,104.965 286.099,118.400 289.892 C 120.512 290.488,146.629 291.103,153.781 290.726 L 156.162 290.600 151.944 286.297 C 145.686 279.914,145.213 275.648,150.471 273.024 C 154.302 271.114,155.096 271.627,167.270 283.871 C 181.512 298.195,181.497 296.205,167.465 310.332 C 155.103 322.777,153.577 323.650,149.670 320.510 C 145.233 316.944,145.774 314.135,152.133 307.700 C 154.362 305.445,156.099 303.561,155.993 303.514 C 155.887 303.466,147.430 303.317,137.200 303.182 C 117.380 302.920,116.857 302.871,110.600 300.715 C 93.772 294.915,81.762 280.440,78.976 262.600 C 78.178 257.488,78.162 233.343,78.956 231.444 C 80.304 228.217,83.749 226.767,87.074 228.027 M211.198 230.116 C 216.957 232.946,215.343 241.320,208.930 241.880 C 201.835 242.501,199.710 232.185,206.433 229.755 C 208.371 229.054,209.158 229.114,211.198 230.116 M317.411 230.047 C 323.764 233.034,321.134 242.683,314.180 241.899 C 308.775 241.290,306.604 234.868,310.568 231.212 C 312.852 229.105,314.727 228.786,317.411 230.047 M211.631 256.910 C 217.227 260.681,214.950 268.400,208.242 268.400 C 201.985 268.400,200.011 259.708,205.594 256.741 C 207.520 255.717,209.964 255.786,211.631 256.910 M318.004 256.900 C 323.422 260.588,321.262 268.400,314.824 268.400 C 311.935 268.400,310.219 267.238,308.993 264.451 C 306.679 259.191,313.263 253.674,318.004 256.900 M211.800 283.571 C 214.558 285.119,215.628 289.452,213.890 292.031 C 210.099 297.658,202.400 295.408,202.400 288.672 C 202.400 283.852,207.434 281.121,211.800 283.571 M318.326 283.636 C 322.156 285.985,321.727 292.466,317.599 294.600 C 313.592 296.673,308.095 292.970,308.535 288.496 C 309.002 283.748,314.256 281.140,318.326 283.636 M211.930 310.281 C 217.627 314.500,213.767 323.366,207.022 321.553 C 199.755 319.600,201.460 308.666,208.930 309.320 C 209.992 309.412,211.341 309.845,211.930 310.281 M238.930 310.519 C 241.888 312.776,242.130 317.150,239.445 319.835 C 236.330 322.950,231.303 322.153,229.451 318.250 C 226.648 312.345,233.740 306.561,238.930 310.519 M264.244 309.848 C 270.737 312.929,267.664 322.869,260.575 321.718 C 258.620 321.401,256.036 318.994,255.616 317.100 C 254.454 311.853,259.512 307.602,264.244 309.848 M291.887 310.320 C 294.414 312.119,295.205 316.288,293.499 318.819 C 290.164 323.767,282.759 322.060,282.098 316.191 C 281.504 310.926,287.602 307.269,291.887 310.320 M317.462 309.856 C 319.689 310.913,320.971 312.926,320.971 315.364 C 320.971 322.286,312.232 324.203,309.119 317.964 C 306.589 312.893,312.256 307.386,317.462 309.856 " stroke="none" fill="#14fb7c" fill-rule="evenodd"></path></g></svg>