<svg id="svg" version="1.1" xmlns="http://www.w3.org/2000/svg" xmlns:xlink="http://www.w3.org/1999/xlink" width="400" height="400" viewBox="0, 0, 400,400"><g id="svgg"><path id="path0" d="M197.800 78.762 C 195.055 80.029,195.019 80.188,194.865 91.579 C 194.693 104.311,194.848 105.728,196.599 107.479 C 198.951 109.831,202.496 108.983,203.848 105.746 C 204.823 103.412,204.630 82.582,203.618 80.922 C 202.128 78.479,200.069 77.715,197.800 78.762 M119.505 80.226 C 117.440 81.346,116.636 84.166,117.767 86.320 C 118.879 88.438,136.481 105.454,138.102 105.978 C 141.130 106.957,144.457 103.870,143.790 100.702 C 143.495 99.300,126.090 81.316,123.920 80.170 C 122.548 79.446,120.904 79.467,119.505 80.226 M275.000 80.357 C 272.477 81.943,255.697 99.341,255.419 100.659 C 254.603 104.539,258.693 107.488,262.094 105.471 C 265.185 103.638,281.495 86.832,281.801 85.165 C 282.540 81.141,278.404 78.218,275.000 80.357 M182.400 117.600 C 180.064 117.957,178.572 118.585,177.088 119.833 C 176.355 120.450,175.638 120.743,175.244 120.586 C 164.739 116.393,152.403 126.741,154.006 138.400 C 154.356 140.947,154.405 140.869,151.835 141.827 C 145.118 144.328,140.800 151.215,141.321 158.593 L 141.557 161.940 139.787 162.542 C 131.445 165.385,126.924 174.480,129.552 183.132 C 130.024 184.687,130.588 186.069,130.805 186.203 C 131.764 186.796,131.115 187.844,129.264 188.693 C 120.190 192.856,117.650 205.252,124.139 213.703 C 124.942 214.750,125.600 215.742,125.600 215.907 C 125.600 216.073,122.095 219.710,117.810 223.990 L 110.021 231.771 108.110 231.186 C 100.812 228.948,95.954 230.804,87.754 238.964 C 80.306 246.375,78.800 249.005,78.800 254.600 C 78.800 260.383,80.450 263.136,88.948 271.523 C 95.929 278.413,97.120 278.962,99.943 276.587 C 103.313 273.751,102.652 272.164,94.784 264.199 C 85.746 255.050,85.697 254.219,93.724 246.077 C 100.114 239.595,101.884 238.715,105.513 240.214 C 108.122 241.292,160.259 293.798,160.612 295.703 C 161.541 300.726,151.445 312.400,146.170 312.400 C 143.344 312.400,142.505 311.823,136.009 305.409 C 128.753 298.244,126.937 297.428,124.125 300.070 C 121.273 302.750,122.353 305.046,130.003 312.566 C 139.196 321.603,143.492 323.342,150.731 320.958 C 153.928 319.906,154.975 319.109,161.121 313.049 C 168.689 305.587,169.725 303.842,169.934 298.211 C 170.066 294.662,169.929 293.962,168.348 290.081 L 167.810 288.761 177.205 279.424 L 186.600 270.087 188.988 269.597 C 190.828 269.219,193.308 269.205,199.788 269.535 C 204.415 269.770,209.056 269.857,210.102 269.729 L 212.004 269.496 221.827 279.248 C 229.496 286.861,231.609 289.175,231.458 289.800 C 231.352 290.240,230.964 291.410,230.595 292.400 C 228.173 298.897,230.386 304.279,238.946 312.706 C 248.869 322.475,255.410 323.959,263.341 318.238 C 266.314 316.094,317.916 264.408,319.144 262.345 C 323.729 254.640,321.961 248.298,312.611 238.914 C 303.878 230.147,299.416 228.397,291.999 230.828 L 289.165 231.757 281.383 223.983 C 272.616 215.225,273.132 216.054,275.016 213.754 C 282.146 205.053,278.688 191.848,268.259 187.947 L 265.913 187.070 266.101 184.635 C 266.739 176.352,262.968 169.930,255.741 166.992 L 253.466 166.068 253.433 161.525 C 253.380 154.207,250.242 149.246,243.846 146.368 L 240.960 145.069 240.964 140.835 C 240.972 130.885,235.152 124.896,224.603 123.998 C 222.401 123.811,216.730 122.914,212.000 122.005 C 207.270 121.096,200.970 119.916,198.000 119.382 C 195.030 118.849,191.790 118.241,190.800 118.033 C 188.159 117.476,184.454 117.285,182.400 117.600 M190.857 127.382 C 192.476 127.702,197.220 128.608,201.400 129.395 C 205.580 130.183,209.318 130.956,209.706 131.113 C 210.859 131.582,198.437 143.797,197.141 143.469 C 193.126 142.452,183.200 131.108,183.200 127.536 C 183.200 126.591,186.518 126.524,190.857 127.382 M173.157 129.778 C 173.901 130.162,174.515 130.999,174.994 132.278 C 177.867 139.946,187.774 149.951,195.376 152.860 C 201.911 155.361,199.267 164.805,192.016 164.861 C 188.860 164.886,187.902 164.122,175.516 151.696 C 162.634 138.772,162.842 139.055,163.298 135.012 C 163.793 130.620,169.217 127.740,173.157 129.778 M227.900 134.048 C 234.210 137.103,233.462 141.786,225.344 150.042 C 218.392 157.113,217.693 159.573,222.004 161.802 C 224.633 163.162,225.748 162.665,230.624 157.963 C 234.117 154.594,234.940 154.213,238.155 154.480 C 241.933 154.793,244.400 157.569,244.400 161.506 C 244.400 164.163,243.173 165.928,237.259 171.779 C 232.123 176.862,231.598 177.770,232.397 180.192 C 233.825 184.518,237.245 184.375,242.012 179.788 C 247.719 174.298,252.488 173.630,255.525 177.895 C 258.642 182.272,257.696 184.694,249.833 192.457 C 245.040 197.190,244.367 198.666,245.854 201.184 C 248.022 204.855,250.721 204.471,255.644 199.792 C 260.962 194.738,266.439 194.877,268.823 200.126 C 270.685 204.229,269.850 205.901,261.981 213.827 C 255.758 220.096,255.600 220.297,255.600 221.947 C 255.600 227.101,260.133 228.611,264.163 224.800 C 265.326 223.700,266.438 222.800,266.635 222.800 C 267.113 222.800,282.000 237.688,282.000 238.167 C 282.000 238.689,238.360 282.000,237.834 282.000 C 237.304 282.000,222.400 267.153,222.400 266.625 C 222.400 266.414,224.192 264.522,226.381 262.421 C 231.541 257.469,232.198 254.529,228.632 252.354 C 226.047 250.778,224.643 251.304,220.342 255.456 C 215.322 260.301,215.753 260.200,200.200 260.200 C 182.331 260.200,184.782 259.177,171.783 272.067 C 166.274 277.530,161.673 282.000,161.559 282.000 C 161.445 282.000,151.388 272.087,139.210 259.970 L 117.067 237.940 124.834 230.151 C 130.790 224.177,132.786 222.403,133.400 222.539 C 133.840 222.637,135.280 223.115,136.600 223.600 C 146.025 227.067,156.423 220.291,157.939 209.696 L 158.210 207.802 160.605 207.505 C 167.475 206.651,173.308 201.007,174.471 194.089 C 174.914 191.448,175.056 191.157,175.980 190.986 C 185.314 189.261,190.536 184.327,191.481 176.342 L 191.702 174.475 193.551 174.220 C 204.814 172.663,211.239 161.357,206.777 150.947 L 205.962 149.046 213.081 141.881 C 221.978 132.927,223.701 132.016,227.900 134.048 M160.451 150.576 C 162.425 151.419,181.378 170.622,181.952 172.360 C 184.048 178.715,176.858 184.116,171.178 180.453 C 167.599 178.146,151.334 161.183,150.801 159.202 C 149.227 153.359,154.962 148.232,160.451 150.576 M148.116 171.646 C 150.011 172.599,162.193 184.428,164.102 187.169 C 168.111 192.927,162.845 199.908,155.939 197.990 C 154.178 197.501,139.416 183.015,138.539 180.916 C 136.006 174.854,142.326 168.737,148.116 171.646 M139.457 196.598 C 141.394 197.407,147.128 203.018,148.043 205.000 C 150.784 210.935,144.912 217.082,138.887 214.583 C 136.943 213.777,131.321 208.246,130.365 206.200 C 127.615 200.313,133.493 194.106,139.457 196.598 M239.351 236.975 C 235.154 238.802,236.463 245.600,241.013 245.600 C 245.917 245.600,247.658 239.731,243.505 237.199 C 241.987 236.273,241.077 236.224,239.351 236.975 M298.850 239.466 C 300.476 239.787,310.565 249.411,311.451 251.487 C 312.155 253.137,312.151 255.279,311.441 256.913 C 310.717 258.579,258.184 311.016,256.674 311.580 C 253.020 312.944,251.514 312.182,245.120 305.728 C 239.129 299.681,238.315 298.023,239.620 294.526 C 240.249 292.843,292.214 240.897,294.200 239.967 C 295.942 239.151,296.789 239.060,298.850 239.466 M109.326 283.785 C 106.944 284.822,106.140 287.837,107.611 290.217 C 109.401 293.114,113.850 292.998,115.393 290.013 C 117.509 285.922,113.612 281.921,109.326 283.785 " stroke="none" fill="#040905" fill-rule="evenodd"></path><path id="path1" d="M179.000 0.464 C 176.140 0.655,173.523 0.967,173.184 1.157 C 172.845 1.346,170.909 1.633,168.881 1.794 C 166.854 1.954,165.106 2.228,164.999 2.402 C 164.891 2.576,163.542 2.845,162.000 3.000 C 160.458 3.155,159.097 3.443,158.975 3.641 C 158.853 3.838,158.133 4.000,157.376 4.000 C 156.619 4.000,156.000 4.159,156.000 4.353 C 156.000 4.548,154.830 4.832,153.400 4.985 C 151.970 5.138,150.800 5.412,150.800 5.593 C 150.800 5.773,149.720 6.047,148.400 6.200 C 147.080 6.353,146.000 6.624,146.000 6.802 C 146.000 6.979,145.100 7.249,144.000 7.400 C 142.900 7.551,142.000 7.821,142.000 8.000 C 142.000 8.179,141.100 8.449,140.000 8.600 C 138.900 8.751,138.000 9.027,138.000 9.213 C 138.000 9.399,137.190 9.672,136.200 9.821 C 135.210 9.969,134.400 10.239,134.400 10.421 C 134.400 10.602,133.590 10.872,132.600 11.021 C 131.610 11.169,130.800 11.450,130.800 11.645 C 130.800 11.840,130.485 12.001,130.100 12.002 C 129.715 12.004,128.917 12.257,128.327 12.565 C 127.737 12.873,126.702 13.246,126.027 13.394 C 125.352 13.542,124.800 13.806,124.800 13.981 C 124.800 14.155,124.080 14.413,123.200 14.554 C 122.320 14.694,121.600 14.979,121.600 15.187 C 121.600 15.394,120.970 15.682,120.200 15.826 C 119.430 15.971,118.800 16.249,118.800 16.445 C 118.800 16.640,118.530 16.800,118.200 16.800 C 117.870 16.800,117.600 16.960,117.600 17.155 C 117.600 17.351,116.970 17.629,116.200 17.774 C 115.430 17.918,114.800 18.188,114.800 18.374 C 114.800 18.559,114.170 18.829,113.400 18.974 C 112.630 19.118,112.000 19.394,112.000 19.586 C 112.000 19.779,111.460 20.055,110.800 20.200 C 110.140 20.345,109.600 20.615,109.600 20.800 C 109.600 20.985,109.060 21.255,108.400 21.400 C 107.740 21.545,107.200 21.826,107.200 22.024 C 107.200 22.222,106.750 22.498,106.200 22.636 C 105.650 22.774,105.200 23.028,105.200 23.200 C 105.200 23.372,104.707 23.637,104.104 23.788 C 103.501 23.940,102.916 24.184,102.804 24.332 C 102.611 24.585,101.873 25.004,98.300 26.889 C 97.475 27.325,96.800 27.843,96.800 28.040 C 96.800 28.238,96.530 28.400,96.200 28.400 C 95.870 28.400,95.600 28.580,95.600 28.800 C 95.600 29.020,95.343 29.200,95.029 29.200 C 94.714 29.200,94.217 29.425,93.922 29.700 C 93.628 29.975,92.702 30.551,91.864 30.979 C 91.026 31.408,89.966 32.083,89.509 32.479 C 89.052 32.876,88.435 33.200,88.139 33.200 C 87.842 33.200,87.595 33.335,87.589 33.500 C 87.583 33.665,86.863 34.241,85.989 34.780 C 85.115 35.320,84.400 35.905,84.400 36.080 C 84.400 36.256,84.124 36.400,83.787 36.400 C 83.451 36.400,83.071 36.670,82.945 37.000 C 82.818 37.330,82.462 37.600,82.153 37.600 C 81.845 37.600,81.284 37.960,80.907 38.400 C 80.530 38.840,80.007 39.200,79.744 39.200 C 79.482 39.200,79.207 39.336,79.133 39.503 C 79.060 39.670,78.190 40.430,77.200 41.192 C 76.210 41.955,75.256 42.808,75.080 43.089 C 74.904 43.370,74.565 43.600,74.326 43.600 C 74.087 43.600,73.501 44.021,73.024 44.537 C 72.546 45.052,71.851 45.644,71.479 45.852 C 68.770 47.368,47.368 68.770,45.852 71.479 C 45.644 71.851,45.052 72.546,44.537 73.024 C 44.021 73.501,43.600 74.087,43.600 74.326 C 43.600 74.565,43.370 74.904,43.089 75.080 C 42.808 75.256,41.955 76.210,41.192 77.200 C 40.430 78.190,39.670 79.060,39.503 79.133 C 39.336 79.207,39.200 79.482,39.200 79.744 C 39.200 80.007,38.840 80.530,38.400 80.907 C 37.960 81.284,37.600 81.845,37.600 82.153 C 37.600 82.462,37.330 82.818,37.000 82.945 C 36.670 83.071,36.400 83.451,36.400 83.787 C 36.400 84.124,36.256 84.400,36.080 84.400 C 35.905 84.400,35.320 85.115,34.780 85.989 C 34.241 86.863,33.665 87.583,33.500 87.589 C 33.335 87.595,33.200 87.842,33.200 88.139 C 33.200 88.435,32.876 89.052,32.479 89.509 C 32.083 89.966,31.408 91.026,30.979 91.864 C 30.551 92.702,29.975 93.628,29.700 93.922 C 29.425 94.217,29.200 94.714,29.200 95.029 C 29.200 95.343,29.020 95.600,28.800 95.600 C 28.580 95.600,28.400 95.870,28.400 96.200 C 28.400 96.530,28.238 96.800,28.040 96.800 C 27.843 96.800,27.325 97.475,26.889 98.300 C 25.004 101.873,24.585 102.611,24.332 102.804 C 24.184 102.916,23.940 103.501,23.788 104.104 C 23.637 104.707,23.372 105.200,23.200 105.200 C 23.028 105.200,22.774 105.650,22.636 106.200 C 22.498 106.750,22.222 107.200,22.024 107.200 C 21.826 107.200,21.545 107.740,21.400 108.400 C 21.255 109.060,20.985 109.600,20.800 109.600 C 20.615 109.600,20.345 110.140,20.200 110.800 C 20.055 111.460,19.779 112.000,19.586 112.000 C 19.394 112.000,19.118 112.630,18.974 113.400 C 18.829 114.170,18.559 114.800,18.374 114.800 C 18.188 114.800,17.918 115.430,17.774 116.200 C 17.629 116.970,17.351 117.600,17.155 117.600 C 16.960 117.600,16.800 117.870,16.800 118.200 C 16.800 118.530,16.640 118.800,16.445 118.800 C 16.249 118.800,15.971 119.430,15.826 120.200 C 15.682 120.970,15.394 121.600,15.187 121.600 C 14.979 121.600,14.694 122.320,14.554 123.200 C 14.413 124.080,14.155 124.800,13.981 124.800 C 13.806 124.800,13.542 125.352,13.394 126.027 C 13.246 126.702,12.873 127.737,12.565 128.327 C 12.257 128.917,12.004 129.715,12.002 130.100 C 12.001 130.485,11.840 130.800,11.645 130.800 C 11.450 130.800,11.169 131.610,11.021 132.600 C 10.872 133.590,10.602 134.400,10.421 134.400 C 10.239 134.400,9.969 135.210,9.821 136.200 C 9.672 137.190,9.399 138.000,9.213 138.000 C 9.027 138.000,8.751 138.900,8.600 140.000 C 8.449 141.100,8.179 142.000,8.000 142.000 C 7.821 142.000,7.551 142.900,7.400 144.000 C 7.249 145.100,6.979 146.000,6.802 146.000 C 6.624 146.000,6.353 147.080,6.200 148.400 C 6.047 149.720,5.773 150.800,5.593 150.800 C 5.412 150.800,5.138 151.970,4.985 153.400 C 4.832 154.830,4.548 156.000,4.353 156.000 C 4.159 156.000,4.000 156.619,4.000 157.376 C 4.000 158.133,3.838 158.853,3.641 158.975 C 3.443 159.097,3.155 160.458,3.000 162.000 C 2.845 163.542,2.576 164.891,2.402 164.999 C 2.228 165.106,1.956 166.861,1.798 168.897 C 1.641 170.934,1.374 172.780,1.207 173.000 C -0.332 175.019,-0.339 225.033,1.199 227.000 C 1.371 227.220,1.641 229.066,1.798 231.103 C 1.956 233.139,2.228 234.894,2.402 235.001 C 2.576 235.109,2.845 236.458,3.000 238.000 C 3.155 239.542,3.443 240.903,3.641 241.025 C 3.838 241.147,4.000 241.856,4.000 242.600 C 4.000 243.344,4.162 244.053,4.361 244.176 C 4.559 244.298,4.847 245.479,5.000 246.799 C 5.153 248.120,5.423 249.200,5.600 249.200 C 5.777 249.200,6.047 250.280,6.200 251.600 C 6.353 252.920,6.618 254.000,6.788 254.000 C 6.958 254.000,7.215 254.893,7.360 255.984 C 7.505 257.075,7.788 258.069,7.988 258.193 C 8.189 258.317,8.475 259.224,8.622 260.209 C 8.770 261.194,9.039 262.000,9.221 262.000 C 9.402 262.000,9.672 262.810,9.821 263.800 C 9.969 264.790,10.239 265.600,10.421 265.600 C 10.602 265.600,10.872 266.410,11.021 267.400 C 11.169 268.390,11.435 269.200,11.610 269.200 C 11.786 269.200,12.051 269.920,12.200 270.800 C 12.349 271.680,12.614 272.400,12.791 272.400 C 12.967 272.400,13.229 273.030,13.374 273.800 C 13.518 274.570,13.785 275.200,13.967 275.200 C 14.149 275.200,14.413 275.920,14.554 276.800 C 14.694 277.680,14.968 278.400,15.161 278.400 C 15.355 278.400,15.633 278.895,15.779 279.500 C 16.151 281.041,16.944 282.800,17.266 282.800 C 17.415 282.800,17.655 283.340,17.800 284.000 C 17.945 284.660,18.209 285.200,18.387 285.200 C 18.565 285.200,18.829 285.830,18.974 286.600 C 19.118 287.370,19.394 288.000,19.586 288.000 C 19.779 288.000,20.055 288.540,20.200 289.200 C 20.345 289.860,20.615 290.400,20.800 290.400 C 20.985 290.400,21.255 290.940,21.400 291.600 C 21.545 292.260,21.826 292.800,22.024 292.800 C 22.222 292.800,22.498 293.250,22.636 293.800 C 22.774 294.350,23.033 294.800,23.212 294.800 C 23.390 294.800,23.655 295.340,23.800 296.000 C 23.945 296.660,24.184 297.204,24.332 297.208 C 24.479 297.213,25.050 298.199,25.600 299.400 C 26.150 300.601,26.735 301.587,26.900 301.592 C 27.065 301.596,27.200 301.876,27.200 302.213 C 27.200 302.549,27.470 302.929,27.800 303.055 C 28.130 303.182,28.400 303.536,28.400 303.843 C 28.400 304.149,28.560 304.400,28.757 304.400 C 28.953 304.400,29.226 304.850,29.364 305.400 C 29.502 305.950,29.792 306.400,30.008 306.400 C 30.223 306.400,30.400 306.629,30.400 306.909 C 30.400 307.189,31.030 308.375,31.800 309.544 C 32.570 310.713,33.200 311.834,33.200 312.035 C 33.200 312.236,33.335 312.405,33.500 312.411 C 33.665 312.417,34.241 313.137,34.780 314.011 C 35.320 314.885,35.905 315.600,36.080 315.600 C 36.256 315.600,36.400 315.876,36.400 316.213 C 36.400 316.549,36.670 316.929,37.000 317.055 C 37.330 317.182,37.600 317.500,37.600 317.761 C 37.600 318.023,37.915 318.647,38.300 319.147 C 40.784 322.378,42.669 324.644,43.100 324.920 C 43.375 325.096,43.600 325.435,43.600 325.674 C 43.600 325.913,44.005 326.498,44.500 326.973 C 44.995 327.449,45.838 328.452,46.373 329.202 C 47.764 331.150,49.540 333.102,55.097 338.789 C 63.814 347.708,64.580 348.463,66.000 349.534 C 66.770 350.115,68.195 351.357,69.166 352.295 C 70.137 353.233,71.068 354.000,71.235 354.000 C 71.402 354.000,72.078 354.540,72.738 355.200 C 73.398 355.860,74.051 356.400,74.188 356.400 C 74.326 356.400,74.835 356.809,75.319 357.308 C 75.804 357.808,76.874 358.663,77.697 359.208 C 78.521 359.754,79.196 360.335,79.197 360.500 C 79.199 360.665,79.430 360.800,79.711 360.800 C 79.992 360.800,80.530 361.160,80.907 361.600 C 81.284 362.040,81.845 362.400,82.153 362.400 C 82.462 362.400,82.818 362.670,82.945 363.000 C 83.071 363.330,83.451 363.600,83.787 363.600 C 84.124 363.600,84.400 363.744,84.400 363.920 C 84.400 364.095,85.115 364.680,85.989 365.220 C 86.863 365.759,87.583 366.335,87.589 366.500 C 87.595 366.665,87.857 366.800,88.171 366.800 C 88.486 366.800,88.981 367.035,89.271 367.322 C 89.562 367.610,90.385 368.189,91.100 368.609 C 91.815 369.029,92.400 369.494,92.400 369.643 C 92.400 369.792,92.850 370.026,93.400 370.164 C 93.950 370.302,94.400 370.578,94.400 370.776 C 94.400 370.974,94.925 371.252,95.567 371.393 C 96.208 371.534,96.833 371.908,96.954 372.224 C 97.076 372.541,97.451 372.800,97.787 372.800 C 98.124 372.800,98.400 372.960,98.400 373.157 C 98.400 373.353,98.850 373.626,99.400 373.764 C 99.950 373.902,100.400 374.178,100.400 374.376 C 100.400 374.574,100.940 374.855,101.600 375.000 C 102.260 375.145,102.800 375.415,102.800 375.600 C 102.800 375.785,103.340 376.055,104.000 376.200 C 104.660 376.345,105.200 376.610,105.200 376.788 C 105.200 376.967,105.650 377.226,106.200 377.364 C 106.750 377.502,107.200 377.778,107.200 377.976 C 107.200 378.174,107.740 378.455,108.400 378.600 C 109.060 378.745,109.600 379.015,109.600 379.200 C 109.600 379.385,110.140 379.655,110.800 379.800 C 111.460 379.945,112.000 380.185,112.000 380.334 C 112.000 380.483,112.585 380.854,113.300 381.159 C 114.015 381.464,115.355 382.048,116.278 382.457 C 117.201 382.866,118.146 383.200,118.378 383.200 C 118.610 383.200,118.800 383.360,118.800 383.555 C 118.800 383.751,119.430 384.029,120.200 384.174 C 120.970 384.318,121.600 384.606,121.600 384.813 C 121.600 385.021,122.320 385.306,123.200 385.446 C 124.080 385.587,124.800 385.845,124.800 386.019 C 124.800 386.194,125.352 386.458,126.027 386.606 C 126.702 386.754,127.737 387.127,128.327 387.435 C 128.917 387.743,129.715 387.996,130.100 387.998 C 130.485 387.999,130.800 388.160,130.800 388.355 C 130.800 388.550,131.610 388.831,132.600 388.979 C 133.590 389.128,134.400 389.398,134.400 389.579 C 134.400 389.761,135.210 390.031,136.200 390.179 C 137.190 390.328,138.000 390.601,138.000 390.787 C 138.000 390.973,138.900 391.249,140.000 391.400 C 141.100 391.551,142.000 391.832,142.000 392.024 C 142.000 392.216,142.900 392.492,144.000 392.638 C 145.100 392.784,146.000 393.060,146.000 393.252 C 146.000 393.443,146.529 393.600,147.176 393.600 C 147.823 393.600,148.456 393.767,148.583 393.972 C 148.709 394.177,149.802 394.468,151.012 394.619 C 152.221 394.770,153.300 395.038,153.409 395.215 C 153.519 395.392,154.777 395.662,156.204 395.815 C 157.632 395.968,158.800 396.231,158.800 396.400 C 158.800 396.568,160.149 396.832,161.797 396.987 C 163.446 397.141,164.885 397.413,164.995 397.591 C 165.104 397.769,166.861 398.044,168.897 398.202 C 170.934 398.359,172.780 398.626,173.000 398.793 C 175.011 400.326,226.179 400.328,227.200 398.796 C 227.310 398.631,229.066 398.365,231.103 398.205 C 233.139 398.045,234.896 397.769,235.005 397.591 C 235.115 397.413,236.554 397.141,238.203 396.987 C 239.851 396.832,241.200 396.568,241.200 396.400 C 241.200 396.231,242.368 395.968,243.796 395.815 C 245.223 395.662,246.481 395.392,246.591 395.215 C 246.700 395.038,247.779 394.770,248.988 394.619 C 250.198 394.468,251.291 394.177,251.417 393.972 C 251.544 393.767,252.177 393.600,252.824 393.600 C 253.471 393.600,254.000 393.443,254.000 393.252 C 254.000 393.060,254.893 392.785,255.984 392.640 C 257.075 392.495,258.069 392.212,258.193 392.012 C 258.317 391.811,259.224 391.525,260.209 391.378 C 261.194 391.230,262.000 390.961,262.000 390.779 C 262.000 390.598,262.810 390.328,263.800 390.179 C 264.790 390.031,265.600 389.761,265.600 389.579 C 265.600 389.398,266.410 389.128,267.400 388.979 C 268.390 388.831,269.200 388.565,269.200 388.390 C 269.200 388.214,269.920 387.949,270.800 387.800 C 271.680 387.651,272.400 387.386,272.400 387.209 C 272.400 387.033,273.030 386.771,273.800 386.626 C 274.570 386.482,275.200 386.215,275.200 386.033 C 275.200 385.851,275.920 385.587,276.800 385.446 C 277.680 385.306,278.400 385.027,278.400 384.827 C 278.400 384.627,278.940 384.345,279.599 384.200 C 280.259 384.055,281.834 383.433,283.099 382.817 C 284.365 382.202,285.985 381.452,286.700 381.151 C 287.415 380.851,288.000 380.483,288.000 380.334 C 288.000 380.185,288.540 379.945,289.200 379.800 C 289.860 379.655,290.400 379.385,290.400 379.200 C 290.400 379.015,290.940 378.745,291.600 378.600 C 292.260 378.455,292.800 378.174,292.800 377.976 C 292.800 377.778,293.250 377.502,293.800 377.364 C 294.350 377.226,294.800 376.967,294.800 376.788 C 294.800 376.610,295.340 376.345,296.000 376.200 C 296.660 376.055,297.200 375.785,297.200 375.600 C 297.200 375.415,297.740 375.145,298.400 375.000 C 299.060 374.855,299.600 374.574,299.600 374.376 C 299.600 374.178,300.050 373.902,300.600 373.764 C 301.150 373.626,301.600 373.353,301.600 373.157 C 301.600 372.960,301.876 372.800,302.213 372.800 C 302.549 372.800,302.924 372.541,303.046 372.224 C 303.167 371.908,303.792 371.534,304.433 371.393 C 305.075 371.252,305.600 370.983,305.600 370.795 C 305.600 370.607,306.005 370.328,306.500 370.173 C 306.995 370.019,307.490 369.772,307.600 369.625 C 307.959 369.147,311.630 366.800,312.020 366.800 C 312.229 366.800,312.405 366.665,312.411 366.500 C 312.417 366.335,313.137 365.759,314.011 365.220 C 314.885 364.680,315.600 364.095,315.600 363.920 C 315.600 363.744,315.876 363.600,316.213 363.600 C 316.549 363.600,316.929 363.330,317.055 363.000 C 317.182 362.670,317.523 362.400,317.814 362.400 C 318.105 362.400,318.586 362.175,318.882 361.900 C 319.179 361.625,320.047 360.958,320.811 360.418 C 322.572 359.173,322.974 358.849,324.436 357.500 C 325.091 356.895,325.725 356.400,325.845 356.400 C 325.964 356.400,326.602 355.860,327.262 355.200 C 327.922 354.540,328.591 354.000,328.748 354.000 C 328.906 354.000,329.761 353.325,330.649 352.500 C 331.536 351.675,333.144 350.280,334.221 349.400 C 335.298 348.520,337.128 346.810,338.287 345.600 C 341.179 342.580,343.201 340.557,345.688 338.192 C 346.850 337.087,348.520 335.301,349.400 334.223 C 350.280 333.145,351.675 331.536,352.500 330.649 C 353.325 329.761,354.000 328.906,354.000 328.748 C 354.000 328.591,354.540 327.922,355.200 327.262 C 355.860 326.602,356.400 325.964,356.400 325.845 C 356.400 325.725,356.895 325.091,357.500 324.436 C 358.849 322.974,359.173 322.572,360.418 320.811 C 360.958 320.047,361.625 319.179,361.900 318.882 C 362.175 318.586,362.400 318.105,362.400 317.814 C 362.400 317.523,362.670 317.182,363.000 317.055 C 363.330 316.929,363.600 316.549,363.600 316.213 C 363.600 315.876,363.744 315.600,363.920 315.600 C 364.095 315.600,364.680 314.885,365.220 314.011 C 365.759 313.137,366.335 312.417,366.500 312.411 C 366.665 312.405,366.800 312.229,366.800 312.020 C 366.800 311.630,369.147 307.959,369.625 307.600 C 369.772 307.490,370.019 306.995,370.173 306.500 C 370.328 306.005,370.607 305.600,370.795 305.600 C 370.983 305.600,371.252 305.075,371.393 304.433 C 371.534 303.792,371.908 303.167,372.224 303.046 C 372.541 302.924,372.800 302.549,372.800 302.213 C 372.800 301.876,372.960 301.600,373.157 301.600 C 373.353 301.600,373.626 301.150,373.764 300.600 C 373.902 300.050,374.178 299.600,374.376 299.600 C 374.574 299.600,374.855 299.060,375.000 298.400 C 375.145 297.740,375.415 297.200,375.600 297.200 C 375.785 297.200,376.055 296.660,376.200 296.000 C 376.345 295.340,376.610 294.800,376.788 294.800 C 376.967 294.800,377.226 294.350,377.364 293.800 C 377.502 293.250,377.778 292.800,377.976 292.800 C 378.174 292.800,378.455 292.260,378.600 291.600 C 378.745 290.940,379.015 290.400,379.200 290.400 C 379.385 290.400,379.655 289.860,379.800 289.200 C 379.945 288.540,380.185 288.000,380.334 288.000 C 380.483 288.000,380.851 287.415,381.151 286.700 C 381.452 285.985,382.202 284.365,382.817 283.099 C 383.433 281.834,384.055 280.259,384.200 279.599 C 384.345 278.940,384.627 278.400,384.827 278.400 C 385.027 278.400,385.306 277.680,385.446 276.800 C 385.587 275.920,385.851 275.200,386.033 275.200 C 386.215 275.200,386.482 274.570,386.626 273.800 C 386.771 273.030,387.033 272.400,387.209 272.400 C 387.386 272.400,387.651 271.680,387.800 270.800 C 387.949 269.920,388.214 269.200,388.390 269.200 C 388.565 269.200,388.831 268.390,388.979 267.400 C 389.128 266.410,389.398 265.600,389.579 265.600 C 389.761 265.600,390.031 264.790,390.179 263.800 C 390.328 262.810,390.598 262.000,390.779 262.000 C 390.961 262.000,391.230 261.194,391.378 260.209 C 391.525 259.224,391.811 258.317,392.012 258.193 C 392.212 258.069,392.495 257.075,392.640 255.984 C 392.785 254.893,393.060 254.000,393.252 254.000 C 393.443 254.000,393.600 253.471,393.600 252.824 C 393.600 252.177,393.767 251.544,393.972 251.417 C 394.177 251.291,394.468 250.198,394.619 248.988 C 394.770 247.779,395.038 246.700,395.215 246.591 C 395.392 246.481,395.662 245.223,395.815 243.796 C 395.968 242.368,396.231 241.200,396.400 241.200 C 396.568 241.200,396.832 239.851,396.987 238.203 C 397.141 236.554,397.413 235.115,397.591 235.005 C 397.769 234.896,398.045 233.139,398.205 231.103 C 398.365 229.066,398.631 227.310,398.796 227.200 C 400.328 226.179,400.326 175.011,398.793 173.000 C 398.626 172.780,398.359 170.934,398.202 168.897 C 398.044 166.861,397.769 165.104,397.591 164.995 C 397.413 164.885,397.141 163.446,396.987 161.797 C 396.832 160.149,396.568 158.800,396.400 158.800 C 396.231 158.800,395.968 157.632,395.815 156.204 C 395.662 154.777,395.392 153.519,395.215 153.409 C 395.038 153.300,394.770 152.221,394.619 151.012 C 394.468 149.802,394.177 148.709,393.972 148.583 C 393.767 148.456,393.600 147.823,393.600 147.176 C 393.600 146.529,393.443 146.000,393.252 146.000 C 393.060 146.000,392.784 145.100,392.638 144.000 C 392.492 142.900,392.216 142.000,392.024 142.000 C 391.832 142.000,391.551 141.100,391.400 140.000 C 391.249 138.900,390.973 138.000,390.787 138.000 C 390.601 138.000,390.328 137.190,390.179 136.200 C 390.031 135.210,389.761 134.400,389.579 134.400 C 389.398 134.400,389.128 133.590,388.979 132.600 C 388.831 131.610,388.550 130.800,388.355 130.800 C 388.160 130.800,387.999 130.485,387.998 130.100 C 387.996 129.715,387.743 128.917,387.435 128.327 C 387.127 127.737,386.754 126.702,386.606 126.027 C 386.458 125.352,386.194 124.800,386.019 124.800 C 385.845 124.800,385.587 124.080,385.446 123.200 C 385.306 122.320,385.021 121.600,384.813 121.600 C 384.606 121.600,384.318 120.970,384.174 120.200 C 384.029 119.430,383.751 118.800,383.555 118.800 C 383.360 118.800,383.200 118.610,383.200 118.378 C 383.200 118.146,382.866 117.201,382.457 116.278 C 382.048 115.355,381.464 114.015,381.159 113.300 C 380.854 112.585,380.483 112.000,380.334 112.000 C 380.185 112.000,379.945 111.460,379.800 110.800 C 379.655 110.140,379.385 109.600,379.200 109.600 C 379.015 109.600,378.745 109.060,378.600 108.400 C 378.455 107.740,378.174 107.200,377.976 107.200 C 377.778 107.200,377.502 106.750,377.364 106.200 C 377.226 105.650,376.967 105.200,376.788 105.200 C 376.610 105.200,376.345 104.660,376.200 104.000 C 376.055 103.340,375.785 102.800,375.600 102.800 C 375.415 102.800,375.145 102.260,375.000 101.600 C 374.855 100.940,374.574 100.400,374.376 100.400 C 374.178 100.400,373.902 99.950,373.764 99.400 C 373.626 98.850,373.353 98.400,373.157 98.400 C 372.960 98.400,372.800 98.124,372.800 97.787 C 372.800 97.451,372.541 97.076,372.224 96.954 C 371.908 96.833,371.534 96.208,371.393 95.567 C 371.252 94.925,370.974 94.400,370.776 94.400 C 370.578 94.400,370.302 93.950,370.164 93.400 C 370.026 92.850,369.792 92.400,369.643 92.400 C 369.494 92.400,369.029 91.815,368.609 91.100 C 368.189 90.385,367.610 89.562,367.322 89.271 C 367.035 88.981,366.800 88.486,366.800 88.171 C 366.800 87.857,366.665 87.595,366.500 87.589 C 366.335 87.583,365.759 86.863,365.220 85.989 C 364.680 85.115,364.095 84.400,363.920 84.400 C 363.744 84.400,363.600 84.124,363.600 83.787 C 363.600 83.451,363.330 83.071,363.000 82.945 C 362.670 82.818,362.400 82.462,362.400 82.153 C 362.400 81.845,362.040 81.284,361.600 80.907 C 361.160 80.530,360.800 79.992,360.800 79.711 C 360.800 79.430,360.665 79.199,360.500 79.197 C 360.335 79.196,359.754 78.521,359.208 77.697 C 358.663 76.874,357.808 75.804,357.308 75.319 C 356.809 74.835,356.400 74.326,356.400 74.188 C 356.400 74.051,355.860 73.398,355.200 72.738 C 354.540 72.078,354.000 71.402,354.000 71.235 C 354.000 71.068,353.233 70.137,352.295 69.166 C 351.357 68.195,350.115 66.770,349.534 66.000 C 348.463 64.580,347.708 63.814,338.789 55.097 C 333.102 49.540,331.150 47.764,329.202 46.373 C 328.452 45.838,327.449 44.995,326.973 44.500 C 326.498 44.005,325.913 43.600,325.674 43.600 C 325.435 43.600,325.096 43.375,324.920 43.100 C 324.644 42.669,322.378 40.784,319.147 38.300 C 318.647 37.915,318.023 37.600,317.761 37.600 C 317.500 37.600,317.182 37.330,317.055 37.000 C 316.929 36.670,316.549 36.400,316.213 36.400 C 315.876 36.400,315.600 36.256,315.600 36.080 C 315.600 35.905,314.885 35.320,314.011 34.780 C 313.137 34.241,312.417 33.665,312.411 33.500 C 312.405 33.335,312.236 33.200,312.035 33.200 C 311.834 33.200,310.713 32.570,309.544 31.800 C 308.375 31.030,307.189 30.400,306.909 30.400 C 306.629 30.400,306.400 30.223,306.400 30.008 C 306.400 29.792,305.950 29.502,305.400 29.364 C 304.850 29.226,304.400 28.953,304.400 28.757 C 304.400 28.560,304.149 28.400,303.843 28.400 C 303.536 28.400,303.182 28.130,303.055 27.800 C 302.929 27.470,302.549 27.200,302.213 27.200 C 301.876 27.200,301.596 27.065,301.592 26.900 C 301.587 26.735,300.601 26.150,299.400 25.600 C 298.199 25.050,297.213 24.479,297.208 24.332 C 297.204 24.184,296.660 23.945,296.000 23.800 C 295.340 23.655,294.800 23.390,294.800 23.212 C 294.800 23.033,294.350 22.774,293.800 22.636 C 293.250 22.498,292.800 22.222,292.800 22.024 C 292.800 21.826,292.260 21.545,291.600 21.400 C 290.940 21.255,290.400 20.985,290.400 20.800 C 290.400 20.615,289.860 20.345,289.200 20.200 C 288.540 20.055,288.000 19.779,288.000 19.586 C 288.000 19.394,287.370 19.118,286.600 18.974 C 285.830 18.829,285.200 18.565,285.200 18.387 C 285.200 18.209,284.660 17.945,284.000 17.800 C 283.340 17.655,282.800 17.415,282.800 17.266 C 282.800 16.944,281.041 16.151,279.500 15.779 C 278.895 15.633,278.400 15.355,278.400 15.161 C 278.400 14.968,277.680 14.694,276.800 14.554 C 275.920 14.413,275.200 14.149,275.200 13.967 C 275.200 13.785,274.570 13.518,273.800 13.374 C 273.030 13.229,272.400 12.967,272.400 12.791 C 272.400 12.614,271.680 12.349,270.800 12.200 C 269.920 12.051,269.200 11.786,269.200 11.610 C 269.200 11.435,268.390 11.169,267.400 11.021 C 266.410 10.872,265.600 10.602,265.600 10.421 C 265.600 10.239,264.790 9.969,263.800 9.821 C 262.810 9.672,262.000 9.402,262.000 9.221 C 262.000 9.039,261.194 8.770,260.209 8.622 C 259.224 8.475,258.317 8.189,258.193 7.988 C 258.069 7.788,257.075 7.505,255.984 7.360 C 254.893 7.215,254.000 6.958,254.000 6.788 C 254.000 6.618,252.920 6.353,251.600 6.200 C 250.280 6.047,249.200 5.777,249.200 5.600 C 249.200 5.423,248.120 5.153,246.799 5.000 C 245.479 4.847,244.298 4.559,244.176 4.361 C 244.053 4.162,243.344 4.000,242.600 4.000 C 241.856 4.000,241.147 3.838,241.025 3.641 C 240.903 3.443,239.542 3.155,238.000 3.000 C 236.458 2.845,235.109 2.576,235.001 2.402 C 234.894 2.228,233.139 1.956,231.103 1.798 C 229.066 1.641,227.220 1.371,227.000 1.199 C 225.656 0.149,191.552 -0.373,179.000 0.464 M201.919 79.063 C 204.284 80.556,204.397 81.203,204.399 93.313 C 204.400 105.394,204.263 106.306,202.195 107.933 C 199.299 110.210,195.523 108.123,195.002 103.958 C 194.472 99.713,194.936 81.506,195.601 80.450 C 196.911 78.373,199.815 77.735,201.919 79.063 M123.920 80.170 C 126.090 81.316,143.495 99.300,143.790 100.702 C 144.457 103.870,141.130 106.957,138.102 105.978 C 136.481 105.454,118.879 88.438,117.767 86.320 C 115.689 82.362,119.969 78.084,123.920 80.170 M279.651 80.227 C 281.200 81.027,282.157 83.226,281.801 85.165 C 281.495 86.832,265.185 103.638,262.094 105.471 C 259.557 106.976,256.892 106.076,255.744 103.327 C 254.619 100.635,254.980 100.111,264.742 90.256 C 275.915 78.976,276.488 78.591,279.651 80.227 M190.800 118.033 C 191.790 118.241,195.030 118.849,198.000 119.382 C 200.970 119.916,207.270 121.096,212.000 122.005 C 216.730 122.914,222.401 123.811,224.603 123.998 C 235.152 124.896,240.972 130.885,240.964 140.835 L 240.960 145.069 243.846 146.368 C 250.242 149.246,253.380 154.207,253.433 161.525 L 253.466 166.068 255.741 166.992 C 262.968 169.930,266.739 176.352,266.101 184.635 L 265.913 187.070 268.259 187.947 C 278.688 191.848,282.146 205.053,275.016 213.754 C 273.132 216.054,272.616 215.225,281.383 223.983 L 289.165 231.757 291.999 230.828 C 299.416 228.397,303.878 230.147,312.611 238.914 C 321.961 248.298,323.729 254.640,319.144 262.345 C 317.916 264.408,266.314 316.094,263.341 318.238 C 255.410 323.959,248.869 322.475,238.946 312.706 C 230.386 304.279,228.173 298.897,230.595 292.400 C 230.964 291.410,231.352 290.240,231.458 289.800 C 231.609 289.175,229.496 286.861,221.827 279.248 L 212.004 269.496 210.102 269.729 C 209.056 269.857,204.415 269.770,199.788 269.535 C 193.308 269.205,190.828 269.219,188.988 269.597 L 186.600 270.087 177.205 279.424 L 167.810 288.761 168.348 290.081 C 169.929 293.962,170.066 294.662,169.934 298.211 C 169.725 303.842,168.689 305.587,161.121 313.049 C 154.975 319.109,153.928 319.906,150.731 320.958 C 143.492 323.342,139.196 321.603,130.003 312.566 C 122.353 305.046,121.273 302.750,124.125 300.070 C 126.937 297.428,128.753 298.244,136.009 305.409 C 145.644 314.922,146.443 314.928,155.676 305.549 C 160.751 300.393,161.283 299.331,160.612 295.703 C 160.259 293.798,108.122 241.292,105.513 240.214 C 101.884 238.715,100.114 239.595,93.724 246.077 C 85.697 254.219,85.746 255.050,94.784 264.199 C 102.652 272.164,103.313 273.751,99.943 276.587 C 97.120 278.962,95.929 278.413,88.948 271.523 C 80.450 263.136,78.800 260.383,78.800 254.600 C 78.800 249.005,80.306 246.375,87.754 238.964 C 95.954 230.804,100.812 228.948,108.110 231.186 L 110.021 231.771 117.810 223.990 C 122.095 219.710,125.600 216.073,125.600 215.907 C 125.600 215.742,124.942 214.750,124.139 213.703 C 117.650 205.252,120.190 192.856,129.264 188.693 C 131.115 187.844,131.764 186.796,130.805 186.203 C 130.588 186.069,130.024 184.687,129.552 183.132 C 126.924 174.480,131.445 165.385,139.787 162.542 L 141.557 161.940 141.321 158.593 C 140.800 151.215,145.118 144.328,151.835 141.827 C 154.405 140.869,154.356 140.947,154.006 138.400 C 152.403 126.741,164.739 116.393,175.244 120.586 C 175.638 120.743,176.355 120.450,177.088 119.833 C 179.937 117.436,184.885 116.786,190.800 118.033 M183.200 127.536 C 183.200 131.108,193.126 142.452,197.141 143.469 C 198.437 143.797,210.859 131.582,209.706 131.113 C 209.318 130.956,205.580 130.183,201.400 129.395 C 197.220 128.608,192.476 127.702,190.857 127.382 C 186.518 126.524,183.200 126.591,183.200 127.536 M166.732 130.011 C 163.948 131.481,162.701 134.557,163.380 138.275 C 163.700 140.026,186.137 163.005,188.727 164.234 C 192.782 166.158,197.642 163.901,198.814 159.548 C 199.704 156.243,198.599 154.093,195.376 152.860 C 187.774 149.951,177.867 139.946,174.994 132.278 C 173.849 129.219,170.151 128.205,166.732 130.011 M221.800 133.967 C 220.825 134.424,217.421 137.514,213.081 141.881 L 205.962 149.046 206.777 150.947 C 211.239 161.357,204.814 172.663,193.551 174.220 L 191.702 174.475 191.481 176.342 C 190.536 184.327,185.314 189.261,175.980 190.986 C 175.056 191.157,174.914 191.448,174.471 194.089 C 173.308 201.007,167.475 206.651,160.605 207.505 L 158.210 207.802 157.939 209.696 C 156.423 220.291,146.025 227.067,136.600 223.600 C 135.280 223.115,133.840 222.637,133.400 222.539 C 132.786 222.403,130.790 224.177,124.834 230.151 L 117.067 237.940 139.210 259.970 C 151.388 272.087,161.445 282.000,161.559 282.000 C 161.673 282.000,166.274 277.530,171.783 272.067 C 184.782 259.177,182.331 260.200,200.200 260.200 C 215.753 260.200,215.322 260.301,220.342 255.456 C 224.643 251.304,226.047 250.778,228.632 252.354 C 232.198 254.529,231.541 257.469,226.381 262.421 C 224.192 264.522,222.400 266.414,222.400 266.625 C 222.400 267.153,237.304 282.000,237.834 282.000 C 238.360 282.000,282.000 238.689,282.000 238.167 C 282.000 237.688,267.113 222.800,266.635 222.800 C 266.438 222.800,265.326 223.700,264.163 224.800 C 260.133 228.611,255.600 227.101,255.600 221.947 C 255.600 220.297,255.758 220.096,261.981 213.827 C 269.850 205.901,270.685 204.229,268.823 200.126 C 266.439 194.877,260.962 194.738,255.644 199.792 C 250.721 204.471,248.022 204.855,245.854 201.184 C 244.367 198.666,245.040 197.190,249.833 192.457 C 257.696 184.694,258.642 182.272,255.525 177.895 C 252.488 173.630,247.719 174.298,242.012 179.788 C 237.245 184.375,233.825 184.518,232.397 180.192 C 231.598 177.770,232.123 176.862,237.259 171.779 C 243.173 165.928,244.400 164.163,244.400 161.506 C 244.400 157.569,241.933 154.793,238.155 154.480 C 234.940 154.213,234.117 154.594,230.624 157.963 C 225.748 162.665,224.633 163.162,222.004 161.802 C 217.693 159.573,218.392 157.113,225.344 150.042 C 229.493 145.823,231.228 143.770,231.591 142.653 C 233.496 136.786,227.375 131.356,221.800 133.967 M154.526 150.777 C 151.454 152.172,149.871 155.751,150.801 159.202 C 151.334 161.183,167.599 178.146,171.178 180.453 C 176.858 184.116,184.048 178.715,181.952 172.360 C 181.378 170.622,162.425 151.419,160.451 150.576 C 158.621 149.795,156.535 149.866,154.526 150.777 M142.400 171.469 C 138.713 173.060,137.004 177.241,138.539 180.916 C 139.416 183.015,154.178 197.501,155.939 197.990 C 161.143 199.435,165.326 196.397,165.331 191.169 C 165.334 188.162,164.449 186.959,156.335 178.946 C 148.122 170.836,146.226 169.818,142.400 171.469 M133.800 196.752 C 128.034 199.400,128.214 204.957,134.256 210.883 C 139.210 215.741,142.952 216.473,146.542 213.285 C 150.242 209.999,149.377 205.404,144.096 200.298 C 139.610 195.961,137.275 195.157,133.800 196.752 M243.505 237.199 C 247.658 239.731,245.917 245.600,241.013 245.600 C 239.848 245.600,239.221 245.301,238.160 244.240 C 234.353 240.433,238.927 234.407,243.505 237.199 M294.200 239.967 C 292.214 240.897,240.249 292.843,239.620 294.526 C 238.315 298.023,239.129 299.681,245.120 305.728 C 251.514 312.182,253.020 312.944,256.674 311.580 C 258.184 311.016,310.717 258.579,311.441 256.913 C 313.023 253.271,312.075 251.347,305.551 244.966 C 299.270 238.823,297.916 238.226,294.200 239.967 M113.613 283.807 C 114.944 284.495,116.000 286.261,116.000 287.800 C 116.000 292.288,109.965 294.027,107.611 290.217 C 105.115 286.179,109.384 281.620,113.613 283.807 " stroke="none" fill="#14fb7c" fill-rule="evenodd"></path></g></svg>