<svg id="svg" version="1.1" xmlns="http://www.w3.org/2000/svg" xmlns:xlink="http://www.w3.org/1999/xlink" width="400" height="400" viewBox="0, 0, 400,400"><g id="svgg"><path id="path0" d="M179.000 0.464 C 176.140 0.655,173.523 0.967,173.184 1.157 C 172.845 1.346,170.909 1.633,168.881 1.794 C 166.854 1.954,165.106 2.228,164.999 2.402 C 164.891 2.576,163.542 2.845,162.000 3.000 C 160.458 3.155,159.097 3.443,158.975 3.641 C 158.853 3.838,158.133 4.000,157.376 4.000 C 156.619 4.000,156.000 4.159,156.000 4.353 C 156.000 4.548,154.830 4.832,153.400 4.985 C 151.970 5.138,150.800 5.412,150.800 5.593 C 150.800 5.773,149.720 6.047,148.400 6.200 C 147.080 6.353,146.000 6.624,146.000 6.802 C 146.000 6.979,145.100 7.249,144.000 7.400 C 142.900 7.551,142.000 7.821,142.000 8.000 C 142.000 8.179,141.100 8.449,140.000 8.600 C 138.900 8.751,138.000 9.027,138.000 9.213 C 138.000 9.399,137.190 9.672,136.200 9.821 C 135.210 9.969,134.400 10.239,134.400 10.421 C 134.400 10.602,133.590 10.872,132.600 11.021 C 131.610 11.169,130.800 11.450,130.800 11.645 C 130.800 11.840,130.485 12.001,130.100 12.002 C 129.715 12.004,128.917 12.257,128.327 12.565 C 127.737 12.873,126.702 13.246,126.027 13.394 C 125.352 13.542,124.800 13.806,124.800 13.981 C 124.800 14.155,124.080 14.413,123.200 14.554 C 122.320 14.694,121.600 14.979,121.600 15.187 C 121.600 15.394,120.970 15.682,120.200 15.826 C 119.430 15.971,118.800 16.249,118.800 16.445 C 118.800 16.640,118.530 16.800,118.200 16.800 C 117.870 16.800,117.600 16.960,117.600 17.155 C 117.600 17.351,116.970 17.629,116.200 17.774 C 115.430 17.918,114.800 18.188,114.800 18.374 C 114.800 18.559,114.170 18.829,113.400 18.974 C 112.630 19.118,112.000 19.394,112.000 19.586 C 112.000 19.779,111.460 20.055,110.800 20.200 C 110.140 20.345,109.600 20.615,109.600 20.800 C 109.600 20.985,109.060 21.255,108.400 21.400 C 107.740 21.545,107.200 21.826,107.200 22.024 C 107.200 22.222,106.750 22.498,106.200 22.636 C 105.650 22.774,105.200 23.028,105.200 23.200 C 105.200 23.372,104.707 23.637,104.104 23.788 C 103.501 23.940,102.916 24.184,102.804 24.332 C 102.611 24.585,101.873 25.004,98.300 26.889 C 97.475 27.325,96.800 27.843,96.800 28.040 C 96.800 28.238,96.530 28.400,96.200 28.400 C 95.870 28.400,95.600 28.580,95.600 28.800 C 95.600 29.020,95.343 29.200,95.029 29.200 C 94.714 29.200,94.217 29.425,93.922 29.700 C 93.628 29.975,92.702 30.551,91.864 30.979 C 91.026 31.408,89.966 32.083,89.509 32.479 C 89.052 32.876,88.435 33.200,88.139 33.200 C 87.842 33.200,87.595 33.335,87.589 33.500 C 87.583 33.665,86.863 34.241,85.989 34.780 C 85.115 35.320,84.400 35.905,84.400 36.080 C 84.400 36.256,84.124 36.400,83.787 36.400 C 83.451 36.400,83.071 36.670,82.945 37.000 C 82.818 37.330,82.462 37.600,82.153 37.600 C 81.845 37.600,81.284 37.960,80.907 38.400 C 80.530 38.840,80.007 39.200,79.744 39.200 C 79.482 39.200,79.207 39.336,79.133 39.503 C 79.060 39.670,78.190 40.430,77.200 41.192 C 76.210 41.955,75.256 42.808,75.080 43.089 C 74.904 43.370,74.565 43.600,74.326 43.600 C 74.087 43.600,73.501 44.021,73.024 44.537 C 72.546 45.052,71.851 45.644,71.479 45.852 C 68.770 47.368,47.368 68.770,45.852 71.479 C 45.644 71.851,45.052 72.546,44.537 73.024 C 44.021 73.501,43.600 74.087,43.600 74.326 C 43.600 74.565,43.370 74.904,43.089 75.080 C 42.808 75.256,41.955 76.210,41.192 77.200 C 40.430 78.190,39.670 79.060,39.503 79.133 C 39.336 79.207,39.200 79.482,39.200 79.744 C 39.200 80.007,38.840 80.530,38.400 80.907 C 37.960 81.284,37.600 81.845,37.600 82.153 C 37.600 82.462,37.330 82.818,37.000 82.945 C 36.670 83.071,36.400 83.451,36.400 83.787 C 36.400 84.124,36.256 84.400,36.080 84.400 C 35.905 84.400,35.320 85.115,34.780 85.989 C 34.241 86.863,33.665 87.583,33.500 87.589 C 33.335 87.595,33.200 87.842,33.200 88.139 C 33.200 88.435,32.876 89.052,32.479 89.509 C 32.083 89.966,31.408 91.026,30.979 91.864 C 30.551 92.702,29.975 93.628,29.700 93.922 C 29.425 94.217,29.200 94.714,29.200 95.029 C 29.200 95.343,29.020 95.600,28.800 95.600 C 28.580 95.600,28.400 95.870,28.400 96.200 C 28.400 96.530,28.238 96.800,28.040 96.800 C 27.843 96.800,27.325 97.475,26.889 98.300 C 25.004 101.873,24.585 102.611,24.332 102.804 C 24.184 102.916,23.940 103.501,23.788 104.104 C 23.637 104.707,23.372 105.200,23.200 105.200 C 23.028 105.200,22.774 105.650,22.636 106.200 C 22.498 106.750,22.222 107.200,22.024 107.200 C 21.826 107.200,21.545 107.740,21.400 108.400 C 21.255 109.060,20.985 109.600,20.800 109.600 C 20.615 109.600,20.345 110.140,20.200 110.800 C 20.055 111.460,19.779 112.000,19.586 112.000 C 19.394 112.000,19.118 112.630,18.974 113.400 C 18.829 114.170,18.559 114.800,18.374 114.800 C 18.188 114.800,17.918 115.430,17.774 116.200 C 17.629 116.970,17.351 117.600,17.155 117.600 C 16.960 117.600,16.800 117.870,16.800 118.200 C 16.800 118.530,16.640 118.800,16.445 118.800 C 16.249 118.800,15.971 119.430,15.826 120.200 C 15.682 120.970,15.394 121.600,15.187 121.600 C 14.979 121.600,14.694 122.320,14.554 123.200 C 14.413 124.080,14.155 124.800,13.981 124.800 C 13.806 124.800,13.542 125.352,13.394 126.027 C 13.246 126.702,12.873 127.737,12.565 128.327 C 12.257 128.917,12.004 129.715,12.002 130.100 C 12.001 130.485,11.840 130.800,11.645 130.800 C 11.450 130.800,11.169 131.610,11.021 132.600 C 10.872 133.590,10.602 134.400,10.421 134.400 C 10.239 134.400,9.969 135.210,9.821 136.200 C 9.672 137.190,9.399 138.000,9.213 138.000 C 9.027 138.000,8.751 138.900,8.600 140.000 C 8.449 141.100,8.179 142.000,8.000 142.000 C 7.821 142.000,7.551 142.900,7.400 144.000 C 7.249 145.100,6.979 146.000,6.802 146.000 C 6.624 146.000,6.353 147.080,6.200 148.400 C 6.047 149.720,5.773 150.800,5.593 150.800 C 5.412 150.800,5.138 151.970,4.985 153.400 C 4.832 154.830,4.548 156.000,4.353 156.000 C 4.159 156.000,4.000 156.619,4.000 157.376 C 4.000 158.133,3.838 158.853,3.641 158.975 C 3.443 159.097,3.155 160.458,3.000 162.000 C 2.845 163.542,2.576 164.891,2.402 164.999 C 2.228 165.106,1.956 166.861,1.798 168.897 C 1.641 170.934,1.374 172.780,1.207 173.000 C -0.332 175.019,-0.339 225.033,1.199 227.000 C 1.371 227.220,1.641 229.066,1.798 231.103 C 1.956 233.139,2.228 234.894,2.402 235.001 C 2.576 235.109,2.845 236.458,3.000 238.000 C 3.155 239.542,3.443 240.903,3.641 241.025 C 3.838 241.147,4.000 241.856,4.000 242.600 C 4.000 243.344,4.162 244.053,4.361 244.176 C 4.559 244.298,4.847 245.479,5.000 246.799 C 5.153 248.120,5.423 249.200,5.600 249.200 C 5.777 249.200,6.047 250.280,6.200 251.600 C 6.353 252.920,6.618 254.000,6.788 254.000 C 6.958 254.000,7.215 254.893,7.360 255.984 C 7.505 257.075,7.788 258.069,7.988 258.193 C 8.189 258.317,8.475 259.224,8.622 260.209 C 8.770 261.194,9.039 262.000,9.221 262.000 C 9.402 262.000,9.672 262.810,9.821 263.800 C 9.969 264.790,10.239 265.600,10.421 265.600 C 10.602 265.600,10.872 266.410,11.021 267.400 C 11.169 268.390,11.435 269.200,11.610 269.200 C 11.786 269.200,12.051 269.920,12.200 270.800 C 12.349 271.680,12.614 272.400,12.791 272.400 C 12.967 272.400,13.229 273.030,13.374 273.800 C 13.518 274.570,13.785 275.200,13.967 275.200 C 14.149 275.200,14.413 275.920,14.554 276.800 C 14.694 277.680,14.968 278.400,15.161 278.400 C 15.355 278.400,15.633 278.895,15.779 279.500 C 16.151 281.041,16.944 282.800,17.266 282.800 C 17.415 282.800,17.655 283.340,17.800 284.000 C 17.945 284.660,18.209 285.200,18.387 285.200 C 18.565 285.200,18.829 285.830,18.974 286.600 C 19.118 287.370,19.394 288.000,19.586 288.000 C 19.779 288.000,20.055 288.540,20.200 289.200 C 20.345 289.860,20.615 290.400,20.800 290.400 C 20.985 290.400,21.255 290.940,21.400 291.600 C 21.545 292.260,21.826 292.800,22.024 292.800 C 22.222 292.800,22.498 293.250,22.636 293.800 C 22.774 294.350,23.033 294.800,23.212 294.800 C 23.390 294.800,23.655 295.340,23.800 296.000 C 23.945 296.660,24.184 297.204,24.332 297.208 C 24.479 297.213,25.050 298.199,25.600 299.400 C 26.150 300.601,26.735 301.587,26.900 301.592 C 27.065 301.596,27.200 301.876,27.200 302.213 C 27.200 302.549,27.470 302.929,27.800 303.055 C 28.130 303.182,28.400 303.536,28.400 303.843 C 28.400 304.149,28.560 304.400,28.757 304.400 C 28.953 304.400,29.226 304.850,29.364 305.400 C 29.502 305.950,29.792 306.400,30.008 306.400 C 30.223 306.400,30.400 306.629,30.400 306.909 C 30.400 307.189,31.030 308.375,31.800 309.544 C 32.570 310.713,33.200 311.834,33.200 312.035 C 33.200 312.236,33.335 312.405,33.500 312.411 C 33.665 312.417,34.241 313.137,34.780 314.011 C 35.320 314.885,35.905 315.600,36.080 315.600 C 36.256 315.600,36.400 315.876,36.400 316.213 C 36.400 316.549,36.670 316.929,37.000 317.055 C 37.330 317.182,37.600 317.500,37.600 317.761 C 37.600 318.023,37.915 318.647,38.300 319.147 C 40.784 322.378,42.669 324.644,43.100 324.920 C 43.375 325.096,43.600 325.435,43.600 325.674 C 43.600 325.913,44.005 326.498,44.500 326.973 C 44.995 327.449,45.838 328.452,46.373 329.202 C 47.764 331.150,49.540 333.102,55.097 338.789 C 63.814 347.708,64.580 348.463,66.000 349.534 C 66.770 350.115,68.195 351.357,69.166 352.295 C 70.137 353.233,71.068 354.000,71.235 354.000 C 71.402 354.000,72.078 354.540,72.738 355.200 C 73.398 355.860,74.051 356.400,74.188 356.400 C 74.326 356.400,74.835 356.809,75.319 357.308 C 75.804 357.808,76.874 358.663,77.697 359.208 C 78.521 359.754,79.196 360.335,79.197 360.500 C 79.199 360.665,79.430 360.800,79.711 360.800 C 79.992 360.800,80.530 361.160,80.907 361.600 C 81.284 362.040,81.845 362.400,82.153 362.400 C 82.462 362.400,82.818 362.670,82.945 363.000 C 83.071 363.330,83.451 363.600,83.787 363.600 C 84.124 363.600,84.400 363.744,84.400 363.920 C 84.400 364.095,85.115 364.680,85.989 365.220 C 86.863 365.759,87.583 366.335,87.589 366.500 C 87.595 366.665,87.857 366.800,88.171 366.800 C 88.486 366.800,88.981 367.035,89.271 367.322 C 89.562 367.610,90.385 368.189,91.100 368.609 C 91.815 369.029,92.400 369.494,92.400 369.643 C 92.400 369.792,92.850 370.026,93.400 370.164 C 93.950 370.302,94.400 370.578,94.400 370.776 C 94.400 370.974,94.925 371.252,95.567 371.393 C 96.208 371.534,96.833 371.908,96.954 372.224 C 97.076 372.541,97.451 372.800,97.787 372.800 C 98.124 372.800,98.400 372.960,98.400 373.157 C 98.400 373.353,98.850 373.626,99.400 373.764 C 99.950 373.902,100.400 374.178,100.400 374.376 C 100.400 374.574,100.940 374.855,101.600 375.000 C 102.260 375.145,102.800 375.415,102.800 375.600 C 102.800 375.785,103.340 376.055,104.000 376.200 C 104.660 376.345,105.200 376.610,105.200 376.788 C 105.200 376.967,105.650 377.226,106.200 377.364 C 106.750 377.502,107.200 377.778,107.200 377.976 C 107.200 378.174,107.740 378.455,108.400 378.600 C 109.060 378.745,109.600 379.015,109.600 379.200 C 109.600 379.385,110.140 379.655,110.800 379.800 C 111.460 379.945,112.000 380.185,112.000 380.334 C 112.000 380.483,112.585 380.854,113.300 381.159 C 114.015 381.464,115.355 382.048,116.278 382.457 C 117.201 382.866,118.146 383.200,118.378 383.200 C 118.610 383.200,118.800 383.360,118.800 383.555 C 118.800 383.751,119.430 384.029,120.200 384.174 C 120.970 384.318,121.600 384.606,121.600 384.813 C 121.600 385.021,122.320 385.306,123.200 385.446 C 124.080 385.587,124.800 385.845,124.800 386.019 C 124.800 386.194,125.352 386.458,126.027 386.606 C 126.702 386.754,127.737 387.127,128.327 387.435 C 128.917 387.743,129.715 387.996,130.100 387.998 C 130.485 387.999,130.800 388.160,130.800 388.355 C 130.800 388.550,131.610 388.831,132.600 388.979 C 133.590 389.128,134.400 389.398,134.400 389.579 C 134.400 389.761,135.210 390.031,136.200 390.179 C 137.190 390.328,138.000 390.601,138.000 390.787 C 138.000 390.973,138.900 391.249,140.000 391.400 C 141.100 391.551,142.000 391.832,142.000 392.024 C 142.000 392.216,142.900 392.492,144.000 392.638 C 145.100 392.784,146.000 393.060,146.000 393.252 C 146.000 393.443,146.529 393.600,147.176 393.600 C 147.823 393.600,148.456 393.767,148.583 393.972 C 148.709 394.177,149.802 394.468,151.012 394.619 C 152.221 394.770,153.300 395.038,153.409 395.215 C 153.519 395.392,154.777 395.662,156.204 395.815 C 157.632 395.968,158.800 396.231,158.800 396.400 C 158.800 396.568,160.149 396.832,161.797 396.987 C 163.446 397.141,164.885 397.413,164.995 397.591 C 165.104 397.769,166.861 398.044,168.897 398.202 C 170.934 398.359,172.780 398.626,173.000 398.793 C 175.011 400.326,226.179 400.328,227.200 398.796 C 227.310 398.631,229.066 398.365,231.103 398.205 C 233.139 398.045,234.896 397.769,235.005 397.591 C 235.115 397.413,236.554 397.141,238.203 396.987 C 239.851 396.832,241.200 396.568,241.200 396.400 C 241.200 396.231,242.368 395.968,243.796 395.815 C 245.223 395.662,246.481 395.392,246.591 395.215 C 246.700 395.038,247.779 394.770,248.988 394.619 C 250.198 394.468,251.291 394.177,251.417 393.972 C 251.544 393.767,252.177 393.600,252.824 393.600 C 253.471 393.600,254.000 393.443,254.000 393.252 C 254.000 393.060,254.893 392.785,255.984 392.640 C 257.075 392.495,258.069 392.212,258.193 392.012 C 258.317 391.811,259.224 391.525,260.209 391.378 C 261.194 391.230,262.000 390.961,262.000 390.779 C 262.000 390.598,262.810 390.328,263.800 390.179 C 264.790 390.031,265.600 389.761,265.600 389.579 C 265.600 389.398,266.410 389.128,267.400 388.979 C 268.390 388.831,269.200 388.565,269.200 388.390 C 269.200 388.214,269.920 387.949,270.800 387.800 C 271.680 387.651,272.400 387.386,272.400 387.209 C 272.400 387.033,273.030 386.771,273.800 386.626 C 274.570 386.482,275.200 386.215,275.200 386.033 C 275.200 385.851,275.920 385.587,276.800 385.446 C 277.680 385.306,278.400 385.027,278.400 384.827 C 278.400 384.627,278.940 384.345,279.599 384.200 C 280.259 384.055,281.834 383.433,283.099 382.817 C 284.365 382.202,285.985 381.452,286.700 381.151 C 287.415 380.851,288.000 380.483,288.000 380.334 C 288.000 380.185,288.540 379.945,289.200 379.800 C 289.860 379.655,290.400 379.385,290.400 379.200 C 290.400 379.015,290.940 378.745,291.600 378.600 C 292.260 378.455,292.800 378.174,292.800 377.976 C 292.800 377.778,293.250 377.502,293.800 377.364 C 294.350 377.226,294.800 376.967,294.800 376.788 C 294.800 376.610,295.340 376.345,296.000 376.200 C 296.660 376.055,297.200 375.785,297.200 375.600 C 297.200 375.415,297.740 375.145,298.400 375.000 C 299.060 374.855,299.600 374.574,299.600 374.376 C 299.600 374.178,300.050 373.902,300.600 373.764 C 301.150 373.626,301.600 373.353,301.600 373.157 C 301.600 372.960,301.876 372.800,302.213 372.800 C 302.549 372.800,302.924 372.541,303.046 372.224 C 303.167 371.908,303.792 371.534,304.433 371.393 C 305.075 371.252,305.600 370.983,305.600 370.795 C 305.600 370.607,306.005 370.328,306.500 370.173 C 306.995 370.019,307.490 369.772,307.600 369.625 C 307.959 369.147,311.630 366.800,312.020 366.800 C 312.229 366.800,312.405 366.665,312.411 366.500 C 312.417 366.335,313.137 365.759,314.011 365.220 C 314.885 364.680,315.600 364.095,315.600 363.920 C 315.600 363.744,315.876 363.600,316.213 363.600 C 316.549 363.600,316.929 363.330,317.055 363.000 C 317.182 362.670,317.523 362.400,317.814 362.400 C 318.105 362.400,318.586 362.175,318.882 361.900 C 319.179 361.625,320.047 360.958,320.811 360.418 C 322.572 359.173,322.974 358.849,324.436 357.500 C 325.091 356.895,325.725 356.400,325.845 356.400 C 325.964 356.400,326.602 355.860,327.262 355.200 C 327.922 354.540,328.591 354.000,328.748 354.000 C 328.906 354.000,329.761 353.325,330.649 352.500 C 331.536 351.675,333.144 350.280,334.221 349.400 C 335.298 348.520,337.128 346.810,338.287 345.600 C 341.179 342.580,343.201 340.557,345.688 338.192 C 346.850 337.087,348.520 335.301,349.400 334.223 C 350.280 333.145,351.675 331.536,352.500 330.649 C 353.325 329.761,354.000 328.906,354.000 328.748 C 354.000 328.591,354.540 327.922,355.200 327.262 C 355.860 326.602,356.400 325.964,356.400 325.845 C 356.400 325.725,356.895 325.091,357.500 324.436 C 358.849 322.974,359.173 322.572,360.418 320.811 C 360.958 320.047,361.625 319.179,361.900 318.882 C 362.175 318.586,362.400 318.105,362.400 317.814 C 362.400 317.523,362.670 317.182,363.000 317.055 C 363.330 316.929,363.600 316.549,363.600 316.213 C 363.600 315.876,363.744 315.600,363.920 315.600 C 364.095 315.600,364.680 314.885,365.220 314.011 C 365.759 313.137,366.335 312.417,366.500 312.411 C 366.665 312.405,366.800 312.229,366.800 312.020 C 366.800 311.630,369.147 307.959,369.625 307.600 C 369.772 307.490,370.019 306.995,370.173 306.500 C 370.328 306.005,370.607 305.600,370.795 305.600 C 370.983 305.600,371.252 305.075,371.393 304.433 C 371.534 303.792,371.908 303.167,372.224 303.046 C 372.541 302.924,372.800 302.549,372.800 302.213 C 372.800 301.876,372.960 301.600,373.157 301.600 C 373.353 301.600,373.626 301.150,373.764 300.600 C 373.902 300.050,374.178 299.600,374.376 299.600 C 374.574 299.600,374.855 299.060,375.000 298.400 C 375.145 297.740,375.415 297.200,375.600 297.200 C 375.785 297.200,376.055 296.660,376.200 296.000 C 376.345 295.340,376.610 294.800,376.788 294.800 C 376.967 294.800,377.226 294.350,377.364 293.800 C 377.502 293.250,377.778 292.800,377.976 292.800 C 378.174 292.800,378.455 292.260,378.600 291.600 C 378.745 290.940,379.015 290.400,379.200 290.400 C 379.385 290.400,379.655 289.860,379.800 289.200 C 379.945 288.540,380.185 288.000,380.334 288.000 C 380.483 288.000,380.851 287.415,381.151 286.700 C 381.452 285.985,382.202 284.365,382.817 283.099 C 383.433 281.834,384.055 280.259,384.200 279.599 C 384.345 278.940,384.627 278.400,384.827 278.400 C 385.027 278.400,385.306 277.680,385.446 276.800 C 385.587 275.920,385.851 275.200,386.033 275.200 C 386.215 275.200,386.482 274.570,386.626 273.800 C 386.771 273.030,387.033 272.400,387.209 272.400 C 387.386 272.400,387.651 271.680,387.800 270.800 C 387.949 269.920,388.214 269.200,388.390 269.200 C 388.565 269.200,388.831 268.390,388.979 267.400 C 389.128 266.410,389.398 265.600,389.579 265.600 C 389.761 265.600,390.031 264.790,390.179 263.800 C 390.328 262.810,390.598 262.000,390.779 262.000 C 390.961 262.000,391.230 261.194,391.378 260.209 C 391.525 259.224,391.811 258.317,392.012 258.193 C 392.212 258.069,392.495 257.075,392.640 255.984 C 392.785 254.893,393.060 254.000,393.252 254.000 C 393.443 254.000,393.600 253.471,393.600 252.824 C 393.600 252.177,393.767 251.544,393.972 251.417 C 394.177 251.291,394.468 250.198,394.619 248.988 C 394.770 247.779,395.038 246.700,395.215 246.591 C 395.392 246.481,395.662 245.223,395.815 243.796 C 395.968 242.368,396.231 241.200,396.400 241.200 C 396.568 241.200,396.832 239.851,396.987 238.203 C 397.141 236.554,397.413 235.115,397.591 235.005 C 397.769 234.896,398.045 233.139,398.205 231.103 C 398.365 229.066,398.631 227.310,398.796 227.200 C 400.328 226.179,400.326 175.011,398.793 173.000 C 398.626 172.780,398.359 170.934,398.202 168.897 C 398.044 166.861,397.769 165.104,397.591 164.995 C 397.413 164.885,397.141 163.446,396.987 161.797 C 396.832 160.149,396.568 158.800,396.400 158.800 C 396.231 158.800,395.968 157.632,395.815 156.204 C 395.662 154.777,395.392 153.519,395.215 153.409 C 395.038 153.300,394.770 152.221,394.619 151.012 C 394.468 149.802,394.177 148.709,393.972 148.583 C 393.767 148.456,393.600 147.823,393.600 147.176 C 393.600 146.529,393.443 146.000,393.252 146.000 C 393.060 146.000,392.784 145.100,392.638 144.000 C 392.492 142.900,392.216 142.000,392.024 142.000 C 391.832 142.000,391.551 141.100,391.400 140.000 C 391.249 138.900,390.973 138.000,390.787 138.000 C 390.601 138.000,390.328 137.190,390.179 136.200 C 390.031 135.210,389.761 134.400,389.579 134.400 C 389.398 134.400,389.128 133.590,388.979 132.600 C 388.831 131.610,388.550 130.800,388.355 130.800 C 388.160 130.800,387.999 130.485,387.998 130.100 C 387.996 129.715,387.743 128.917,387.435 128.327 C 387.127 127.737,386.754 126.702,386.606 126.027 C 386.458 125.352,386.194 124.800,386.019 124.800 C 385.845 124.800,385.587 124.080,385.446 123.200 C 385.306 122.320,385.021 121.600,384.813 121.600 C 384.606 121.600,384.318 120.970,384.174 120.200 C 384.029 119.430,383.751 118.800,383.555 118.800 C 383.360 118.800,383.200 118.610,383.200 118.378 C 383.200 118.146,382.866 117.201,382.457 116.278 C 382.048 115.355,381.464 114.015,381.159 113.300 C 380.854 112.585,380.483 112.000,380.334 112.000 C 380.185 112.000,379.945 111.460,379.800 110.800 C 379.655 110.140,379.385 109.600,379.200 109.600 C 379.015 109.600,378.745 109.060,378.600 108.400 C 378.455 107.740,378.174 107.200,377.976 107.200 C 377.778 107.200,377.502 106.750,377.364 106.200 C 377.226 105.650,376.967 105.200,376.788 105.200 C 376.610 105.200,376.345 104.660,376.200 104.000 C 376.055 103.340,375.785 102.800,375.600 102.800 C 375.415 102.800,375.145 102.260,375.000 101.600 C 374.855 100.940,374.574 100.400,374.376 100.400 C 374.178 100.400,373.902 99.950,373.764 99.400 C 373.626 98.850,373.353 98.400,373.157 98.400 C 372.960 98.400,372.800 98.124,372.800 97.787 C 372.800 97.451,372.541 97.076,372.224 96.954 C 371.908 96.833,371.534 96.208,371.393 95.567 C 371.252 94.925,370.974 94.400,370.776 94.400 C 370.578 94.400,370.302 93.950,370.164 93.400 C 370.026 92.850,369.792 92.400,369.643 92.400 C 369.494 92.400,369.029 91.815,368.609 91.100 C 368.189 90.385,367.610 89.562,367.322 89.271 C 367.035 88.981,366.800 88.486,366.800 88.171 C 366.800 87.857,366.665 87.595,366.500 87.589 C 366.335 87.583,365.759 86.863,365.220 85.989 C 364.680 85.115,364.095 84.400,363.920 84.400 C 363.744 84.400,363.600 84.124,363.600 83.787 C 363.600 83.451,363.330 83.071,363.000 82.945 C 362.670 82.818,362.400 82.462,362.400 82.153 C 362.400 81.845,362.040 81.284,361.600 80.907 C 361.160 80.530,360.800 79.992,360.800 79.711 C 360.800 79.430,360.665 79.199,360.500 79.197 C 360.335 79.196,359.754 78.521,359.208 77.697 C 358.663 76.874,357.808 75.804,357.308 75.319 C 356.809 74.835,356.400 74.326,356.400 74.188 C 356.400 74.051,355.860 73.398,355.200 72.738 C 354.540 72.078,354.000 71.402,354.000 71.235 C 354.000 71.068,353.233 70.137,352.295 69.166 C 351.357 68.195,350.115 66.770,349.534 66.000 C 348.463 64.580,347.708 63.814,338.789 55.097 C 333.102 49.540,331.150 47.764,329.202 46.373 C 328.452 45.838,327.449 44.995,326.973 44.500 C 326.498 44.005,325.913 43.600,325.674 43.600 C 325.435 43.600,325.096 43.375,324.920 43.100 C 324.644 42.669,322.378 40.784,319.147 38.300 C 318.647 37.915,318.023 37.600,317.761 37.600 C 317.500 37.600,317.182 37.330,317.055 37.000 C 316.929 36.670,316.549 36.400,316.213 36.400 C 315.876 36.400,315.600 36.256,315.600 36.080 C 315.600 35.905,314.885 35.320,314.011 34.780 C 313.137 34.241,312.417 33.665,312.411 33.500 C 312.405 33.335,312.236 33.200,312.035 33.200 C 311.834 33.200,310.713 32.570,309.544 31.800 C 308.375 31.030,307.189 30.400,306.909 30.400 C 306.629 30.400,306.400 30.223,306.400 30.008 C 306.400 29.792,305.950 29.502,305.400 29.364 C 304.850 29.226,304.400 28.953,304.400 28.757 C 304.400 28.560,304.149 28.400,303.843 28.400 C 303.536 28.400,303.182 28.130,303.055 27.800 C 302.929 27.470,302.549 27.200,302.213 27.200 C 301.876 27.200,301.596 27.065,301.592 26.900 C 301.587 26.735,300.601 26.150,299.400 25.600 C 298.199 25.050,297.213 24.479,297.208 24.332 C 297.204 24.184,296.660 23.945,296.000 23.800 C 295.340 23.655,294.800 23.390,294.800 23.212 C 294.800 23.033,294.350 22.774,293.800 22.636 C 293.250 22.498,292.800 22.222,292.800 22.024 C 292.800 21.826,292.260 21.545,291.600 21.400 C 290.940 21.255,290.400 20.985,290.400 20.800 C 290.400 20.615,289.860 20.345,289.200 20.200 C 288.540 20.055,288.000 19.779,288.000 19.586 C 288.000 19.394,287.370 19.118,286.600 18.974 C 285.830 18.829,285.200 18.565,285.200 18.387 C 285.200 18.209,284.660 17.945,284.000 17.800 C 283.340 17.655,282.800 17.415,282.800 17.266 C 282.800 16.944,281.041 16.151,279.500 15.779 C 278.895 15.633,278.400 15.355,278.400 15.161 C 278.400 14.968,277.680 14.694,276.800 14.554 C 275.920 14.413,275.200 14.149,275.200 13.967 C 275.200 13.785,274.570 13.518,273.800 13.374 C 273.030 13.229,272.400 12.967,272.400 12.791 C 272.400 12.614,271.680 12.349,270.800 12.200 C 269.920 12.051,269.200 11.786,269.200 11.610 C 269.200 11.435,268.390 11.169,267.400 11.021 C 266.410 10.872,265.600 10.602,265.600 10.421 C 265.600 10.239,264.790 9.969,263.800 9.821 C 262.810 9.672,262.000 9.402,262.000 9.221 C 262.000 9.039,261.194 8.770,260.209 8.622 C 259.224 8.475,258.317 8.189,258.193 7.988 C 258.069 7.788,257.075 7.505,255.984 7.360 C 254.893 7.215,254.000 6.958,254.000 6.788 C 254.000 6.618,252.920 6.353,251.600 6.200 C 250.280 6.047,249.200 5.777,249.200 5.600 C 249.200 5.423,248.120 5.153,246.799 5.000 C 245.479 4.847,244.298 4.559,244.176 4.361 C 244.053 4.162,243.344 4.000,242.600 4.000 C 241.856 4.000,241.147 3.838,241.025 3.641 C 240.903 3.443,239.542 3.155,238.000 3.000 C 236.458 2.845,235.109 2.576,235.001 2.402 C 234.894 2.228,233.139 1.956,231.103 1.798 C 229.066 1.641,227.220 1.371,227.000 1.199 C 225.656 0.149,191.552 -0.373,179.000 0.464 M209.763 129.540 C 209.879 129.727,211.906 130.005,214.267 130.158 C 216.629 130.311,218.750 130.588,218.980 130.773 C 219.211 130.959,220.525 131.239,221.900 131.395 C 223.275 131.551,224.400 131.823,224.400 132.000 C 224.400 132.177,225.480 132.447,226.800 132.600 C 228.120 132.753,229.200 133.020,229.200 133.194 C 229.200 133.367,230.006 133.630,230.991 133.778 C 231.976 133.925,232.874 134.195,232.986 134.378 C 233.099 134.560,233.845 134.832,234.645 134.982 C 235.444 135.132,236.391 135.403,236.749 135.583 C 237.107 135.764,238.163 136.247,239.095 136.656 C 240.930 137.461,241.195 137.887,240.100 138.269 C 239.199 138.583,235.600 142.039,235.600 142.590 C 235.600 142.821,235.150 143.348,234.600 143.761 C 234.050 144.174,233.600 144.725,233.600 144.986 C 233.600 145.247,233.150 145.883,232.600 146.400 C 232.050 146.917,231.597 147.533,231.593 147.770 C 231.567 149.424,228.573 150.353,227.000 149.195 C 226.780 149.033,225.749 148.778,224.709 148.627 C 223.669 148.477,222.714 148.184,222.586 147.977 C 222.458 147.770,221.823 147.600,221.176 147.600 C 220.529 147.600,220.000 147.438,220.000 147.241 C 220.000 147.043,218.695 146.752,217.100 146.595 C 215.505 146.437,213.930 146.173,213.600 146.008 C 213.270 145.842,211.875 145.610,210.500 145.491 L 208.000 145.276 208.000 159.838 C 208.000 168.099,207.846 174.400,207.643 174.400 C 207.447 174.400,207.165 174.895,207.016 175.500 C 206.645 177.004,204.452 179.200,203.322 179.200 C 202.815 179.200,202.400 179.380,202.400 179.600 C 202.400 179.822,201.333 180.000,200.000 180.000 C 198.667 180.000,197.600 179.822,197.600 179.600 C 197.600 179.380,197.213 179.200,196.740 179.200 C 195.683 179.200,193.327 176.847,192.974 175.437 C 192.830 174.867,192.553 174.400,192.357 174.400 C 192.154 174.400,192.000 168.066,192.000 159.758 L 192.000 145.115 188.300 145.402 C 186.265 145.560,184.420 145.831,184.200 146.005 C 183.980 146.179,182.582 146.450,181.094 146.608 C 179.606 146.765,178.291 147.053,178.171 147.247 C 178.051 147.441,177.434 147.600,176.800 147.600 C 176.166 147.600,175.549 147.759,175.429 147.954 C 175.308 148.148,174.402 148.429,173.414 148.577 C 172.427 148.725,171.520 149.005,171.400 149.200 C 171.280 149.395,170.376 149.675,169.391 149.822 C 168.406 149.970,167.600 150.250,167.600 150.445 C 167.600 150.640,167.285 150.801,166.900 150.802 C 166.515 150.804,165.717 151.057,165.127 151.365 C 164.537 151.673,163.502 152.046,162.827 152.194 C 162.152 152.342,161.600 152.629,161.600 152.832 C 161.600 153.034,161.375 153.203,161.100 153.206 C 160.503 153.213,153.707 156.600,152.821 157.332 C 152.479 157.615,151.750 158.067,151.200 158.338 C 149.536 159.159,148.637 159.739,146.923 161.100 C 146.022 161.815,145.114 162.400,144.904 162.400 C 144.695 162.400,144.198 162.760,143.800 163.200 C 143.402 163.640,142.921 164.000,142.731 164.000 C 142.542 164.000,141.610 164.810,140.662 165.800 C 139.713 166.790,138.776 167.600,138.579 167.600 C 138.078 167.600,132.800 172.886,132.798 173.389 C 132.798 173.615,131.988 174.573,130.998 175.518 C 130.009 176.463,129.200 177.380,129.200 177.556 C 129.200 177.732,128.840 178.202,128.400 178.600 C 127.960 178.998,127.600 179.497,127.600 179.709 C 127.600 179.921,127.060 180.709,126.400 181.461 C 124.686 183.414,125.689 185.114,129.200 186.204 C 129.750 186.375,130.470 186.823,130.800 187.200 C 131.130 187.577,131.850 188.025,132.400 188.195 C 132.950 188.366,133.940 188.886,134.600 189.352 C 136.062 190.383,137.956 191.475,138.900 191.830 C 139.285 191.975,139.600 192.233,139.600 192.403 C 139.600 192.574,140.075 192.832,140.655 192.978 C 141.235 193.124,142.287 193.683,142.992 194.221 C 143.698 194.760,144.413 195.200,144.580 195.200 C 145.373 195.200,148.107 197.860,148.811 199.318 C 149.636 201.025,149.904 204.800,149.200 204.800 C 148.980 204.800,148.800 205.178,148.800 205.640 C 148.800 206.558,146.522 209.044,144.918 209.876 C 142.992 210.875,140.013 210.534,136.976 208.968 C 132.391 206.603,130.203 205.397,128.970 204.558 C 128.326 204.119,127.350 203.546,126.800 203.283 C 125.724 202.770,124.886 202.265,123.000 200.993 C 122.340 200.548,120.949 199.772,119.909 199.269 C 118.869 198.765,117.913 198.184,117.785 197.976 C 117.306 197.200,116.454 197.642,116.200 198.800 C 116.055 199.460,115.771 200.000,115.568 200.000 C 115.366 200.000,115.200 200.361,115.200 200.801 C 115.200 201.242,114.840 202.275,114.400 203.096 C 113.960 203.916,113.600 204.906,113.600 205.294 C 113.600 205.682,113.420 206.000,113.200 206.000 C 112.980 206.000,112.800 206.236,112.800 206.525 C 112.800 209.042,105.622 211.444,102.746 209.889 C 100.821 208.848,100.000 208.195,100.000 207.704 C 100.000 207.427,99.833 207.200,99.629 207.200 C 98.435 207.200,97.323 200.866,98.400 200.200 C 98.620 200.064,98.800 199.676,98.800 199.337 C 98.800 198.567,99.261 197.544,103.686 188.500 C 105.650 184.485,107.405 181.200,107.585 181.200 C 107.766 181.200,108.035 180.716,108.183 180.124 C 108.332 179.532,108.981 178.381,109.627 177.566 C 110.272 176.751,110.800 175.949,110.800 175.784 C 110.800 175.618,111.430 174.714,112.200 173.774 C 112.970 172.834,113.600 171.930,113.600 171.764 C 113.600 171.598,114.500 170.427,115.600 169.163 C 116.700 167.898,117.600 166.672,117.600 166.437 C 117.600 165.865,131.089 152.400,131.663 152.400 C 131.911 152.400,133.062 151.590,134.221 150.600 C 135.379 149.610,136.453 148.800,136.606 148.800 C 136.759 148.800,137.541 148.290,138.342 147.666 C 139.144 147.043,140.070 146.414,140.400 146.269 C 141.079 145.970,142.498 145.102,142.800 144.800 C 143.216 144.384,147.681 141.904,150.297 140.635 C 150.790 140.396,151.195 140.065,151.197 139.900 C 151.199 139.735,151.557 139.600,151.994 139.600 C 152.431 139.600,153.826 139.079,155.094 138.443 C 158.532 136.718,160.250 136.000,160.937 136.000 C 161.276 136.000,161.654 135.836,161.778 135.635 C 161.903 135.434,162.722 135.148,163.600 135.000 C 164.478 134.852,165.288 134.582,165.400 134.400 C 165.512 134.218,166.322 133.948,167.200 133.800 C 168.078 133.652,168.890 133.379,169.004 133.193 C 169.119 133.008,170.202 132.732,171.412 132.581 C 172.621 132.430,173.698 132.165,173.805 131.993 C 173.911 131.820,175.124 131.551,176.499 131.395 C 177.875 131.239,179.191 130.957,179.425 130.769 C 179.659 130.581,181.600 130.304,183.738 130.153 C 185.877 130.003,187.721 129.727,187.837 129.540 C 188.112 129.096,209.488 129.096,209.763 129.540 M252.400 146.000 C 252.400 146.220,252.636 146.400,252.925 146.400 C 255.437 146.400,257.711 152.961,256.202 155.854 C 255.874 156.484,255.598 157.270,255.590 157.600 C 255.581 157.930,255.310 158.549,254.987 158.976 C 254.664 159.404,254.400 160.169,254.400 160.676 C 254.400 161.184,254.234 161.600,254.032 161.600 C 253.829 161.600,253.542 162.152,253.394 162.827 C 253.246 163.502,252.873 164.537,252.565 165.127 C 252.257 165.717,252.004 166.515,252.002 166.900 C 252.001 167.285,251.828 167.600,251.618 167.600 C 251.408 167.600,251.118 168.232,250.973 169.004 C 250.828 169.777,250.550 170.507,250.355 170.628 C 250.160 170.749,250.000 171.124,250.000 171.463 C 250.000 172.086,249.229 174.060,248.176 176.132 C 247.859 176.755,247.600 177.610,247.600 178.032 C 247.600 178.455,247.434 178.800,247.232 178.800 C 247.029 178.800,246.736 179.385,246.581 180.100 C 246.425 180.815,246.051 181.755,245.749 182.189 C 245.447 182.623,245.200 183.388,245.200 183.889 C 245.200 184.390,245.034 184.800,244.832 184.800 C 244.629 184.800,244.342 185.352,244.194 186.027 C 244.046 186.702,243.673 187.737,243.365 188.327 C 243.057 188.917,242.804 189.610,242.802 189.868 C 242.801 190.125,242.541 190.845,242.224 191.468 C 241.274 193.338,240.400 195.492,240.400 195.966 C 240.400 196.418,240.254 196.764,239.068 199.132 C 238.700 199.865,238.399 200.675,238.398 200.932 C 238.396 201.190,238.143 201.883,237.835 202.473 C 237.527 203.063,237.154 204.098,237.006 204.773 C 236.858 205.448,236.571 206.000,236.368 206.000 C 236.166 206.000,236.000 206.377,236.000 206.838 C 236.000 207.299,235.746 208.154,235.436 208.738 C 234.555 210.396,233.600 212.680,233.600 213.128 C 233.600 213.352,233.341 214.045,233.024 214.668 C 231.971 216.740,231.200 218.714,231.200 219.337 C 231.200 219.676,231.040 220.051,230.845 220.172 C 230.650 220.293,230.372 221.023,230.227 221.796 C 230.082 222.568,229.792 223.200,229.582 223.200 C 229.372 223.200,229.200 223.610,229.200 224.111 C 229.200 224.612,228.953 225.377,228.651 225.811 C 228.349 226.245,227.975 227.185,227.819 227.900 C 227.664 228.615,227.371 229.200,227.168 229.200 C 226.966 229.200,226.800 229.616,226.800 230.124 C 226.800 230.631,226.536 231.396,226.213 231.824 C 225.890 232.251,225.620 232.843,225.613 233.140 C 225.599 233.701,224.768 235.780,223.776 237.732 C 223.459 238.355,223.200 239.210,223.200 239.632 C 223.200 240.055,223.034 240.400,222.832 240.400 C 222.629 240.400,222.338 240.985,222.186 241.700 C 222.033 242.415,221.769 243.180,221.600 243.400 C 221.431 243.620,221.167 244.385,221.014 245.100 C 220.862 245.815,220.571 246.400,220.368 246.400 C 220.166 246.400,220.000 246.810,220.000 247.311 C 220.000 247.812,219.753 248.577,219.451 249.011 C 219.149 249.445,218.775 250.385,218.619 251.100 C 218.464 251.815,218.171 252.400,217.968 252.400 C 217.766 252.400,217.600 252.746,217.600 253.168 C 217.600 255.695,210.629 265.200,208.776 265.200 C 208.540 265.200,207.768 265.642,207.060 266.181 C 206.352 266.721,205.014 267.284,204.087 267.433 C 203.159 267.581,202.400 267.859,202.400 268.051 C 202.400 268.511,192.512 268.505,192.228 268.045 C 192.107 267.850,191.384 267.574,190.621 267.430 C 189.858 267.287,188.731 266.908,188.117 266.588 C 187.503 266.267,186.794 266.004,186.543 266.002 C 186.291 266.001,185.982 265.730,185.855 265.400 C 185.729 265.070,185.389 264.800,185.101 264.800 C 182.787 264.800,176.930 255.988,176.519 251.889 C 176.391 250.617,176.132 249.482,175.943 249.365 C 175.494 249.087,175.497 244.911,175.947 244.633 C 176.138 244.514,176.417 243.334,176.567 242.009 C 176.717 240.684,176.996 239.600,177.188 239.600 C 177.380 239.600,177.655 239.060,177.800 238.400 C 177.945 237.740,178.210 237.200,178.388 237.200 C 178.567 237.200,178.835 236.714,178.984 236.120 C 179.133 235.526,179.693 234.635,180.228 234.139 C 180.762 233.644,181.200 233.078,181.200 232.881 C 181.200 232.685,181.560 232.198,182.000 231.800 C 182.440 231.402,182.800 230.849,182.800 230.571 C 182.800 230.294,182.935 230.007,183.100 229.933 C 183.518 229.748,186.400 226.127,186.400 225.788 C 186.400 225.636,187.120 224.651,188.000 223.600 C 188.880 222.549,189.600 221.563,189.600 221.408 C 189.600 221.254,190.410 220.179,191.400 219.021 C 192.390 217.862,193.200 216.796,193.200 216.651 C 193.200 216.507,193.965 215.414,194.900 214.223 C 197.045 211.490,199.280 208.491,199.800 207.650 C 200.275 206.881,202.177 204.462,203.010 203.566 C 203.335 203.218,203.600 202.754,203.600 202.536 C 203.600 202.318,204.050 201.717,204.600 201.200 C 205.150 200.683,205.600 200.016,205.600 199.718 C 205.600 199.419,205.870 199.071,206.200 198.945 C 206.530 198.818,206.800 198.492,206.800 198.219 C 206.800 197.947,207.160 197.398,207.600 197.000 C 208.040 196.602,208.400 196.100,208.400 195.884 C 208.400 195.668,208.850 195.075,209.400 194.565 C 209.950 194.055,210.400 193.478,210.400 193.281 C 210.400 193.085,210.760 192.598,211.200 192.200 C 211.640 191.802,212.000 191.300,212.000 191.085 C 212.000 190.870,212.318 190.403,212.707 190.047 C 213.096 189.691,214.116 188.365,214.974 187.100 C 215.831 185.835,216.683 184.800,216.866 184.800 C 217.050 184.800,217.200 184.558,217.200 184.262 C 217.200 183.966,217.560 183.398,218.000 183.000 C 218.440 182.602,218.800 182.047,218.800 181.767 C 218.800 181.487,219.250 180.904,219.800 180.471 C 220.350 180.039,220.800 179.514,220.800 179.304 C 220.800 179.095,221.160 178.598,221.600 178.200 C 222.040 177.802,222.400 177.311,222.400 177.110 C 222.400 176.908,223.120 175.890,224.000 174.846 C 224.880 173.802,225.600 172.809,225.600 172.638 C 225.600 172.467,226.410 171.379,227.400 170.221 C 228.390 169.062,229.200 167.982,229.200 167.821 C 229.200 167.659,230.010 166.579,231.000 165.421 C 231.990 164.262,232.800 163.165,232.800 162.983 C 232.800 162.800,233.520 161.798,234.400 160.754 C 235.280 159.710,236.000 158.733,236.000 158.581 C 236.000 158.324,237.675 156.201,239.010 154.766 C 239.335 154.418,239.600 153.992,239.600 153.819 C 239.600 153.647,240.095 152.925,240.700 152.216 C 241.305 151.507,242.070 150.513,242.400 150.007 C 243.604 148.164,244.882 146.803,245.929 146.250 C 247.166 145.597,252.400 145.395,252.400 146.000 M269.421 154.800 C 269.968 154.800,281.600 166.511,281.600 167.062 C 281.600 167.321,281.735 167.593,281.900 167.667 C 282.323 167.855,286.000 172.272,286.000 172.592 C 286.000 172.737,286.720 173.710,287.600 174.754 C 288.480 175.798,289.200 176.794,289.200 176.968 C 289.200 177.142,289.695 177.941,290.300 178.744 C 291.676 180.569,292.256 181.479,293.014 183.000 C 293.668 184.313,294.486 185.686,294.800 186.000 C 295.170 186.369,296.800 189.883,296.800 190.310 C 296.800 190.543,296.946 190.793,297.125 190.867 C 297.582 191.055,301.200 198.563,301.200 199.325 C 301.200 199.670,301.380 200.064,301.600 200.200 C 301.820 200.336,302.000 201.427,302.000 202.624 C 302.000 203.821,301.820 204.800,301.600 204.800 C 301.380 204.800,301.200 205.176,301.200 205.634 C 301.200 207.781,297.365 210.400,294.223 210.400 C 291.349 210.400,287.200 208.114,287.200 206.530 C 287.200 206.239,287.034 206.000,286.832 206.000 C 286.629 206.000,286.347 205.469,286.205 204.821 C 285.903 203.449,283.348 198.139,282.838 197.823 C 282.647 197.705,282.268 197.877,281.996 198.204 C 281.724 198.532,281.254 198.800,280.951 198.800 C 280.648 198.800,280.400 198.966,280.400 199.168 C 280.400 199.371,279.860 199.655,279.200 199.800 C 278.540 199.945,278.000 200.224,278.000 200.420 C 278.000 200.616,277.055 201.231,275.900 201.787 C 273.788 202.803,273.187 203.148,271.032 204.577 C 269.778 205.409,267.471 206.673,263.024 208.968 C 260.251 210.399,256.000 211.023,256.000 210.000 C 256.000 209.780,255.662 209.600,255.248 209.600 C 254.835 209.600,253.713 208.840,252.756 207.911 L 251.016 206.222 251.008 202.751 C 250.998 198.601,251.957 197.006,255.637 195.051 C 256.827 194.418,257.892 193.758,258.004 193.582 C 258.116 193.407,258.701 193.140,259.304 192.988 C 259.907 192.837,260.400 192.574,260.400 192.403 C 260.400 192.233,260.715 191.983,261.100 191.848 C 261.485 191.713,262.520 191.156,263.400 190.611 C 264.280 190.065,265.315 189.504,265.700 189.363 C 266.085 189.222,266.400 188.962,266.400 188.785 C 266.400 188.608,266.940 188.345,267.600 188.200 C 268.260 188.055,268.800 187.792,268.800 187.616 C 268.800 187.440,269.788 186.796,270.995 186.185 C 274.173 184.577,274.677 183.926,273.738 182.639 C 273.332 182.081,272.865 181.619,272.700 181.613 C 272.535 181.606,272.400 181.397,272.400 181.149 C 272.400 180.524,270.500 178.340,265.722 173.473 C 261.698 169.374,261.107 168.270,262.365 167.200 C 262.799 166.831,263.600 165.216,263.602 164.705 C 263.604 164.427,263.857 163.717,264.165 163.127 C 264.473 162.537,264.855 161.457,265.013 160.727 C 265.172 159.997,265.549 159.045,265.851 158.611 C 266.153 158.177,266.400 157.243,266.400 156.535 C 266.400 155.827,266.580 155.136,266.800 155.000 C 267.020 154.864,267.200 154.372,267.200 153.907 L 267.200 153.061 268.126 153.930 C 268.635 154.409,269.218 154.800,269.421 154.800 M215.759 212.722 C 215.530 212.875,215.213 213.270,215.055 213.600 C 214.600 214.553,213.841 215.780,213.314 216.415 C 213.047 216.737,212.282 217.654,211.614 218.453 C 210.946 219.252,210.400 220.092,210.400 220.319 C 210.400 220.547,210.265 220.793,210.100 220.867 C 209.661 221.062,206.800 224.681,206.800 225.042 C 206.800 225.210,206.080 226.202,205.200 227.246 C 204.320 228.290,203.600 229.272,203.600 229.429 C 203.600 229.585,202.790 230.662,201.800 231.821 C 200.810 232.979,200.000 234.059,200.000 234.221 C 200.000 234.382,199.190 235.462,198.200 236.621 C 197.210 237.779,196.400 238.867,196.400 239.038 C 196.400 239.209,195.680 240.202,194.800 241.246 C 193.920 242.290,193.200 243.277,193.200 243.440 C 193.200 243.603,192.894 244.075,192.521 244.488 C 190.391 246.841,192.631 252.012,195.988 252.490 C 199.722 253.021,202.317 250.840,203.438 246.227 C 203.595 245.581,203.965 244.591,204.259 244.027 C 204.554 243.462,204.796 242.790,204.798 242.532 C 204.799 242.275,205.059 241.555,205.376 240.932 C 206.289 239.136,207.200 236.914,207.200 236.485 C 207.200 236.269,207.469 235.576,207.798 234.946 C 208.126 234.316,208.396 233.485,208.398 233.100 C 208.399 232.715,208.566 232.400,208.768 232.400 C 208.971 232.400,209.258 231.848,209.406 231.173 C 209.554 230.498,209.927 229.463,210.235 228.873 C 210.543 228.283,210.796 227.590,210.798 227.332 C 210.799 227.075,211.053 226.355,211.363 225.732 C 211.673 225.110,212.104 224.150,212.322 223.600 C 212.540 223.050,213.007 221.943,213.359 221.140 C 213.712 220.336,214.006 219.436,214.013 219.140 C 214.020 218.843,214.290 218.251,214.613 217.824 C 214.936 217.396,215.200 216.631,215.200 216.124 C 215.200 215.616,215.366 215.200,215.568 215.200 C 215.935 215.200,216.611 212.877,216.326 212.593 C 216.244 212.511,215.989 212.569,215.759 212.722 " stroke="none" fill="#14fc7c" fill-rule="evenodd"></path><path id="path1" d="M187.837 129.540 C 187.721 129.727,185.877 130.003,183.738 130.153 C 181.600 130.304,179.659 130.581,179.425 130.769 C 179.191 130.957,177.875 131.239,176.499 131.395 C 175.124 131.551,173.911 131.820,173.805 131.993 C 173.698 132.165,172.621 132.430,171.412 132.581 C 170.202 132.732,169.119 133.008,169.004 133.193 C 168.890 133.379,168.078 133.652,167.200 133.800 C 166.322 133.948,165.512 134.218,165.400 134.400 C 165.288 134.582,164.478 134.852,163.600 135.000 C 162.722 135.148,161.903 135.434,161.778 135.635 C 161.654 135.836,161.276 136.000,160.937 136.000 C 160.250 136.000,158.532 136.718,155.094 138.443 C 153.826 139.079,152.431 139.600,151.994 139.600 C 151.557 139.600,151.199 139.735,151.197 139.900 C 151.195 140.065,150.790 140.396,150.297 140.635 C 147.681 141.904,143.216 144.384,142.800 144.800 C 142.498 145.102,141.079 145.970,140.400 146.269 C 140.070 146.414,139.144 147.043,138.342 147.666 C 137.541 148.290,136.759 148.800,136.606 148.800 C 136.453 148.800,135.379 149.610,134.221 150.600 C 133.062 151.590,131.911 152.400,131.663 152.400 C 131.089 152.400,117.600 165.865,117.600 166.437 C 117.600 166.672,116.700 167.898,115.600 169.163 C 114.500 170.427,113.600 171.598,113.600 171.764 C 113.600 171.930,112.970 172.834,112.200 173.774 C 111.430 174.714,110.800 175.618,110.800 175.784 C 110.800 175.949,110.272 176.751,109.627 177.566 C 108.981 178.381,108.332 179.532,108.183 180.124 C 108.035 180.716,107.766 181.200,107.585 181.200 C 107.405 181.200,105.650 184.485,103.686 188.500 C 99.261 197.544,98.800 198.567,98.800 199.337 C 98.800 199.676,98.620 200.064,98.400 200.200 C 97.323 200.866,98.435 207.200,99.629 207.200 C 99.833 207.200,100.000 207.427,100.000 207.704 C 100.000 208.195,100.821 208.848,102.746 209.889 C 105.622 211.444,112.800 209.042,112.800 206.525 C 112.800 206.236,112.980 206.000,113.200 206.000 C 113.420 206.000,113.600 205.682,113.600 205.294 C 113.600 204.906,113.960 203.916,114.400 203.096 C 114.840 202.275,115.200 201.242,115.200 200.801 C 115.200 200.361,115.366 200.000,115.568 200.000 C 115.771 200.000,116.055 199.460,116.200 198.800 C 116.454 197.642,117.306 197.200,117.785 197.976 C 117.913 198.184,118.869 198.765,119.909 199.269 C 120.949 199.772,122.340 200.548,123.000 200.993 C 124.886 202.265,125.724 202.770,126.800 203.283 C 127.350 203.546,128.326 204.119,128.970 204.558 C 138.210 210.849,143.471 211.809,147.364 207.916 C 148.154 207.126,148.800 206.102,148.800 205.640 C 148.800 205.178,148.980 204.800,149.200 204.800 C 149.904 204.800,149.636 201.025,148.811 199.318 C 148.107 197.860,145.373 195.200,144.580 195.200 C 144.413 195.200,143.698 194.760,142.992 194.221 C 142.287 193.683,141.235 193.124,140.655 192.978 C 140.075 192.832,139.600 192.574,139.600 192.403 C 139.600 192.233,139.285 191.975,138.900 191.830 C 137.956 191.475,136.062 190.383,134.600 189.352 C 133.940 188.886,132.950 188.366,132.400 188.195 C 131.850 188.025,131.130 187.577,130.800 187.200 C 130.470 186.823,129.750 186.375,129.200 186.204 C 125.689 185.114,124.686 183.414,126.400 181.461 C 127.060 180.709,127.600 179.921,127.600 179.709 C 127.600 179.497,127.960 178.998,128.400 178.600 C 128.840 178.202,129.200 177.732,129.200 177.556 C 129.200 177.380,130.009 176.463,130.998 175.518 C 131.988 174.573,132.798 173.615,132.798 173.389 C 132.800 172.886,138.078 167.600,138.579 167.600 C 138.776 167.600,139.713 166.790,140.662 165.800 C 141.610 164.810,142.542 164.000,142.731 164.000 C 142.921 164.000,143.402 163.640,143.800 163.200 C 144.198 162.760,144.695 162.400,144.904 162.400 C 145.114 162.400,146.022 161.815,146.923 161.100 C 148.637 159.739,149.536 159.159,151.200 158.338 C 151.750 158.067,152.479 157.615,152.821 157.332 C 153.707 156.600,160.503 153.213,161.100 153.206 C 161.375 153.203,161.600 153.034,161.600 152.832 C 161.600 152.629,162.152 152.342,162.827 152.194 C 163.502 152.046,164.537 151.673,165.127 151.365 C 165.717 151.057,166.515 150.804,166.900 150.802 C 167.285 150.801,167.600 150.640,167.600 150.445 C 167.600 150.250,168.406 149.970,169.391 149.822 C 170.376 149.675,171.280 149.395,171.400 149.200 C 171.520 149.005,172.427 148.725,173.414 148.577 C 174.402 148.429,175.308 148.148,175.429 147.954 C 175.549 147.759,176.166 147.600,176.800 147.600 C 177.434 147.600,178.051 147.441,178.171 147.247 C 178.291 147.053,179.606 146.765,181.094 146.608 C 182.582 146.450,183.980 146.179,184.200 146.005 C 184.420 145.831,186.265 145.560,188.300 145.402 L 192.000 145.115 192.000 159.758 C 192.000 168.066,192.154 174.400,192.357 174.400 C 192.553 174.400,192.830 174.867,192.974 175.437 C 193.327 176.847,195.683 179.200,196.740 179.200 C 197.213 179.200,197.600 179.380,197.600 179.600 C 197.600 179.822,198.667 180.000,200.000 180.000 C 201.333 180.000,202.400 179.822,202.400 179.600 C 202.400 179.380,202.815 179.200,203.322 179.200 C 204.452 179.200,206.645 177.004,207.016 175.500 C 207.165 174.895,207.447 174.400,207.643 174.400 C 207.846 174.400,208.000 168.099,208.000 159.838 L 208.000 145.276 210.500 145.491 C 211.875 145.610,213.270 145.842,213.600 146.008 C 213.930 146.173,215.505 146.437,217.100 146.595 C 218.695 146.752,220.000 147.043,220.000 147.241 C 220.000 147.438,220.529 147.600,221.176 147.600 C 221.823 147.600,222.458 147.770,222.586 147.977 C 222.714 148.184,223.669 148.477,224.709 148.627 C 225.749 148.778,226.780 149.033,227.000 149.195 C 228.573 150.353,231.567 149.424,231.593 147.770 C 231.597 147.533,232.050 146.917,232.600 146.400 C 233.150 145.883,233.600 145.247,233.600 144.986 C 233.600 144.725,234.050 144.174,234.600 143.761 C 235.150 143.348,235.600 142.821,235.600 142.590 C 235.600 142.039,239.199 138.583,240.100 138.269 C 241.195 137.887,240.930 137.461,239.095 136.656 C 238.163 136.247,237.107 135.764,236.749 135.583 C 236.391 135.403,235.444 135.132,234.645 134.982 C 233.845 134.832,233.099 134.560,232.986 134.378 C 232.874 134.195,231.976 133.925,230.991 133.778 C 230.006 133.630,229.200 133.367,229.200 133.194 C 229.200 133.020,228.120 132.753,226.800 132.600 C 225.480 132.447,224.400 132.177,224.400 132.000 C 224.400 131.823,223.275 131.551,221.900 131.395 C 220.525 131.239,219.211 130.959,218.980 130.773 C 218.750 130.588,216.629 130.311,214.267 130.158 C 211.906 130.005,209.879 129.727,209.763 129.540 C 209.488 129.096,188.112 129.096,187.837 129.540 M245.929 146.250 C 244.882 146.803,243.604 148.164,242.400 150.007 C 242.070 150.513,241.305 151.507,240.700 152.216 C 240.095 152.925,239.600 153.647,239.600 153.819 C 239.600 153.992,239.335 154.418,239.010 154.766 C 237.675 156.201,236.000 158.324,236.000 158.581 C 236.000 158.733,235.280 159.710,234.400 160.754 C 233.520 161.798,232.800 162.800,232.800 162.983 C 232.800 163.165,231.990 164.262,231.000 165.421 C 230.010 166.579,229.200 167.659,229.200 167.821 C 229.200 167.982,228.390 169.062,227.400 170.221 C 226.410 171.379,225.600 172.467,225.600 172.638 C 225.600 172.809,224.880 173.802,224.000 174.846 C 223.120 175.890,222.400 176.908,222.400 177.110 C 222.400 177.311,222.040 177.802,221.600 178.200 C 221.160 178.598,220.800 179.095,220.800 179.304 C 220.800 179.514,220.350 180.039,219.800 180.471 C 219.250 180.904,218.800 181.487,218.800 181.767 C 218.800 182.047,218.440 182.602,218.000 183.000 C 217.560 183.398,217.200 183.966,217.200 184.262 C 217.200 184.558,217.050 184.800,216.866 184.800 C 216.683 184.800,215.831 185.835,214.974 187.100 C 214.116 188.365,213.096 189.691,212.707 190.047 C 212.318 190.403,212.000 190.870,212.000 191.085 C 212.000 191.300,211.640 191.802,211.200 192.200 C 210.760 192.598,210.400 193.085,210.400 193.281 C 210.400 193.478,209.950 194.055,209.400 194.565 C 208.850 195.075,208.400 195.668,208.400 195.884 C 208.400 196.100,208.040 196.602,207.600 197.000 C 207.160 197.398,206.800 197.947,206.800 198.219 C 206.800 198.492,206.530 198.818,206.200 198.945 C 205.870 199.071,205.600 199.419,205.600 199.718 C 205.600 200.016,205.150 200.683,204.600 201.200 C 204.050 201.717,203.600 202.318,203.600 202.536 C 203.600 202.754,203.335 203.218,203.010 203.566 C 202.177 204.462,200.275 206.881,199.800 207.650 C 199.280 208.491,197.045 211.490,194.900 214.223 C 193.965 215.414,193.200 216.507,193.200 216.651 C 193.200 216.796,192.390 217.862,191.400 219.021 C 190.410 220.179,189.600 221.254,189.600 221.408 C 189.600 221.563,188.880 222.549,188.000 223.600 C 187.120 224.651,186.400 225.636,186.400 225.788 C 186.400 226.127,183.518 229.748,183.100 229.933 C 182.935 230.007,182.800 230.294,182.800 230.571 C 182.800 230.849,182.440 231.402,182.000 231.800 C 181.560 232.198,181.200 232.685,181.200 232.881 C 181.200 233.078,180.762 233.644,180.228 234.139 C 179.693 234.635,179.133 235.526,178.984 236.120 C 178.835 236.714,178.567 237.200,178.388 237.200 C 178.210 237.200,177.945 237.740,177.800 238.400 C 177.655 239.060,177.380 239.600,177.188 239.600 C 176.996 239.600,176.717 240.684,176.567 242.009 C 176.417 243.334,176.138 244.514,175.947 244.633 C 175.497 244.911,175.494 249.087,175.943 249.365 C 176.132 249.482,176.391 250.617,176.519 251.889 C 176.930 255.988,182.787 264.800,185.101 264.800 C 185.389 264.800,185.729 265.070,185.855 265.400 C 185.982 265.730,186.291 266.001,186.543 266.002 C 186.794 266.004,187.503 266.267,188.117 266.588 C 188.731 266.908,189.858 267.287,190.621 267.430 C 191.384 267.574,192.107 267.850,192.228 268.045 C 192.512 268.505,202.400 268.511,202.400 268.051 C 202.400 267.859,203.159 267.581,204.087 267.433 C 205.014 267.284,206.352 266.721,207.060 266.181 C 207.768 265.642,208.540 265.200,208.776 265.200 C 210.629 265.200,217.600 255.695,217.600 253.168 C 217.600 252.746,217.766 252.400,217.968 252.400 C 218.171 252.400,218.464 251.815,218.619 251.100 C 218.775 250.385,219.149 249.445,219.451 249.011 C 219.753 248.577,220.000 247.812,220.000 247.311 C 220.000 246.810,220.166 246.400,220.368 246.400 C 220.571 246.400,220.862 245.815,221.014 245.100 C 221.167 244.385,221.431 243.620,221.600 243.400 C 221.769 243.180,222.033 242.415,222.186 241.700 C 222.338 240.985,222.629 240.400,222.832 240.400 C 223.034 240.400,223.200 240.055,223.200 239.632 C 223.200 239.210,223.459 238.355,223.776 237.732 C 224.768 235.780,225.599 233.701,225.613 233.140 C 225.620 232.843,225.890 232.251,226.213 231.824 C 226.536 231.396,226.800 230.631,226.800 230.124 C 226.800 229.616,226.966 229.200,227.168 229.200 C 227.371 229.200,227.664 228.615,227.819 227.900 C 227.975 227.185,228.349 226.245,228.651 225.811 C 228.953 225.377,229.200 224.612,229.200 224.111 C 229.200 223.610,229.372 223.200,229.582 223.200 C 229.792 223.200,230.082 222.568,230.227 221.796 C 230.372 221.023,230.650 220.293,230.845 220.172 C 231.040 220.051,231.200 219.676,231.200 219.337 C 231.200 218.714,231.971 216.740,233.024 214.668 C 233.341 214.045,233.600 213.352,233.600 213.128 C 233.600 212.680,234.555 210.396,235.436 208.738 C 235.746 208.154,236.000 207.299,236.000 206.838 C 236.000 206.377,236.166 206.000,236.368 206.000 C 236.571 206.000,236.858 205.448,237.006 204.773 C 237.154 204.098,237.527 203.063,237.835 202.473 C 238.143 201.883,238.396 201.190,238.398 200.932 C 238.399 200.675,238.700 199.865,239.068 199.132 C 240.254 196.764,240.400 196.418,240.400 195.966 C 240.400 195.492,241.274 193.338,242.224 191.468 C 242.541 190.845,242.801 190.125,242.802 189.868 C 242.804 189.610,243.057 188.917,243.365 188.327 C 243.673 187.737,244.046 186.702,244.194 186.027 C 244.342 185.352,244.629 184.800,244.832 184.800 C 245.034 184.800,245.200 184.390,245.200 183.889 C 245.200 183.388,245.447 182.623,245.749 182.189 C 246.051 181.755,246.425 180.815,246.581 180.100 C 246.736 179.385,247.029 178.800,247.232 178.800 C 247.434 178.800,247.600 178.455,247.600 178.032 C 247.600 177.610,247.859 176.755,248.176 176.132 C 249.229 174.060,250.000 172.086,250.000 171.463 C 250.000 171.124,250.160 170.749,250.355 170.628 C 250.550 170.507,250.828 169.777,250.973 169.004 C 251.118 168.232,251.408 167.600,251.618 167.600 C 251.828 167.600,252.001 167.285,252.002 166.900 C 252.004 166.515,252.257 165.717,252.565 165.127 C 252.873 164.537,253.246 163.502,253.394 162.827 C 253.542 162.152,253.829 161.600,254.032 161.600 C 254.234 161.600,254.400 161.184,254.400 160.676 C 254.400 160.169,254.664 159.404,254.987 158.976 C 255.310 158.549,255.581 157.930,255.590 157.600 C 255.598 157.270,255.874 156.484,256.202 155.854 C 257.711 152.961,255.437 146.400,252.925 146.400 C 252.636 146.400,252.400 146.220,252.400 146.000 C 252.400 145.395,247.166 145.597,245.929 146.250 M267.200 153.907 C 267.200 154.372,267.020 154.864,266.800 155.000 C 266.580 155.136,266.400 155.827,266.400 156.535 C 266.400 157.243,266.153 158.177,265.851 158.611 C 265.549 159.045,265.172 159.997,265.013 160.727 C 264.855 161.457,264.473 162.537,264.165 163.127 C 263.857 163.717,263.604 164.427,263.602 164.705 C 263.600 165.216,262.799 166.831,262.365 167.200 C 261.107 168.270,261.698 169.374,265.722 173.473 C 270.500 178.340,272.400 180.524,272.400 181.149 C 272.400 181.397,272.535 181.606,272.700 181.613 C 272.865 181.619,273.332 182.081,273.738 182.639 C 274.677 183.926,274.173 184.577,270.995 186.185 C 269.788 186.796,268.800 187.440,268.800 187.616 C 268.800 187.792,268.260 188.055,267.600 188.200 C 266.940 188.345,266.400 188.608,266.400 188.785 C 266.400 188.962,266.085 189.222,265.700 189.363 C 265.315 189.504,264.280 190.065,263.400 190.611 C 262.520 191.156,261.485 191.713,261.100 191.848 C 260.715 191.983,260.400 192.233,260.400 192.403 C 260.400 192.574,259.907 192.837,259.304 192.988 C 258.701 193.140,258.116 193.407,258.004 193.582 C 257.892 193.758,256.827 194.418,255.637 195.051 C 251.957 197.006,250.998 198.601,251.008 202.751 L 251.016 206.222 252.756 207.911 C 253.713 208.840,254.835 209.600,255.248 209.600 C 255.662 209.600,256.000 209.780,256.000 210.000 C 256.000 211.023,260.251 210.399,263.024 208.968 C 267.471 206.673,269.778 205.409,271.032 204.577 C 273.187 203.148,273.788 202.803,275.900 201.787 C 277.055 201.231,278.000 200.616,278.000 200.420 C 278.000 200.224,278.540 199.945,279.200 199.800 C 279.860 199.655,280.400 199.371,280.400 199.168 C 280.400 198.966,280.648 198.800,280.951 198.800 C 281.254 198.800,281.724 198.532,281.996 198.204 C 282.268 197.877,282.647 197.705,282.838 197.823 C 283.348 198.139,285.903 203.449,286.205 204.821 C 286.347 205.469,286.629 206.000,286.832 206.000 C 287.034 206.000,287.200 206.239,287.200 206.530 C 287.200 208.114,291.349 210.400,294.223 210.400 C 297.365 210.400,301.200 207.781,301.200 205.634 C 301.200 205.176,301.380 204.800,301.600 204.800 C 301.820 204.800,302.000 203.821,302.000 202.624 C 302.000 201.427,301.820 200.336,301.600 200.200 C 301.380 200.064,301.200 199.670,301.200 199.325 C 301.200 198.563,297.582 191.055,297.125 190.867 C 296.946 190.793,296.800 190.543,296.800 190.310 C 296.800 189.883,295.170 186.369,294.800 186.000 C 294.486 185.686,293.668 184.313,293.014 183.000 C 292.256 181.479,291.676 180.569,290.300 178.744 C 289.695 177.941,289.200 177.142,289.200 176.968 C 289.200 176.794,288.480 175.798,287.600 174.754 C 286.720 173.710,286.000 172.737,286.000 172.592 C 286.000 172.272,282.323 167.855,281.900 167.667 C 281.735 167.593,281.600 167.321,281.600 167.062 C 281.600 166.511,269.968 154.800,269.421 154.800 C 269.218 154.800,268.635 154.409,268.126 153.930 L 267.200 153.061 267.200 153.907 M216.206 213.971 C 216.058 214.647,215.771 215.200,215.568 215.200 C 215.366 215.200,215.200 215.616,215.200 216.124 C 215.200 216.631,214.936 217.396,214.613 217.824 C 214.290 218.251,214.020 218.843,214.013 219.140 C 214.006 219.436,213.712 220.336,213.359 221.140 C 213.007 221.943,212.540 223.050,212.322 223.600 C 212.104 224.150,211.673 225.110,211.363 225.732 C 211.053 226.355,210.799 227.075,210.798 227.332 C 210.796 227.590,210.543 228.283,210.235 228.873 C 209.927 229.463,209.554 230.498,209.406 231.173 C 209.258 231.848,208.971 232.400,208.768 232.400 C 208.566 232.400,208.399 232.715,208.398 233.100 C 208.396 233.485,208.126 234.316,207.798 234.946 C 207.469 235.576,207.200 236.269,207.200 236.485 C 207.200 236.914,206.289 239.136,205.376 240.932 C 205.059 241.555,204.799 242.275,204.798 242.532 C 204.796 242.790,204.554 243.462,204.259 244.027 C 203.965 244.591,203.595 245.581,203.438 246.227 C 202.317 250.840,199.722 253.021,195.988 252.490 C 192.631 252.012,190.391 246.841,192.521 244.488 C 192.894 244.075,193.200 243.603,193.200 243.440 C 193.200 243.277,193.920 242.290,194.800 241.246 C 195.680 240.202,196.400 239.209,196.400 239.038 C 196.400 238.867,197.210 237.779,198.200 236.621 C 199.190 235.462,200.000 234.382,200.000 234.221 C 200.000 234.059,200.810 232.979,201.800 231.821 C 202.790 230.662,203.600 229.585,203.600 229.429 C 203.600 229.272,204.320 228.290,205.200 227.246 C 206.080 226.202,206.800 225.210,206.800 225.042 C 206.800 224.681,209.661 221.062,210.100 220.867 C 210.265 220.793,210.400 220.547,210.400 220.319 C 210.400 220.092,210.946 219.252,211.614 218.453 C 212.282 217.654,213.047 216.737,213.314 216.415 C 213.841 215.780,214.600 214.553,215.055 213.600 C 215.814 212.011,216.582 212.259,216.206 213.971 " stroke="none" fill="#040404" fill-rule="evenodd"></path></g></svg>